<svg width="16" height="21" fill="none" xmlns="http://www.w3.org/2000/svg"><path d="M5.204 17.19c-.912-.834-1.178-2.585-.798-3.853.658.8 1.571 1.053 2.516 1.196 1.46.22 2.893.138 4.249-.529.155-.076.298-.178.467-.28.128.368.16.74.116 1.12-.108.924-.567 1.637-1.298 2.178-.293.216-.602.41-.904.613-.927.627-1.178 1.362-.83 2.431.009.026.016.052.035.116a2.438 2.438 0 01-1.083-.926 2.605 2.605 0 01-.418-1.415c-.003-.249-.003-.5-.037-.747-.082-.599-.363-.867-.893-.883a1.046 1.046 0 00-1.089.85c-.009.04-.021.081-.034.128z" fill="#fff"/><path d="M5.204 17.19c-.912-.834-1.178-2.585-.798-3.853.658.8 1.571 1.053 2.516 1.196 1.46.22 2.893.138 4.249-.529.155-.076.298-.178.467-.28.128.368.16.74.116 1.12-.108.924-.567 1.637-1.298 2.178-.293.216-.602.41-.904.613-.927.627-1.178 1.362-.83 2.431.009.026.016.052.035.116a2.438 2.438 0 01-1.083-.926 2.605 2.605 0 01-.418-1.415c-.003-.249-.003-.5-.037-.747-.082-.599-.363-.867-.893-.883a1.046 1.046 0 00-1.089.85c-.009.04-.021.081-.034.128z" fill="url(#a)"/><path d="M0 13.125s2.7-1.315 5.407-1.315l2.041-6.317c.077-.306.3-.514.552-.514.252 0 .475.208.551.514l2.042 6.317c3.206 0 5.407 1.315 5.407 1.315L11.405.607C11.273.237 11.051 0 10.752 0H5.249c-.3 0-.513.238-.654.607L0 13.125z" fill="#17191E"/><defs><linearGradient id="a" x1="4.24" y1="638.099" x2="856.554" y2="235.405" gradientUnits="userSpaceOnUse"><stop stop-color="#D83333"/><stop offset="1" stop-color="#F041FF"/></linearGradient></defs></svg>