<svg width="135" height="78" viewBox="0 0 135 78" fill="none" xmlns="http://www.w3.org/2000/svg">
<path d="M67.166 2.5C89.9937 2.5 108.775 2.49894 121.668 3.27344H121.677V3.27441C123.895 3.41547 125.993 4.33167 127.604 5.86328C129.208 7.38951 130.228 9.42971 130.484 11.6289C131.349 18.6191 131.832 29.8801 131.832 38.5371C131.832 47.1888 131.35 58.4406 130.486 65.4316C130.232 67.6359 129.212 69.6807 127.604 71.21C125.993 72.7417 123.895 73.6587 121.677 73.7998L121.668 73.8008C108.775 74.5753 89.9936 74.5742 67.166 74.5742C44.3381 74.5742 25.5564 74.5753 12.6631 73.8008L12.6543 73.7998C10.4362 73.6587 8.33805 72.7417 6.72754 71.21C5.11717 69.6782 4.09682 67.6291 3.84473 65.4209L3.8457 65.4199C2.98259 58.4281 2.50001 47.1972 2.5 38.5371C2.5 29.8669 2.98266 18.619 3.84766 11.6289C4.10438 9.42977 5.12285 7.38949 6.72754 5.86328C8.33805 4.33159 10.4362 3.41555 12.6543 3.27441L12.6631 3.27344C25.5564 2.49891 44.3381 2.5 67.166 2.5Z" fill="#CBCBCB" stroke="#34BEED" stroke-width="5"/>
</svg>
