<svg width="396" height="215" viewBox="0 0 396 215" fill="none" xmlns="http://www.w3.org/2000/svg">
<path d="M197.636 0.817566C269.711 0.817566 328.665 0.81785 369.051 3.23846H369.054C374.393 3.57729 379.443 5.77833 383.32 9.45721C387.195 13.1344 389.651 18.054 390.259 23.3557C392.937 44.9448 394.454 80.0491 394.454 107.136C394.454 134.223 392.938 169.327 390.26 190.916L390.259 190.915C389.651 196.217 387.195 201.137 383.32 204.815C379.443 208.494 374.393 210.695 369.054 211.033H369.051C328.665 213.454 269.711 213.454 197.636 213.454C125.561 213.454 66.6068 213.454 26.2209 211.033H26.218C20.8791 210.695 15.8292 208.494 11.9523 204.815C8.07703 201.137 5.62015 196.217 5.0119 190.915C2.33441 169.326 0.817566 134.264 0.817566 107.136C0.817566 80.0079 2.33433 44.9448 5.0119 23.3557C5.62034 18.054 8.07727 13.1344 11.9523 9.45721C15.8292 5.77833 20.8791 3.57729 26.218 3.23846H26.2209C66.6068 0.81785 125.561 0.817566 197.636 0.817566Z" fill="#CBCBCB" stroke="currentColor" stroke-width="1.63594"/>
</svg>
