<svg width="41" height="55" fill="none" xmlns="http://www.w3.org/2000/svg"><g filter="url(#a)"><g filter="url(#b)"><path d="M2.731 1.059h25.887a5.053 5.053 0 015.053 5.053v40.427H2.731V1.059z" fill="#B6E2F2"/><path d="M28.618 1.69a4.422 4.422 0 014.422 4.422v39.795H3.363V1.69h25.255z" stroke="#34BEED" stroke-width="1.263"/></g><path fill="#F2F2F2" d="M5.544 8.639H30.858V44.012H5.544z"/><path d="M5.632 37.767h25.139v6.293H5.632v-6.293z" fill="#31A6D0"/><g filter="url(#c)"><mask id="d" maskUnits="userSpaceOnUse" x="6.927" y="19.937" width="23" height="9" fill="#000"><path fill="#fff" d="M6.927 19.937H29.927V28.937H6.927z"/><path d="M16.963 25.577c0 .965-.178 1.608-.535 1.93-.35.315-1.045.472-2.087.472l-1.626.032-1.321-.021c-1.406 0-2.311-.182-2.717-.546-.398-.37-.598-.944-.598-1.72l-.062-1.468c0-1.147.167-1.986.503-2.517.336-.539 1.02-.808 2.056-.808l1.992-.052c.58 0 1.06.007 1.437.02.378.008.836.039 1.374.095.539.056.923.294 1.154.713.23.413.346.98.346 1.7h-2.066c0-.322-.08-.536-.241-.64-.154-.112-.402-.168-.745-.168l-.598-.01h-.587l-1.08.01c-.644 0-1.039.119-1.186.356-.14.238-.21.73-.21 1.48 0 .768.085 1.268.252 1.499.168.23.616.346 1.343.346l.828.021 1.091-.01c.427 0 .73-.06.913-.179.181-.119.272-.398.272-.839h2.088l.01.304zm5.758 2.36l-3.692-6.995h2.329l2.748 5.275 2.863-5.275h2.37l-3.901 6.995H22.72z"/></mask><path d="M16.963 25.577c0 .965-.178 1.608-.535 1.93-.35.315-1.045.472-2.087.472l-1.626.032-1.321-.021c-1.406 0-2.311-.182-2.717-.546-.398-.37-.598-.944-.598-1.72l-.062-1.468c0-1.147.167-1.986.503-2.517.336-.539 1.02-.808 2.056-.808l1.992-.052c.58 0 1.06.007 1.437.02.378.008.836.039 1.374.095.539.056.923.294 1.154.713.23.413.346.98.346 1.7h-2.066c0-.322-.08-.536-.241-.64-.154-.112-.402-.168-.745-.168l-.598-.01h-.587l-1.08.01c-.644 0-1.039.119-1.186.356-.14.238-.21.73-.21 1.48 0 .768.085 1.268.252 1.499.168.23.616.346 1.343.346l.828.021 1.091-.01c.427 0 .73-.06.913-.179.181-.119.272-.398.272-.839h2.088l.01.304zm5.758 2.36l-3.692-6.995h2.329l2.748 5.275 2.863-5.275h2.37l-3.901 6.995H22.72z" fill="#31A6D0"/><path d="M16.963 25.577h.315v-.01l-.315.01zm-.535 1.93l.21.234-.21-.234zm-2.087.472v-.315h-.006l.006.315zm-1.626.032l-.005.314h.011l-.006-.314zm-1.321-.021l.005-.315h-.005v.315zm-2.717-.546l-.214.23.004.005.21-.235zm-.598-1.72h.315v-.013l-.315.013zm-.062-1.468h-.315v.013l.315-.013zm.503-2.517l.266.168.001-.002-.267-.166zm2.056-.808v.315h.008l-.008-.315zm1.992-.052v-.315h-.008l.008.315zm1.437.02l-.011.315h.005l.006-.314zm1.374.095l.033-.313-.033.313zm1.154.713l-.276.152.001.002.275-.154zm.346 1.7v.314h.315v-.315h-.315zm-2.066 0h-.315v.314h.315v-.315zm-.241-.64l-.185.254.006.005.007.004.172-.264zm-.745-.168l-.005.314h.005V22.6zm-.598-.01l.006-.316h-.006v.315zm-.587 0v-.316h-.003l.003.315zm-1.08.01v.314h.003l-.003-.314zm-1.186.356l-.267-.165-.004.006.271.16zm.042 2.979l.255-.185-.255.185zm1.343.346l.008-.315h-.008v.315zm.828.021l-.008.315h.011l-.003-.315zm1.091-.01v-.315h-.003l.003.315zm.913-.179l-.173-.263.173.263zm.272-.839v-.314h-.314v.314h.314zm2.088 0l.314-.01-.01-.305h-.305v.315zm.01.304h-.315c0 .955-.182 1.472-.43 1.696l.21.234.21.234c.465-.42.64-1.189.64-2.164h-.315zm-.535 1.93l-.21-.234c-.12.108-.323.209-.643.281-.318.072-.727.11-1.234.11v.63c.535 0 .994-.04 1.373-.126.375-.085.694-.22.925-.427l-.21-.234zm-2.087.472l-.006-.314-1.626.031.006.315.006.314 1.626-.031-.006-.315zm-1.626.032l.005-.315-1.321-.021-.005.315-.005.314 1.321.021.005-.314zm-1.321-.021v-.315c-.692 0-1.247-.045-1.671-.13-.432-.087-.695-.209-.836-.335l-.21.234-.21.235c.265.237.658.388 1.132.483.48.096 1.08.142 1.795.142v-.314zm-2.717-.546l.215-.23c-.312-.29-.498-.763-.498-1.49h-.629c0 .826.212 1.499.698 1.95l.214-.23zm-.598-1.72l.315-.013-.063-1.469-.314.014-.315.013.063 1.469.314-.014zm-.062-1.468h.314c0-1.13.168-1.895.455-2.35l-.266-.167-.266-.168c-.384.608-.552 1.52-.552 2.685h.315zm.503-2.517l.267.166c.249-.399.792-.66 1.789-.66v-.629c-1.073 0-1.9.278-2.323.956l.267.167zm2.056-.808l.008.315 1.993-.053-.009-.314-.008-.315-1.993.052.009.315zm1.992-.052v.314c.579 0 1.053.007 1.426.021l.011-.314.012-.315a40.434 40.434 0 00-1.449-.021v.315zm1.437.02l-.006.315c.366.007.815.038 1.348.093l.032-.313.033-.313a16.9 16.9 0 00-1.4-.096l-.007.315zm1.374.095l-.032.313c.451.047.736.236.91.552l.276-.152.276-.152c-.288-.522-.772-.809-1.397-.874l-.033.313zm1.154.713l-.275.154c.195.347.306.853.306 1.545h.63c0-.748-.12-1.375-.386-1.852l-.275.153zm.346 1.7v-.315h-2.066v.629h2.066v-.315zm-2.066 0h.314c0-.356-.086-.71-.384-.904l-.171.264-.172.263c.024.016.098.088.098.376h.315zm-.241-.64l.185-.255c-.236-.172-.568-.228-.93-.228v.629c.323 0 .488.056.56.108l.185-.255zm-.745-.168l.005-.315-.597-.01-.006.314-.005.315.598.01.005-.314zm-.598-.01v-.316h-.587v.63h.587v-.315zm-.587 0l-.003-.315-1.08.01.003.315.003.314 1.08-.01-.003-.315zm-1.08.01v-.315c-.338 0-.631.03-.87.103-.237.07-.454.194-.583.403l.267.165.268.166c.018-.029.071-.084.23-.132.156-.047.381-.076.688-.076V22.6zm-1.186.356l-.27-.16c-.102.173-.162.404-.198.664a7.126 7.126 0 00-.056.975h.629c0-.366.018-.66.05-.887.033-.233.078-.367.117-.432l-.272-.16zm-.21 1.48h-.314c0 .393.021.73.067 1.003.045.266.118.507.245.681l.254-.185.255-.185c-.041-.056-.094-.181-.133-.415a5.62 5.62 0 01-.059-.9h-.314zm.252 1.499l-.254.185c.146.201.384.314.637.38.26.066.583.096.96.096v-.63c-.35 0-.615-.028-.803-.076-.194-.05-.264-.11-.285-.14l-.255.185zm1.343.346l-.008.315.828.02.008-.314.008-.315-.828-.02-.008.314zm.828.021l.003.315 1.091-.01-.003-.316-.003-.314-1.09.01.002.315zm1.091-.01v.314c.439 0 .822-.058 1.085-.23l-.172-.263-.173-.263c-.1.066-.325.127-.74.127v.315zm.913-.179l.172.264a.85.85 0 00.331-.466c.06-.182.084-.398.084-.637h-.629c0 .202-.022.346-.053.443-.031.096-.065.125-.078.133l.173.263zm.272-.839v.315h2.088v-.629h-2.088v.314zm2.088 0l-.315.011.01.304.315-.01.314-.011-.01-.305-.314.011zm5.768 2.664l-.278.147.088.168h.19v-.315zm-3.692-6.995v-.315h-.521l.243.461.278-.146zm2.329 0l.279-.146-.088-.17h-.191v.316zm2.748 5.275l-.28.145.274.525.282-.52-.276-.15zm2.863-5.275v-.315h-.187l-.09.165.277.15zm2.37 0l.275.153.261-.468h-.536v.315zm-3.901 6.995v.315h.184l.09-.162-.274-.153zm-2.717 0L23 27.79l-3.692-6.995-.279.146-.278.147 3.692 6.996.278-.147zm-3.692-6.995v.314h2.329v-.629h-2.329v.315zm2.329 0l-.28.145 2.749 5.275.279-.145.279-.145-2.748-5.276-.28.146zm2.748 5.275l.276.15 2.863-5.275-.276-.15-.277-.15-2.863 5.275.277.15zm2.863-5.275v.314h2.37v-.629h-2.37v.315zm2.37 0l-.275-.154-3.901 6.996.275.153.274.153 3.902-6.995-.275-.153zm-3.901 6.995v-.315H22.72v.63h2.717v-.315z" fill="#31A6D0" mask="url(#d)"/></g></g><defs><filter id="a" x=".634" y=".01" width="35.135" height="50.724" filterUnits="userSpaceOnUse" color-interpolation-filters="sRGB"><feFlood flood-opacity="0" result="BackgroundImageFix"/><feColorMatrix in="SourceAlpha" values="0 0 0 0 0 0 0 0 0 0 0 0 0 0 0 0 0 0 127 0" result="hardAlpha"/><feOffset dy="2.098"/><feGaussianBlur stdDeviation="1.049"/><feComposite in2="hardAlpha" operator="out"/><feColorMatrix values="0 0 0 0 0 0 0 0 0 0 0 0 0 0 0 0 0 0 0.25 0"/><feBlend in2="BackgroundImageFix" result="effect1_dropShadow_534_1007"/><feBlend in="SourceGraphic" in2="effect1_dropShadow_534_1007" result="shape"/><feGaussianBlur stdDeviation=".524" result="effect2_foregroundBlur_534_1007"/></filter><filter id="b" x="1.525" y=".901" width="38.596" height="53.136" filterUnits="userSpaceOnUse" color-interpolation-filters="sRGB"><feFlood flood-opacity="0" result="BackgroundImageFix"/><feColorMatrix in="SourceAlpha" values="0 0 0 0 0 0 0 0 0 0 0 0 0 0 0 0 0 0 127 0" result="hardAlpha"/><feOffset dx="2.622" dy="3.671"/><feGaussianBlur stdDeviation="1.914"/><feComposite in2="hardAlpha" operator="out"/><feColorMatrix values="0 0 0 0 0 0 0 0 0 0 0 0 0 0 0 0 0 0 0.25 0"/><feBlend in2="BackgroundImageFix" result="effect1_dropShadow_534_1007"/><feBlend in="SourceGraphic" in2="effect1_dropShadow_534_1007" result="shape"/></filter><filter id="c" x="6.653" y="19.515" width="24.271" height="9.859" filterUnits="userSpaceOnUse" color-interpolation-filters="sRGB"><feFlood flood-opacity="0" result="BackgroundImageFix"/><feBlend in="SourceGraphic" in2="BackgroundImageFix" result="shape"/><feGaussianBlur stdDeviation=".524" result="effect1_foregroundBlur_534_1007"/></filter></defs></svg>