<svg width="107" height="71" viewBox="0 0 107 71" fill="none" xmlns="http://www.w3.org/2000/svg">
<path d="M106.345 4.43105L106.345 13.2932L54.6339 38.6102C53.712 39.0615 52.6332 39.0615 51.7113 38.6102L-1.94018e-05 13.2932L-2.17261e-05 4.43108C-2.23679e-05 1.98388 1.98383 2.73707e-05 4.43103 2.67289e-05L101.914 1.16212e-06C104.361 5.20301e-07 106.345 1.98385 106.345 4.43105Z" fill="currentColor"/>
<path d="M54.6588 48.5524L106.345 22.7091L106.345 66.4658C106.345 68.913 104.361 70.8968 101.914 70.8968L4.43105 70.8968C1.98384 70.8968 -4.81449e-06 68.913 -5.45632e-06 66.4658L-1.69323e-05 22.7092L51.6864 48.5524C52.622 49.0202 53.7232 49.0202 54.6588 48.5524Z" fill="currentColor"/>
</svg>
