<svg width="393" height="142" fill="none" xmlns="http://www.w3.org/2000/svg"><g filter="url(#a)"><path d="M61.832 1c9.623 0 21.435 0 35.624 26.117 9.725 17.901 18.837 29.177 36.547 29.177h124.994c17.71 0 26.821-11.276 36.546-29.177C309.732 1 321.545 1 331.168 1H393v139.999H0V1h61.832z" fill="#E1E2E6"/></g><path d="M61.832 1V.493 1zm35.624 26.117l.445-.242-.445.242zm161.541 29.177v.507-.507zm36.546-29.177l-.445-.242.445.242zM331.168 1V.493 1zM393 1h.507V.493H393V1zm0 139.999v.507h.507v-.507H393zm-393 0h-.507v.507H0v-.507zM0 1V.493h-.507V1H0zm61.832 0v.507c4.81 0 10.05.005 15.855 3.202 5.813 3.2 12.255 9.638 19.324 22.65l.445-.242.445-.242C90.781 13.771 84.223 7.15 78.176 3.821 72.122.488 66.645.493 61.832.493V1zm35.624 26.117l-.445.242c4.867 8.959 9.611 16.32 15.388 21.439 5.799 5.137 12.623 8.002 21.604 8.002v-1.013c-8.729 0-15.316-2.772-20.932-7.748-5.637-4.994-10.312-12.221-15.17-21.164l-.445.242zm36.547 29.177v.507h124.994v-1.014H134.003v.507zm124.994 0v.507c8.981 0 15.805-2.866 21.603-8.003 5.778-5.12 10.521-12.48 15.388-21.439l-.445-.242-.445-.242c-4.858 8.943-9.533 16.17-15.17 21.164-5.616 4.976-12.202 7.748-20.931 7.748v.507zm36.546-29.177l.445.242c7.07-13.013 13.511-19.45 19.324-22.65 5.806-3.197 11.046-3.202 15.856-3.202V.493c-4.813 0-10.291-.005-16.345 3.328-6.046 3.329-12.606 9.95-19.725 23.054l.445.242zM331.168 1v.507H393V.493h-61.832V1zM393 1h-.507v139.999h1.014V1H393zm0 139.999v-.507H0v1.014h393v-.507zm-393 0h.507V1H-.507v139.999H0zM0 1v.507h61.832V.493H0V1z" fill="#34BEED"/><defs><filter id="a" x="-.507" y=".493" width="394.013" height="147.902" filterUnits="userSpaceOnUse" color-interpolation-filters="sRGB"><feFlood flood-opacity="0" result="BackgroundImageFix"/><feBlend in="SourceGraphic" in2="BackgroundImageFix" result="shape"/><feColorMatrix in="SourceAlpha" values="0 0 0 0 0 0 0 0 0 0 0 0 0 0 0 0 0 0 127 0" result="hardAlpha"/><feOffset dy="6.889"/><feGaussianBlur stdDeviation="4.053"/><feComposite in2="hardAlpha" operator="arithmetic" k2="-1" k3="1"/><feColorMatrix values="0 0 0 0 0 0 0 0 0 0 0 0 0 0 0 0 0 0 0.09 0"/><feBlend in2="shape" result="effect1_innerShadow_534_998"/></filter></defs></svg>