<svg width="395" height="164" viewBox="0 0 395 164" fill="none" xmlns="http://www.w3.org/2000/svg">
<mask id="path-1-inside-1_927_1396" fill="white">
<path d="M62.3389 0C67.1518 6.25897e-06 72.6289 -0.00485385 78.6826 3.32812C84.7291 6.65719 91.289 13.2777 98.4082 26.3818C103.266 35.3243 107.941 42.5515 113.578 47.5459C119.194 52.5216 125.78 55.2939 134.51 55.2939H259.504L260.316 55.2861C268.644 55.1187 274.995 52.3661 280.436 47.5459C286.072 42.5516 290.746 35.3241 295.604 26.3818C302.724 13.2776 309.283 6.65718 315.33 3.32812C321.384 -0.00489192 326.862 6.25703e-06 331.675 0H394.014V141.013H393.507V163.507H0.506836V141.013H0V0H62.3389Z"/>
</mask>
<path d="M62.3389 0C67.1518 6.25897e-06 72.6289 -0.00485385 78.6826 3.32812C84.7291 6.65719 91.289 13.2777 98.4082 26.3818C103.266 35.3243 107.941 42.5515 113.578 47.5459C119.194 52.5216 125.78 55.2939 134.51 55.2939H259.504L260.316 55.2861C268.644 55.1187 274.995 52.3661 280.436 47.5459C286.072 42.5516 290.746 35.3241 295.604 26.3818C302.724 13.2776 309.283 6.65718 315.33 3.32812C321.384 -0.00489192 326.862 6.25703e-06 331.675 0H394.014V141.013H393.507V163.507H0.506836V141.013H0V0H62.3389Z" fill="#E1E2E6"/>
<path d="M62.3389 0L62.3389 -1H62.3389V0ZM78.6826 3.32812L79.1649 2.45212L79.1649 2.45212L78.6826 3.32812ZM98.4082 26.3818L99.2869 25.9045L99.2869 25.9045L98.4082 26.3818ZM113.578 47.5459L112.915 48.2944L112.915 48.2944L113.578 47.5459ZM259.504 55.2939V56.294L259.514 56.2939L259.504 55.2939ZM260.316 55.2861L260.326 56.2861L260.337 56.2859L260.316 55.2861ZM280.436 47.5459L281.099 48.2944L281.099 48.2944L280.436 47.5459ZM295.604 26.3818L294.726 25.9045L294.726 25.9045L295.604 26.3818ZM315.33 3.32812L314.848 2.45211L314.848 2.45212L315.33 3.32812ZM331.675 0L331.675 -1L331.675 -1L331.675 0ZM394.014 0H395.014V-1H394.014V0ZM394.014 141.013V142.013H395.014V141.013H394.014ZM393.507 141.013V140.013H392.507V141.013H393.507ZM393.507 163.507V164.507H394.507V163.507H393.507ZM0.506836 163.507H-0.493164V164.507H0.506836V163.507ZM0.506836 141.013H1.50684V140.013H0.506836V141.013ZM0 141.013H-1V142.013H0V141.013ZM0 0V-1H-1V0H0ZM62.3389 0L62.3389 1C67.1483 1.00001 72.3917 1.00608 78.2003 4.20413L78.6826 3.32812L79.1649 2.45212C72.8661 -1.01579 67.1553 -0.999994 62.3389 -1L62.3389 0ZM78.6826 3.32812L78.2003 4.20413C84.016 7.40613 90.4596 13.8458 97.5295 26.8592L98.4082 26.3818L99.2869 25.9045C92.1184 12.7095 85.4422 5.90824 79.1649 2.45212L78.6826 3.32812ZM98.4082 26.3818L97.5295 26.8592C102.396 35.8177 107.139 43.1773 112.915 48.2944L113.578 47.5459L114.241 46.7974C108.743 41.9258 104.136 34.8309 99.2869 25.9045L98.4082 26.3818ZM113.578 47.5459L112.915 48.2944C118.711 53.4296 125.532 56.2939 134.51 56.2939V55.2939V54.2939C126.029 54.2939 119.677 51.6136 114.241 46.7974L113.578 47.5459ZM134.51 55.2939V56.2939H259.504V55.2939V54.2939H134.51V55.2939ZM259.504 55.2939L259.514 56.2939L260.326 56.2861L260.316 55.2861L260.307 54.2862L259.494 54.294L259.504 55.2939ZM260.316 55.2861L260.337 56.2859C268.908 56.1136 275.486 53.2674 281.099 48.2944L280.436 47.5459L279.772 46.7974C274.505 51.4647 268.38 54.1238 260.296 54.2863L260.316 55.2861ZM280.436 47.5459L281.099 48.2944C286.874 43.1772 291.616 35.8174 296.483 26.8592L295.604 26.3818L294.726 25.9045C289.876 34.8308 285.271 41.9259 279.772 46.7974L280.436 47.5459ZM295.604 26.3818L296.483 26.8592C303.553 13.8457 309.997 7.40612 315.812 4.20413L315.33 3.32812L314.848 2.45212C308.57 5.90823 301.894 12.7095 294.726 25.9045L295.604 26.3818ZM315.33 3.32812L315.812 4.20414C321.621 1.00604 326.865 1.00001 331.675 1L331.675 0L331.675 -1C326.858 -0.999994 321.147 -1.01583 314.848 2.45211L315.33 3.32812ZM331.675 0V1H394.014V0V-1H331.675V0ZM394.014 0H393.014V141.013H394.014H395.014V0H394.014ZM394.014 141.013V140.013H393.507V141.013V142.013H394.014V141.013ZM393.507 141.013H392.507V163.507H393.507H394.507V141.013H393.507ZM393.507 163.507V162.507H0.506836V163.507V164.507H393.507V163.507ZM0.506836 163.507H1.50684V141.013H0.506836H-0.493164V163.507H0.506836ZM0.506836 141.013V140.013H0V141.013V142.013H0.506836V141.013ZM0 141.013H1V0H0H-1V141.013H0ZM0 0V1H62.3389V0V-1H0V0Z" fill="#34BEED" mask="url(#path-1-inside-1_927_1396)"/>
</svg>
