<svg width="1920" height="307" viewBox="0 0 1920 307" fill="none" xmlns="http://www.w3.org/2000/svg">
<g filter="url(#filter0_i_7_334)">
<path d="M295.145 2.5C342.634 2.50003 400.933 2.50028 470.956 62.0107C518.951 102.8 563.914 128.49 651.314 128.49H1268.17C1355.57 128.49 1400.54 102.8 1448.53 62.0107C1518.55 2.50033 1576.85 2.50003 1624.34 2.5H1929.49V321.498H-10V2.5H295.145Z" fill="#E1E2E6"/>
</g>
<path d="M295.145 2.5L295.145 1.78814e-05H295.145V2.5ZM470.956 62.0107L469.337 63.9157L469.337 63.9157L470.956 62.0107ZM651.314 128.49L651.314 130.99H651.314V128.49ZM1268.17 128.49L1268.17 130.99L1268.17 130.99L1268.17 128.49ZM1448.53 62.0107L1450.15 63.9157L1450.15 63.9157L1448.53 62.0107ZM1624.34 2.5L1624.34 1.78814e-05L1624.34 1.78814e-05L1624.34 2.5ZM1929.49 2.5H1931.99V1.78814e-05H1929.49V2.5ZM1929.49 321.498V323.998H1931.99V321.498H1929.49ZM-10 321.498H-12.5V323.998H-10V321.498ZM-10 2.5V1.78814e-05H-12.5V2.5H-10ZM295.145 2.5L295.145 4.99998C318.904 5 345.06 5.00937 373.984 12.3619C402.866 19.7036 434.606 34.3988 469.337 63.9157L470.956 62.0107L472.575 60.1058C437.283 30.1123 404.862 15.052 375.216 7.51603C345.612 -0.00919619 318.875 3.21251e-05 295.145 1.78814e-05L295.145 2.5ZM470.956 62.0107L469.337 63.9157C493.428 84.3899 516.899 101.197 545.412 112.86C573.935 124.528 607.359 130.99 651.314 130.99L651.314 128.49L651.314 125.99C607.87 125.99 575.111 119.607 547.305 108.232C519.487 96.8533 496.479 80.4206 472.575 60.1058L470.956 62.0107ZM651.314 128.49V130.99H1268.17V128.49V125.99H651.314V128.49ZM1268.17 128.49L1268.17 130.99C1312.13 130.99 1345.55 124.528 1374.07 112.86C1402.59 101.197 1426.06 84.3898 1450.15 63.9157L1448.53 62.0107L1446.91 60.1058C1423.01 80.4206 1400 96.8533 1372.18 108.232C1344.38 119.607 1311.62 125.99 1268.17 125.99L1268.17 128.49ZM1448.53 62.0107L1450.15 63.9157C1484.88 34.3988 1516.62 19.7037 1545.5 12.3619C1574.43 5.00938 1600.58 5 1624.34 4.99998L1624.34 2.5L1624.34 1.78814e-05C1600.61 3.21251e-05 1573.87 -0.00918333 1544.27 7.51605C1514.62 15.0521 1482.2 30.1123 1446.91 60.1058L1448.53 62.0107ZM1624.34 2.5V4.99998H1929.49V2.5V1.78814e-05H1624.34V2.5ZM1929.49 2.5H1926.99V321.498H1929.49H1931.99V2.5H1929.49ZM1929.49 321.498V318.998H-10V321.498V323.998H1929.49V321.498ZM-10 321.498H-7.50002V2.5H-10H-12.5V321.498H-10ZM-10 2.5V4.99998H295.145V2.5V1.78814e-05H-10V2.5Z" fill="#34BEED"/>
<defs>
<filter id="filter0_i_7_334" x="-12.5" y="0" width="1944.49" height="357.998" filterUnits="userSpaceOnUse" color-interpolation-filters="sRGB">
<feFlood flood-opacity="0" result="BackgroundImageFix"/>
<feBlend mode="normal" in="SourceGraphic" in2="BackgroundImageFix" result="shape"/>
<feColorMatrix in="SourceAlpha" type="matrix" values="0 0 0 0 0 0 0 0 0 0 0 0 0 0 0 0 0 0 127 0" result="hardAlpha"/>
<feOffset dy="33.9998"/>
<feGaussianBlur stdDeviation="19.9999"/>
<feComposite in2="hardAlpha" operator="arithmetic" k2="-1" k3="1"/>
<feColorMatrix type="matrix" values="0 0 0 0 0 0 0 0 0 0 0 0 0 0 0 0 0 0 0.09 0"/>
<feBlend mode="normal" in2="shape" result="effect1_innerShadow_7_334"/>
</filter>
</defs>
</svg>
