<svg width="65" height="64" viewBox="0 0 65 64" fill="none" xmlns="http://www.w3.org/2000/svg">
<path d="M32.5 0C17.3062 0 5 12.3131 5 27.5C5 39.6527 12.8787 49.9583 23.8031 53.5906C25.1781 53.8496 25.6823 52.9994 25.6823 52.2683C25.6823 51.6152 25.6594 49.885 25.6479 47.5933C17.9983 49.2525 16.385 43.9037 16.385 43.9037C15.1337 40.7298 13.3256 39.8819 13.3256 39.8819C10.8346 38.1769 13.5181 38.2112 13.5181 38.2112C16.2796 38.4037 17.7302 41.0437 17.7302 41.0437C20.1823 45.249 24.1675 44.0344 25.7396 43.3308C25.9871 41.5525 26.6952 40.3402 27.4813 39.6527C21.374 38.9652 14.955 36.6002 14.955 26.0631C14.955 23.061 16.0206 20.609 17.7852 18.684C17.4758 17.9896 16.5477 15.1938 18.0258 11.4056C18.0258 11.4056 20.329 10.6677 25.5883 14.2244C27.7883 13.6125 30.1258 13.31 32.4633 13.2962C34.8008 13.31 37.1383 13.6125 39.3383 14.2244C44.5633 10.6677 46.8665 11.4056 46.8665 11.4056C48.3446 15.1938 47.4165 17.9896 47.1415 18.684C48.8946 20.609 49.9602 23.061 49.9602 26.0631C49.9602 36.6277 43.5321 38.9537 37.4133 39.6298C38.3758 40.4548 39.2696 42.1415 39.2696 44.7173C39.2696 48.3977 39.2352 51.354 39.2352 52.2477C39.2352 52.9696 39.7165 53.829 41.1258 53.554C52.1281 49.9469 60 39.6344 60 27.5C60 12.3131 47.6869 0 32.5 0Z" fill="currentColor"/>
</svg>