<svg width="1920" height="1080" fill="none" xmlns="http://www.w3.org/2000/svg"><g opacity=".09"><path stroke="#222020" stroke-width="1.655" d="M-56.001 892.457L1928.14 892.457M-56.001 468.821L1928.14 468.821M-56.001 45.182L1928.14 45.182M-56.001 680.637L1928.14 680.637M-56.001 257.002L1928.14 257.002M-56.001 786.547L1928.14 786.547M-56.001 362.911L1928.14 362.911M-56.001 574.728L1928.14 574.728M-56.001 998.366L1928.14 998.366M-56.001 151.092L1928.14 151.092M6.055 7.95L6.055 1540.32M853.332 7.95L853.332 1540.32M429.694 7.95L429.694 1540.32M1276.97 7.95L1276.97 1540.32M1700.6 7.95L1700.6 1540.32M217.875 7.95L217.875 1540.32M1065.15 7.95L1065.15 1540.32M641.512 7.95L641.512 1540.32M1488.78 7.95L1488.78 1540.32M1912.42 7.95L1912.42 1540.32M111.968 7.95L111.968 1540.32M959.239 7.95L959.238 1540.32M535.601 7.95L535.601 1540.32M1382.88 7.95L1382.88 1540.32M1806.51 7.95L1806.51 1540.32M323.787 7.95L323.787 1540.32M1171.06 7.95L1171.06 1540.32M747.42 7.95L747.42 1540.32M1594.69 7.95L1594.69 1540.32"/></g><g opacity=".5" fill="#D9AB52"><path fill-opacity=".25" d="M1489.46 364.038H1594.767V467.841H1489.46z"/><path fill-opacity=".15" d="M640.986 681.398H746.293V785.201H640.986z"/><path fill-opacity=".25" d="M1382.65 469.346H1487.957V573.149H1382.65z"/><path fill-opacity=".15" d="M535.486 364.038H640.793V467.841H535.486z"/><path fill-opacity=".25" d="M1382.65 364.038H1487.957V467.841H1382.65z"/><path fill-opacity=".15" d="M535.486 681.398H640.793V785.201H535.486z"/><path fill-opacity=".2" d="M218.251 998.891H323.558V1104.1979999999999H218.251z"/><path fill-opacity=".15" d="M1277.34 151.919H1382.647V257.226H1277.34zM1170.88 46.007H1276.1870000000001V150.369H1170.88zM1170.88 151.356H1276.1870000000001V256.404H1170.88z"/><path fill-opacity=".2" d="M218.251 255.722H325.063V364.038H218.251zM111.44 150.415H218.252V255.72199999999998H111.44z"/><path fill-opacity=".2" d="M6.133 151.919H112.945V257.226H6.133z"/><path fill-opacity=".2" d="M111.44 255.722H218.252V364.038H111.44z"/><path fill-opacity=".25" d="M535.678 45.107H642.49V150.414H535.678z"/><path fill-opacity=".2" d="M218.251 467.841H323.558V574.653H218.251z"/><path fill-opacity=".15" d="M1489.46 998.891H1594.767V1104.1979999999999H1489.46z"/></g></svg>