<svg width="61" height="61" viewBox="0 0 61 61" fill="none" xmlns="http://www.w3.org/2000/svg">
<path d="M19.4663 0.184836C16.6573 0.317276 14.7391 0.765635 13.062 1.42431C11.3267 2.10081 9.85551 3.00831 8.39184 4.47724C6.92839 5.94618 6.02683 7.41819 5.35539 9.15663C4.7055 10.837 4.26506 12.7569 4.14098 15.5674C4.0169 18.3779 3.9894 19.2814 4.00326 26.4508C4.0169 33.6197 4.04858 34.5184 4.18476 37.3348C4.31896 40.1431 4.76556 42.0608 5.42447 43.7383C6.10207 45.4739 7.00847 46.9444 8.47808 48.4085C9.94747 49.8726 11.4184 50.7719 13.1608 51.4445C14.8399 52.0935 16.7602 52.5359 19.5703 52.6589C22.3804 52.7821 23.2848 52.8107 30.452 52.7968C37.6192 52.7832 38.5216 52.7513 41.3372 52.6177C44.1532 52.4842 46.0606 52.0343 47.7388 51.3785C49.4744 50.6996 50.946 49.7945 52.409 48.3247C53.872 46.8546 54.7729 45.3815 55.4439 43.6422C56.0944 41.9632 56.5364 40.043 56.6583 37.2349C56.7815 34.417 56.8106 33.5174 56.7969 26.3494C56.7831 19.1811 56.7507 18.2824 56.6172 15.4671C56.4836 12.6518 56.0364 10.74 55.3779 9.06137C54.6994 7.3258 53.7939 5.85642 52.3252 4.39122C50.8562 2.92603 49.3818 2.02579 47.6433 1.35633C45.963 0.706235 44.0439 0.263376 41.2338 0.141937C38.4237 0.0204969 37.5193 -0.010963 30.3495 0.00311693C23.1797 0.0167569 22.282 0.0475568 19.4663 0.184836ZM19.7747 47.9095C17.2007 47.7975 15.803 47.3699 14.8715 47.0119C13.6382 46.5367 12.7595 45.9623 11.8313 45.0429C10.9029 44.1238 10.3329 43.242 9.85133 42.0113C9.48965 41.0799 9.05404 39.6837 8.9337 37.1097C8.8028 34.3279 8.7753 33.4925 8.7599 26.4442C8.7445 19.3961 8.77156 18.5616 8.89344 15.7786C9.00344 13.2068 9.43377 11.8076 9.79105 10.8766C10.2662 9.64173 10.8387 8.76459 11.7601 7.83707C12.6814 6.90934 13.5605 6.338 14.7923 5.85642C15.7229 5.4932 17.1188 5.06134 19.6918 4.9388C22.4759 4.8068 23.3101 4.7804 30.3574 4.765C37.4047 4.7496 38.2411 4.776 41.0264 4.89876C43.5982 5.01052 44.998 5.43666 45.928 5.79636C47.1617 6.27156 48.04 6.84224 48.9675 7.76535C49.8953 8.68803 50.467 9.56407 50.9486 10.7985C51.3123 11.7262 51.7444 13.1217 51.8658 15.6963C51.9982 18.4804 52.0284 19.3153 52.0409 26.3619C52.0537 33.4085 52.0288 34.2454 51.9067 37.0275C51.7945 39.6015 51.3677 40.9996 51.0091 41.9321C50.5339 43.165 49.9613 44.0441 49.0392 44.9712C48.1174 45.8985 47.2394 46.4696 46.007 46.9512C45.0777 47.314 43.68 47.7469 41.1093 47.8695C38.325 48.0004 37.4907 48.0279 30.4408 48.0433C23.3909 48.0587 22.5588 48.0301 19.7747 47.9095ZM41.2967 12.2901C41.2978 12.9167 41.4846 13.5289 41.8337 14.0494C42.1827 14.5698 42.6782 14.975 43.2576 15.2138C43.8369 15.4526 44.4741 15.5141 45.0885 15.3908C45.7028 15.2674 46.2668 14.9646 46.7091 14.5207C47.1513 14.0768 47.452 13.5117 47.5731 12.8969C47.6941 12.282 47.6302 11.6451 47.3892 11.0667C47.1483 10.4882 46.7412 9.99421 46.2194 9.64714C45.6977 9.30006 45.0848 9.11551 44.4581 9.11681C43.6182 9.11856 42.8133 9.45383 42.2204 10.0489C41.6276 10.644 41.2953 11.4501 41.2967 12.2901ZM16.8447 26.4264C16.8595 33.9134 22.9401 39.9689 30.4254 39.9548C37.9111 39.9405 43.9708 33.8606 43.9568 26.3736C43.9425 18.8865 37.8605 12.8293 30.3739 12.844C22.8873 12.8588 16.8306 18.9402 16.8447 26.4264ZM21.6 26.4169C21.5966 24.6764 22.1094 22.9741 23.0735 21.525C24.0375 20.076 25.4097 18.9453 27.0163 18.2761C28.623 17.6069 30.392 17.4291 32.0997 17.7653C33.8074 18.1014 35.3771 18.9364 36.6103 20.1647C37.8434 21.3929 38.6846 22.9592 39.0276 24.6656C39.3705 26.3719 39.1998 28.1416 38.5369 29.7509C37.8741 31.3602 36.7489 32.7368 35.3037 33.7067C33.8585 34.6765 32.1582 35.196 30.4177 35.1995C29.262 35.2019 28.1171 34.9767 27.0485 34.5366C25.9799 34.0965 25.0084 33.4502 24.1896 32.6347C23.3708 31.8191 22.7207 30.8502 22.2763 29.7834C21.832 28.7165 21.6022 27.5726 21.6 26.4169Z" fill="currentColor"/>
</svg>
