<svg width="52" height="52" viewBox="0 0 52 52" fill="none" xmlns="http://www.w3.org/2000/svg">
<path d="M8.98883 0C5.98224 0 4 2.05344 4 4.76692C4 7.40705 5.90776 9.53154 8.84102 9.53154C11.9943 9.53154 13.9742 7.40705 13.9009 4.76692C13.9009 2.05344 11.9954 0 8.98883 0ZM37.1458 12.614C32.0859 12.614 29.0072 15.5463 27.7605 17.5998H27.615L27.1739 13.274H19.0352C19.1086 16.0608 19.2541 19.2877 19.2541 23.1012V44H28.6394V26.3257C28.6394 25.4457 28.7127 24.5668 28.9327 23.9068C29.666 22.1467 31.2071 20.3121 33.7737 20.3121C37.2203 20.3121 38.5402 23.0267 38.5402 26.9869V44H48V25.888C48 16.7942 43.3056 12.614 37.1458 12.614ZM4.22229 13.274V44H13.6076V13.274H4.22229Z" fill="currentColor"/>
</svg>