<svg width="20" height="21" fill="none" xmlns="http://www.w3.org/2000/svg"><path d="M14.495 6.948l-.008-.003a.031.031 0 01-.012-.007.057.057 0 01-.014-.048l.403-2.468 1.893 1.893-1.968.838a.043.043 0 01-.018.003h-.007a.895.895 0 00-.269-.208zm2.745-.15l2.024 2.024c.42.42.631.63.708.874a.98.98 0 01.028.109l-4.837-2.049a.431.431 0 00-.008-.003c-.02-.007-.042-.016-.042-.036 0-.02.023-.03.043-.037l.006-.003 2.078-.88zm2.678 3.657c-.105.196-.309.4-.653.745l-2.282 2.281-2.952-.614-.015-.004c-.026-.004-.054-.008-.054-.032a.89.89 0 00-.342-.623c-.012-.012-.009-.03-.005-.048v-.007l.556-3.408.002-.012c.003-.026.008-.056.031-.056a.903.903 0 00.606-.347c.005-.005.008-.011.014-.014.017-.008.037 0 .054.007l5.04 2.132zm-3.46 3.55l-3.752 3.753.642-3.947.001-.006.003-.015c.005-.012.019-.017.032-.023l.006-.002a.966.966 0 00.363-.27c.013-.015.028-.029.047-.032h.015l2.643.544v-.001zm-4.547 4.548l-.422.422-4.677-6.758a.205.205 0 00-.005-.007c-.007-.01-.015-.02-.013-.031 0-.008.005-.016.011-.022l.005-.007c.014-.02.026-.042.04-.064l.01-.018.001-.002c.008-.013.015-.025.027-.031.011-.005.026-.003.038 0l5.18 1.068a.085.085 0 01.04.017c.007.007.009.014.01.022a.918.918 0 00.537.614c.015.007.008.023.002.04a.125.125 0 00-.008.024l-.776 4.733zm-.883.883c-.312.308-.496.472-.704.537a1.044 1.044 0 01-.63 0c-.243-.077-.453-.287-.873-.708L4.125 14.57l1.226-1.902a.078.078 0 01.021-.024c.013-.01.032-.006.048 0 .281.084.584.07.855-.044.014-.005.028-.009.04.001a.1.1 0 01.014.017l4.699 6.819zm-7.356-5.32L2.595 13.04l2.127-.907a.044.044 0 01.017-.004c.018 0 .029.018.038.034.021.033.044.065.068.096l.007.009c.006.008.002.017-.005.026l-1.175 1.824zm-1.554-1.553L.755 11.2c-.232-.232-.4-.4-.517-.545l4.144.86a.28.28 0 00.016.002c.025.004.054.01.054.033 0 .026-.031.038-.057.048l-.012.005-2.265.96zM0 9.954c.005-.087.02-.174.047-.258.077-.243.287-.453.708-.874L2.5 7.078c.803 1.165 1.608 2.329 2.416 3.491.014.02.03.04.013.056a1.451 1.451 0 00-.206.275.083.083 0 01-.026.033c-.007.004-.014.002-.022.001h-.001L0 9.954zm2.966-3.343L5.31 4.266c.22.096 1.024.435 1.74.738.544.23 1.039.439 1.194.507.016.006.03.012.037.028.004.01.002.021 0 .031a1.046 1.046 0 00.273.955c.015.015 0 .038-.014.057l-.007.011-2.381 3.688a.071.071 0 01-.023.026c-.012.008-.03.005-.045 0a1.186 1.186 0 00-.283-.038c-.086 0-.179.016-.273.033-.01.002-.02.004-.028-.002a.109.109 0 01-.024-.027L2.966 6.61zm2.819-2.819L8.82.756c.42-.42.63-.63.874-.707.205-.065.425-.065.63 0 .243.076.453.287.874.707l.658.658-2.16 3.344a.081.081 0 01-.021.025c-.013.01-.031.005-.047 0a1.095 1.095 0 00-1.003.193c-.014.015-.035.007-.052-.001-.282-.123-2.475-1.05-2.79-1.183zm6.53-1.92l1.994 1.994-.48 2.976v.007a.075.075 0 01-.005.02c-.005.01-.015.013-.026.016a.956.956 0 00-.317.164.06.06 0 01-.023-.003L10.42 5.755l-.006-.003c-.019-.007-.042-.017-.042-.037a1.149 1.149 0 00-.162-.478c-.014-.024-.03-.049-.018-.073l2.123-3.291zm-2.053 4.494l2.848 1.207c.016.007.033.014.04.03.002.01.002.02 0 .03a.712.712 0 00-.016.137v.08c0 .02-.02.028-.04.036l-.005.002c-.451.193-6.334 2.701-6.343 2.701-.009 0-.018 0-.027-.009-.016-.015 0-.037.014-.057a.346.346 0 00.007-.01l2.34-3.624.005-.007c.013-.022.03-.046.054-.046l.024.004c.053.007.1.014.147.014.356 0 .685-.173.883-.469a.086.086 0 01.018-.02c.014-.011.035-.006.05.001zM7 11.163l6.413-2.735s.01 0 .018.009a.86.86 0 00.094.08l.014.01c.013.007.026.015.027.028l-.001.013-.55 3.375-.002.013c-.003.027-.007.056-.032.056a.901.901 0 00-.717.442l-.002.005c-.008.012-.014.023-.026.03-.011.005-.025.003-.037 0l-5.114-1.055c-.005 0-.079-.27-.085-.271z" fill="url(#a)"/><defs><radialGradient id="a" cx="0" cy="0" r="1" gradientUnits="userSpaceOnUse" gradientTransform="matrix(20.022 0 0 20.044 10 0)"><stop stop-color="#20C6B7"/><stop offset="1" stop-color="#4D9ABF"/></radialGradient></defs></svg>