<svg width="352" height="201" fill="none" xmlns="http://www.w3.org/2000/svg"><path d="M339.165 182.726c20.762.919 10.57-38.591 5.507-48.693-11.333-22.617-32.249-32.104-55.071-21.254 6.601-35.71-19.054-74.772-46.397-95.642-35.884-27.39-99.296-24.03-113.232 25.288-4.672 16.534-6.395 42.215-2.612 59.016-16.735-10.85-37.245-16.063-55.86-4.57-18.072 11.158-30.55 33.115-24.872 54.273-10.45-12.652-15.538 21.87-17.826 27.233C23.073 191.809 9.737 191.881 0 200.309c16.355 2.428 41.38-6.852 85.98-7.654 7.263.352 14.3.524 20.445.239 21.708-1.009 47.625 0 69.414 0 43.151 0 75.745-5.561 118.896-3.494 18.374.88 36.559-1.504 54.59-1.2-2.666-2.95-5.93-4.173-10.16-5.474zm-290.423 7.822c2.34.06 4.834.168 7.421.302l-7.421-.302z" fill="#F2F2F2"/><path d="M287.238 109.656c.809 3.939.504 1.822.163-.132a42.118 42.118 0 002.979-2.623c2.995-34.044-21.329-70.033-47.178-89.764-35.885-27.39-99.296-24.03-113.233 25.288-4.672 16.534-6.394 42.215-2.612 59.016-16.735-10.85-37.245-16.063-55.86-4.57-18.07 11.158-30.55 33.115-24.872 54.273-10.449-12.652-15.538 21.87-17.825 27.233-5.192 12.171-16.622 13.393-25.967 19.781 10.684-2.3 20.328-7.101 27.352-16.429 11.938-15.855 15.54-27.067 36.997-18.969 3.831-18.851-4.329-39.482 19.05-50.691 17.644-8.46 38.857-4.523 48.111 13.112-11.529 3.199-26.765 11.279-21.128 26.318 10.872-11.728 27.233-18.257 42.6-21.901 12.024-2.852 25.467 1.648 35.906-1.031-10.829-31.552-31.412-67.71 9.726-89.293 31.943-16.759 67.79 20.227 78.239 46.819 3.047 7.736 5.875 15.379 7.552 23.563z" fill="#FFFEF1"/></svg>