<svg width="1112" height="307" fill="none" xmlns="http://www.w3.org/2000/svg"><path d="M957.066 183.438c-54.13-8.389-92.163-19.602-144.753-2.728-34.897-69.282-97.132-45.982-149.339-8.829-4.432-55.229-52.415-62.078-95.757-50.757 2.56-61.455-63.936-108.138-115.048-62.153-13.909-30.375-27.295-56.79-65.106-56.873-31.775-.071-59.053 13.878-77.423 39.83C292.405 18.5 264.196-1.087 233.803.048c-30.152 1.128-71.622 33.783-69.986 65.733-30.378-18.324-64.026-13.802-92.191 7.562-18.6 14.106-41.91 51.53-38.23 79.531-36.927 12.875-48.903 87.415-6.498 104.328 22.258 8.879 43.317 1.107 64.938-5.023 15.803-4.482 12.083-11.095 21.324 2.854 3.992 6.022 1.955 18.427 7.246 26.622 35.993 55.705 114.912 6.183 151.366-21.256 28.624-21.542 28.463-29.626 54.301-2.713 17.483 18.209 39.623 36.131 63.954 43.195 66.081 19.183 88.536-24.961 127.389-63.782 17.249 31.274 59.536 46.529 93.688 44.13 18.151-1.274 34.198-6.251 50.953-12.831 12.768-5.016 33.064-21.145 45.369-22.513 13.122-1.457 29 13.516 40.561 18.363 16.709 7.007 36.361 10.53 54.377 10.591 25.981.086 86.115-9.126 86.527-44.517 68.125 13.204 158.749-6.208 222.469-33.876-47.27-14.565-104.46-5.288-154.294-13.007z" fill="#F2F2F2"/><path d="M311.261 39.766c-.541.723-1.096 1.418-1.622 2.16C294.781 21.728 271.764 4.421 246.233.748c32.125 18.173 56.299 53.453 59.883 87.118 5.728-14.63 4.332-32.71 5.145-48.1zM153.672 113.541c11.217-13.398 10.458-31.234 7.476-49.24-23.361-12.996-48.469-12.767-71.447-1.947 29.436 2.793 55.887 21.295 63.971 51.187zM957.066 183.438c-54.13-8.389-92.163-19.602-144.753-2.728-34.896-69.282-97.132-45.981-149.339-8.829-4.432-55.229-52.414-62.078-95.757-50.757 2.062-49.461-40.614-89.313-83.996-79.023 19.631 4.389 38.434 17.446 46.568 35.816 9.252 20.891 1.744 46.873 2.993 69.507 19.323-11.41 43.644-11.625 58.487 5.993 15.993 18.983 4.146 36.594 7.436 58.022 11.26-5.704 17.576-19.992 13.326-31.463 34.023-2.947 47.356 32.093 65.296 49.092 6.438-7.966 3.516-16.852-4.085-22.781 29.312-24.682 72.418-17.142 103.094-.906-17.662-5.603-36.297 1.06-41.313 19.165 54.259 9.749 97.247-18.051 148.952-25.083 28.75-3.91 56.493 4.787 84.591 6.251 28.638 1.493 55.894.548 84.304-2.202 15.61-1.511 29.96-4.64 45.47-7.429 2.86-.515 5.82-.727 8.83-.791-46.45-12.817-101.72-4.361-150.104-11.854zM452.164 58.967c-13.909-30.375-27.295-56.79-65.106-56.872-12.03-.025-23.415 1.966-33.916 5.85 22.473 3.928 38.824 16.437 54.148 34.234 16.24 18.868 13.275 36.666 22.709 56.346 17.579-9.348 22.394-25.974 26.053-42.805-1.303 1.038-2.602 2.094-3.888 3.247z" fill="#FFFEF1"/></svg>