<svg width="27" height="28" fill="none" xmlns="http://www.w3.org/2000/svg"><path fill-rule="evenodd" clip-rule="evenodd" d="M9.55 1.737A1.317 1.317 0 0110.836.706h5.268a1.317 1.317 0 011.286 1.031l.579 2.61c.527.25 1.029.54 1.502.869l2.552-.804a1.317 1.317 0 011.536.598l2.634 4.562a1.317 1.317 0 01-.25 1.63L23.97 13.01a10.67 10.67 0 010 1.733l1.971 1.809a1.317 1.317 0 01.25 1.629l-2.633 4.562a1.317 1.317 0 01-1.536.598l-2.551-.803c-.474.329-.976.619-1.502.869l-.58 2.608a1.317 1.317 0 01-1.286 1.032h-5.268a1.317 1.317 0 01-1.286-1.031l-.58-2.61c-.526-.25-1.028-.54-1.5-.868l-2.553.803a1.318 1.318 0 01-1.536-.598L.747 18.18a1.317 1.317 0 01.25-1.63l1.972-1.808a10.663 10.663 0 010-1.733L.997 11.203a1.317 1.317 0 01-.25-1.63l2.634-4.562a1.317 1.317 0 011.536-.598l2.551.804c.474-.33.976-.62 1.502-.87l.58-2.607v-.003zm3.92 16.09a3.951 3.951 0 100-7.902 3.951 3.951 0 000 7.903z" fill="#A2A2A2"/></svg>