<svg width="90" height="90" fill="none" xmlns="http://www.w3.org/2000/svg"><path d="M61.5 10.5H6c-1.8 0-3 1.2-3 3v75c0 .9.6 1.5 1.5 1.5H63c.9 0 1.5-.6 1.5-1.5v-75c0-1.8-1.2-3-3-3zM6 13.5h55.5v15H6v-15zM61.5 87H6V31.5h55.5V87z" fill="#34BEED"/><path d="M31.5 19.5h-18v3h18v-3zM43.5 19.5H36v3h7.5v-3zM19.5 36H12v3h7.5v-3zM31.5 36H24v3h7.5v-3zM43.5 36H36v3h7.5v-3zM55.5 36H48v3h7.5v-3zM12 54h10.5c.9 0 1.5-.6 1.5-1.5V45c0-.9-.6-1.5-1.5-1.5H12c-.9 0-1.5.6-1.5 1.5v7.5c0 .9.6 1.5 1.5 1.5zm1.5-7.5H21V51h-7.5v-4.5zM39 43.5H28.5c-.9 0-1.5.6-1.5 1.5v7.5c0 .9.6 1.5 1.5 1.5H39c.9 0 1.5-.6 1.5-1.5V45c0-.9-.6-1.5-1.5-1.5zM37.5 51H30v-4.5h7.5V51zM43.5 52.5c0 .9.6 1.5 1.5 1.5h10.5c.9 0 1.5-.6 1.5-1.5V45c0-.9-.6-1.5-1.5-1.5H45c-.9 0-1.5.6-1.5 1.5v7.5zm3-6H54V51h-7.5v-4.5zM12 69h10.5c.9 0 1.5-.6 1.5-1.5V60c0-.9-.6-1.5-1.5-1.5H12c-.9 0-1.5.6-1.5 1.5v7.5c0 .9.6 1.5 1.5 1.5zm1.5-7.5H21V66h-7.5v-4.5zM39 58.5H28.5c-.9 0-1.5.6-1.5 1.5v7.5c0 .9.6 1.5 1.5 1.5H39c.9 0 1.5-.6 1.5-1.5V60c0-.9-.6-1.5-1.5-1.5zM37.5 66H30v-4.5h7.5V66zM55.5 58.5H45c-.9 0-1.5.6-1.5 1.5v7.5c0 .9.6 1.5 1.5 1.5h10.5c.9 0 1.5-.6 1.5-1.5V60c0-.9-.6-1.5-1.5-1.5zM54 66h-7.5v-4.5H54V66zM12 84h10.5c.9 0 1.5-.6 1.5-1.5V75c0-.9-.6-1.5-1.5-1.5H12c-.9 0-1.5.6-1.5 1.5v7.5c0 .9.6 1.5 1.5 1.5zm1.5-7.5H21V81h-7.5v-4.5zM39 73.5H28.5c-.9 0-1.5.6-1.5 1.5v7.5c0 .9.6 1.5 1.5 1.5H39c.9 0 1.5-.6 1.5-1.5V75c0-.9-.6-1.5-1.5-1.5zM37.5 81H30v-4.5h7.5V81zM55.5 73.5H45c-.9 0-1.5.6-1.5 1.5v7.5c0 .9.6 1.5 1.5 1.5h10.5c.9 0 1.5-.6 1.5-1.5V75c0-.9-.6-1.5-1.5-1.5zM54 81h-7.5v-4.5H54V81zM84 36v43.5h-3V15c0-.3-.15-.75-.3-.9L76.35 1.05C76.2.45 75.6 0 75 0c-.6 0-1.2.45-1.35 1.05L69.3 14.1c-.15.3-.3.6-.3.9v73.5c0 .9.6 1.5 1.5 1.5h9c.9 0 1.5-.6 1.5-1.5v-6h4.5c.9 0 1.5-.6 1.5-1.5V36h-3zM72 16.5h6v54h-6v-54zm3-10.2l2.4 7.2h-4.8L75 6.3zM78 87h-6V73.5h6V87z" fill="#34BEED"/></svg>