<svg width="90" height="64" fill="none" xmlns="http://www.w3.org/2000/svg"><path d="M0 0v63.826h90V0H0zm12.573 16.31H8.43c-.741 0-1.342-.6-1.342-1.34V7.414c0-.74.601-1.341 1.342-1.341h4.142c.741 0 1.342.6 1.342 1.341v7.554c0 .741-.6 1.342-1.341 1.342zM8.43 25.91h4.142c.741 0 1.342.6 1.342 1.342v7.554c0 .74-.6 1.341-1.342 1.341H8.43c-.741 0-1.342-.6-1.342-1.341V27.25c0-.741.601-1.342 1.342-1.342zm0 21.606h4.142c.741 0 1.342.6 1.342 1.341v7.555c0 .74-.6 1.341-1.342 1.341H8.43c-.741 0-1.342-.6-1.342-1.341v-7.555c0-.74.601-1.341 1.342-1.341zm26.547-3.147v-24.91a1.341 1.341 0 012.013-1.162l21.572 12.455a1.341 1.341 0 010 2.324L36.99 45.53a1.342 1.342 0 01-2.013-1.162zM81.57 16.311h-4.143c-.74 0-1.341-.6-1.341-1.342V7.415c0-.74.6-1.341 1.341-1.341h4.143c.74 0 1.341.6 1.341 1.341v7.554c0 .741-.6 1.342-1.341 1.342zm-4.143 9.598h4.143c.74 0 1.341.6 1.341 1.342v7.554c0 .74-.6 1.341-1.341 1.341h-4.143c-.74 0-1.341-.6-1.341-1.341V27.25c0-.741.6-1.342 1.341-1.342zm0 21.606h4.143c.74 0 1.341.6 1.341 1.341v7.555c0 .74-.6 1.341-1.341 1.341h-4.143c-.74 0-1.341-.6-1.341-1.341v-7.555c0-.74.6-1.341 1.341-1.341z" fill="#34BEED"/></svg>