<svg width="104" height="94" fill="none" xmlns="http://www.w3.org/2000/svg"><path d="M103.555 8.428c.049-2.936-1.014-5.643-2.994-7.623a2.75 2.75 0 10-3.889 3.89c.916.916 1.407 2.209 1.384 3.641-.023 1.367-.54 2.686-1.384 3.53-1.75 1.75-19.19 17.061-32.812 28.976l-3.339-3.339c9.944-11.377 22.285-25.446 27.111-30.788l1.099 1.098a2.75 2.75 0 103.889-3.888L89.5.805a2.75 2.75 0 00-3.89 0c-1.672 1.674-11.909 13.3-21.145 23.84-2.484-3.76-5.802-6.994-9.748-9.476C48.95 11.539 42.225 9.7 34.73 9.7c-1.648 0-3.28.104-4.847.31a2.75 2.75 0 00.713 5.453 31.978 31.978 0 014.134-.263c11.412 0 20.984 5.116 25.948 13.77-4.632 5.293-8.611 9.852-10.53 12.052-3.427.467-5.984 1.869-7.786 4.273-1.676 2.235-2.41 4.905-3.189 7.731-.937 3.409-1.907 6.933-4.672 9.698a2.75 2.75 0 001.944 4.694c7.401 0 13.267-1.577 17.435-4.688 3.756-2.804 5.995-6.784 6.525-11.564 7.085-6.189 37.615-32.87 40.156-35.411 1.856-1.856 2.947-4.526 2.994-7.327zM59.71 44.47l-2.398 2.094-2.51-2.51c.671-.77 1.37-1.572 2.093-2.399l2.815 2.815zm-9.12 13.852c-2.163 1.615-5.042 2.691-8.595 3.218 1.21-2.43 1.888-4.896 2.482-7.054 1.274-4.633 2.05-6.957 5.191-7.787l5.078 5.078c-.56 2.703-1.95 4.899-4.156 6.545zM21.296 18.11c.4 0 .807-.088 1.192-.273.247-.12.5-.236.753-.348a2.75 2.75 0 10-2.22-5.032c-.31.137-.62.28-.922.425a2.75 2.75 0 001.197 5.228z" fill="#34BEED"/><path d="M41.169 70.474a2.752 2.752 0 00-2.781 2.72C38.269 83.764 36.673 88.48 27.53 88.48c-5.125 0-10.504-3.749-14.758-10.286C8.082 70.986 5.5 61.627 5.5 51.84c0-12.704 3.836-23.274 10.802-29.764a2.75 2.75 0 00-3.749-4.024c-4.103 3.822-7.278 8.79-9.436 14.762C1.049 38.54 0 44.94 0 51.841 0 62.68 2.899 73.103 8.162 81.194 13.45 89.321 20.51 93.982 27.53 93.982c6.716 0 11.396-2.364 13.912-7.024 2.16-4.002 2.394-9.171 2.445-13.703a2.75 2.75 0 00-2.718-2.78zM54.701 29.748c0-5.052-4.11-9.162-9.162-9.162-5.052 0-9.162 4.11-9.162 9.162 0 5.052 4.11 9.162 9.162 9.162 5.052 0 9.162-4.11 9.162-9.162zm-12.824 0a3.666 3.666 0 013.662-3.662 3.666 3.666 0 013.662 3.662 3.666 3.666 0 01-3.662 3.662 3.666 3.666 0 01-3.662-3.662z" fill="#34BEED"/><path d="M23.704 42.203c5.052 0 9.162-4.11 9.162-9.162 0-5.052-4.11-9.162-9.162-9.162-5.052 0-9.162 4.11-9.162 9.162 0 5.052 4.11 9.162 9.162 9.162zm0-12.824a3.666 3.666 0 013.662 3.662 3.666 3.666 0 01-3.662 3.662 3.666 3.666 0 01-3.662-3.662 3.666 3.666 0 013.662-3.662zM25.848 54.091c0-5.052-4.11-9.162-9.162-9.162-5.052 0-9.162 4.11-9.162 9.162 0 5.052 4.11 9.162 9.162 9.162 5.052 0 9.162-4.11 9.162-9.162zm-9.162 3.662a3.666 3.666 0 01-3.662-3.662 3.666 3.666 0 013.662-3.662 3.666 3.666 0 013.662 3.662 3.666 3.666 0 01-3.662 3.662zM26.312 84.69c5.052 0 9.162-4.11 9.162-9.162 0-5.052-4.11-9.162-9.162-9.162-5.052 0-9.162 4.11-9.162 9.162 0 5.052 4.11 9.162 9.162 9.162zm0-12.824a3.666 3.666 0 013.662 3.662 3.666 3.666 0 01-3.662 3.662 3.666 3.666 0 01-3.662-3.662 3.666 3.666 0 013.662-3.662z" fill="#34BEED"/></svg>