<svg width="134" height="51" fill="none" xmlns="http://www.w3.org/2000/svg"><g filter="url(#a)"><g opacity=".5"><path opacity=".01" d="M66.932 46.706c35.574 0 64.413-4.294 64.413-9.591s-28.839-9.591-64.413-9.591c-35.575 0-64.414 4.294-64.414 9.59 0 5.298 28.839 9.592 64.414 9.592z" fill="#FDFDFD"/><path opacity=".014" d="M66.932 46.694c35.551 0 64.371-4.287 64.371-9.574 0-5.288-28.82-9.575-64.371-9.575-35.552 0-64.372 4.287-64.372 9.575 0 5.288 28.82 9.574 64.372 9.574z" fill="#FCFCFC"/><path opacity=".021" d="M66.932 46.682c35.527 0 64.328-4.279 64.328-9.558 0-5.278-28.801-9.558-64.328-9.558-35.528 0-64.33 4.28-64.33 9.558 0 5.28 28.802 9.558 64.33 9.558z" fill="#FAFAFA"/><path opacity=".028" d="M66.932 46.67c35.504 0 64.286-4.271 64.286-9.54 0-5.27-28.782-9.542-64.286-9.542-35.505 0-64.287 4.272-64.287 9.541 0 5.27 28.782 9.541 64.287 9.541z" fill="#F9F9F9"/><path opacity=".035" d="M66.932 46.659c35.48 0 64.243-4.265 64.243-9.525 0-5.26-28.763-9.525-64.243-9.525-35.481 0-64.244 4.265-64.244 9.525 0 5.26 28.763 9.525 64.244 9.525z" fill="#F7F7F7"/><path opacity=".041" d="M66.932 46.647c35.457 0 64.201-4.257 64.201-9.508 0-5.251-28.744-9.508-64.201-9.508-35.458 0-64.202 4.257-64.202 9.508 0 5.25 28.744 9.508 64.202 9.508z" fill="#F6F6F6"/><path opacity=".048" d="M66.932 46.635c35.433 0 64.158-4.25 64.158-9.492 0-5.242-28.725-9.491-64.158-9.491-35.434 0-64.159 4.25-64.159 9.491 0 5.242 28.725 9.492 64.159 9.492z" fill="#F4F4F4"/><path opacity=".055" d="M66.932 46.623c35.41 0 64.116-4.242 64.116-9.475s-28.706-9.475-64.116-9.475-64.116 4.242-64.116 9.475 28.705 9.475 64.116 9.475z" fill="#F3F3F3"/><path opacity=".062" d="M66.932 46.61c35.386 0 64.073-4.234 64.073-9.457 0-5.224-28.687-9.458-64.073-9.458-35.387 0-64.074 4.234-64.074 9.458 0 5.223 28.687 9.458 64.074 9.458z" fill="#F1F1F1"/><path opacity=".069" d="M66.932 46.599c35.363 0 64.031-4.227 64.031-9.441 0-5.215-28.668-9.442-64.031-9.442-35.364 0-64.031 4.227-64.031 9.442 0 5.214 28.667 9.441 64.03 9.441z" fill="#F0F0F0"/><path opacity=".076" d="M66.932 46.587c35.339 0 63.988-4.22 63.988-9.425 0-5.205-28.649-9.425-63.988-9.425-35.34 0-63.989 4.22-63.989 9.425 0 5.205 28.649 9.425 63.989 9.425z" fill="#EEE"/><path opacity=".083" d="M66.932 46.575c35.316 0 63.946-4.212 63.946-9.408s-28.63-9.408-63.946-9.408c-35.317 0-63.946 4.212-63.946 9.408s28.63 9.408 63.946 9.408z" fill="#EDEDED"/><path opacity=".09" d="M66.932 46.563c35.292 0 63.903-4.205 63.903-9.391 0-5.187-28.611-9.392-63.903-9.392-35.293 0-63.904 4.205-63.904 9.392 0 5.186 28.61 9.391 63.904 9.391z" fill="#EBEBEB"/><path opacity=".097" d="M66.932 46.551c35.269 0 63.86-4.197 63.86-9.375 0-5.177-28.591-9.375-63.86-9.375-35.27 0-63.861 4.198-63.861 9.375 0 5.178 28.591 9.375 63.86 9.375z" fill="#EAEAEA"/><path opacity=".103" d="M66.932 46.54c35.245 0 63.818-4.19 63.818-9.359 0-5.168-28.573-9.358-63.818-9.358-35.246 0-63.819 4.19-63.819 9.358 0 5.169 28.573 9.358 63.819 9.358z" fill="#E8E8E8"/><path opacity=".11" d="M66.932 46.527c35.222 0 63.775-4.182 63.775-9.341 0-5.16-28.553-9.341-63.775-9.341-35.223 0-63.776 4.182-63.776 9.34 0 5.16 28.553 9.342 63.776 9.342z" fill="#E7E7E7"/><path opacity=".117" d="M66.932 46.515c35.198 0 63.733-4.175 63.733-9.325 0-5.15-28.535-9.324-63.733-9.324-35.2 0-63.734 4.175-63.734 9.325 0 5.15 28.535 9.324 63.734 9.324z" fill="#E5E5E5"/><path opacity=".124" d="M66.932 46.504c35.175 0 63.69-4.168 63.69-9.309 0-5.14-28.515-9.308-63.69-9.308-35.176 0-63.691 4.168-63.691 9.308 0 5.141 28.515 9.309 63.69 9.309z" fill="#E4E4E4"/><path opacity=".131" d="M66.932 46.491c35.151 0 63.648-4.16 63.648-9.291 0-5.132-28.497-9.292-63.648-9.292-35.152 0-63.648 4.16-63.648 9.292 0 5.131 28.496 9.291 63.648 9.291z" fill="#E2E2E2"/><path opacity=".138" d="M66.932 46.48c35.128 0 63.605-4.153 63.605-9.275 0-5.123-28.477-9.275-63.605-9.275-35.129 0-63.606 4.152-63.606 9.275 0 5.122 28.477 9.275 63.606 9.275z" fill="#E1E1E1"/><path opacity=".145" d="M66.932 46.468c35.104 0 63.563-4.145 63.563-9.259 0-5.113-28.459-9.258-63.563-9.258-35.105 0-63.563 4.145-63.563 9.258 0 5.114 28.458 9.259 63.563 9.259z" fill="#DFDFDF"/><path opacity=".152" d="M66.932 46.456c35.081 0 63.52-4.138 63.52-9.242 0-5.104-28.439-9.241-63.52-9.241-35.082 0-63.52 4.137-63.52 9.241s28.438 9.242 63.52 9.242z" fill="#DEDEDE"/><path opacity=".159" d="M66.932 46.444c35.057 0 63.477-4.13 63.477-9.225s-28.42-9.225-63.477-9.225c-35.058 0-63.478 4.13-63.478 9.225s28.42 9.225 63.478 9.225z" fill="#DCDCDC"/><path opacity=".166" d="M66.932 46.432c35.034 0 63.435-4.123 63.435-9.208 0-5.086-28.401-9.209-63.435-9.209-35.035 0-63.436 4.123-63.436 9.209 0 5.085 28.401 9.208 63.436 9.208z" fill="#DBDBDB"/><path opacity=".172" d="M66.932 46.42c35.01 0 63.392-4.115 63.392-9.192 0-5.076-28.382-9.191-63.392-9.191-35.011 0-63.393 4.115-63.393 9.191 0 5.077 28.382 9.192 63.393 9.192z" fill="#D9D9D9"/><path opacity=".179" d="M66.932 46.408c34.987 0 63.35-4.108 63.35-9.175 0-5.067-28.363-9.175-63.35-9.175-34.988 0-63.35 4.108-63.35 9.175 0 5.067 28.362 9.175 63.35 9.175z" fill="#D8D8D8"/><path opacity=".186" d="M66.932 46.396c34.964 0 63.307-4.1 63.307-9.158s-28.343-9.159-63.307-9.159-63.308 4.1-63.308 9.159c0 5.058 28.344 9.158 63.308 9.158z" fill="#D6D6D6"/><path opacity=".193" d="M66.932 46.384c34.94 0 63.265-4.093 63.265-9.141 0-5.05-28.325-9.142-63.265-9.142S3.666 32.194 3.666 37.243c0 5.048 28.325 9.141 63.266 9.141z" fill="#D5D5D5"/><path opacity=".2" d="M66.932 46.372c34.917 0 63.222-4.085 63.222-9.125s-28.305-9.125-63.222-9.125-63.223 4.086-63.223 9.125c0 5.04 28.306 9.125 63.223 9.125z" fill="#D3D3D3"/><path opacity=".207" d="M66.932 46.36c34.893 0 63.18-4.078 63.18-9.108s-28.287-9.108-63.18-9.108c-34.894 0-63.18 4.078-63.18 9.108s28.286 9.108 63.18 9.108z" fill="#D1D1D1"/><path opacity=".214" d="M66.932 46.348c34.87 0 63.137-4.07 63.137-9.091 0-5.022-28.267-9.092-63.137-9.092-34.87 0-63.138 4.07-63.138 9.092 0 5.02 28.268 9.091 63.138 9.091z" fill="#D0D0D0"/><path opacity=".221" d="M66.932 46.336c34.846 0 63.095-4.063 63.095-9.075s-28.249-9.075-63.095-9.075c-34.847 0-63.095 4.063-63.095 9.075s28.248 9.075 63.095 9.075z" fill="#CECECE"/><path opacity=".228" d="M66.932 46.325c34.823 0 63.052-4.056 63.052-9.059 0-5.003-28.229-9.058-63.052-9.058S3.879 32.263 3.879 37.266s28.23 9.059 63.053 9.059z" fill="#CDCDCD"/><path opacity=".234" d="M66.932 46.313c34.799 0 63.01-4.049 63.01-9.042 0-4.994-28.211-9.042-63.01-9.042-34.8 0-63.01 4.048-63.01 9.042 0 4.993 28.21 9.041 63.01 9.041z" fill="#CBCBCB"/><path opacity=".241" d="M66.932 46.3c34.776 0 62.967-4.04 62.967-9.024 0-4.985-28.191-9.026-62.967-9.026-34.776 0-62.968 4.041-62.968 9.026 0 4.984 28.192 9.025 62.968 9.025z" fill="#CACACA"/><path opacity=".248" d="M66.932 46.289c34.752 0 62.924-4.034 62.924-9.009 0-4.975-28.172-9.008-62.924-9.008-34.753 0-62.925 4.033-62.925 9.008 0 4.975 28.172 9.009 62.925 9.009z" fill="#C8C8C8"/><path opacity=".255" d="M66.932 46.277c34.729 0 62.882-4.026 62.882-8.992 0-4.966-28.153-8.992-62.882-8.992-34.73 0-62.883 4.026-62.883 8.992 0 4.966 28.154 8.992 62.883 8.992z" fill="#C7C7C7"/><path opacity=".262" d="M66.932 46.265c34.705 0 62.839-4.018 62.839-8.975s-28.134-8.975-62.84-8.975c-34.705 0-62.84 4.018-62.84 8.975s28.135 8.975 62.84 8.975z" fill="#C5C5C5"/><path opacity=".269" d="M66.932 46.253c34.682 0 62.797-4.01 62.797-8.959 0-4.947-28.115-8.958-62.797-8.958s-62.798 4.01-62.798 8.959c0 4.947 28.116 8.958 62.798 8.958z" fill="#C4C4C4"/><path opacity=".276" d="M66.932 46.241c34.658 0 62.754-4.003 62.754-8.942 0-4.938-28.096-8.942-62.754-8.942-34.659 0-62.755 4.004-62.755 8.942 0 4.939 28.096 8.942 62.755 8.942z" fill="#C2C2C2"/><path opacity=".283" d="M66.932 46.229c34.635 0 62.712-3.996 62.712-8.925 0-4.93-28.077-8.925-62.712-8.925-34.635 0-62.713 3.996-62.713 8.925 0 4.93 28.078 8.925 62.713 8.925z" fill="#C1C1C1"/><path opacity=".29" d="M66.932 46.217c34.611 0 62.669-3.989 62.669-8.908 0-4.92-28.058-8.909-62.67-8.909-34.61 0-62.669 3.989-62.669 8.909 0 4.92 28.058 8.908 62.67 8.908z" fill="#BFBFBF"/><path opacity=".297" d="M66.932 46.205c34.588 0 62.627-3.981 62.627-8.892 0-4.91-28.039-8.892-62.627-8.892S4.304 32.402 4.304 37.313s28.04 8.892 62.628 8.892z" fill="#BEBEBE"/><path opacity=".303" d="M66.932 46.193c34.564 0 62.584-3.973 62.584-8.875s-28.02-8.875-62.584-8.875c-34.565 0-62.585 3.973-62.585 8.875s28.02 8.875 62.585 8.875z" fill="#BCBCBC"/><path opacity=".31" d="M66.932 46.181c34.541 0 62.542-3.966 62.542-8.858 0-4.893-28.001-8.859-62.542-8.859S4.39 32.43 4.39 37.323c0 4.892 28 8.858 62.542 8.858z" fill="#BBB"/><path opacity=".317" d="M66.932 46.17c34.517 0 62.499-3.96 62.499-8.843s-27.982-8.841-62.5-8.841c-34.517 0-62.499 3.958-62.499 8.841 0 4.884 27.982 8.842 62.5 8.842z" fill="#B9B9B9"/><path opacity=".324" d="M66.932 46.157c34.494 0 62.457-3.95 62.457-8.825 0-4.874-27.963-8.825-62.457-8.825S4.475 32.458 4.475 37.332c0 4.874 27.963 8.825 62.457 8.825z" fill="#B8B8B8"/><path opacity=".331" d="M66.932 46.145c34.47 0 62.414-3.943 62.414-8.808s-27.944-8.809-62.414-8.809-62.415 3.944-62.415 8.809c0 4.865 27.944 8.808 62.415 8.808z" fill="#B6B6B6"/><path opacity=".338" d="M66.932 46.133c34.447 0 62.371-3.936 62.371-8.791 0-4.856-27.924-8.792-62.371-8.792S4.56 32.486 4.56 37.342c0 4.855 27.925 8.791 62.372 8.791z" fill="#B5B5B5"/><path opacity=".345" d="M66.932 46.122c34.423 0 62.329-3.93 62.329-8.776s-27.906-8.775-62.33-8.775c-34.423 0-62.329 3.929-62.329 8.775 0 4.847 27.906 8.776 62.33 8.776z" fill="#B3B3B3"/><path opacity=".352" d="M66.932 46.11c34.4 0 62.286-3.922 62.286-8.759s-27.886-8.758-62.286-8.758c-34.4 0-62.287 3.92-62.287 8.758 0 4.837 27.887 8.759 62.287 8.759z" fill="#B2B2B2"/><path opacity=".359" d="M66.932 46.098c34.376 0 62.244-3.914 62.244-8.742 0-4.828-27.868-8.742-62.244-8.742-34.377 0-62.245 3.914-62.245 8.742 0 4.828 27.868 8.742 62.245 8.742z" fill="#B0B0B0"/><path opacity=".365" d="M66.932 46.086c34.353 0 62.201-3.907 62.201-8.725 0-4.82-27.848-8.726-62.201-8.726S4.73 32.542 4.73 37.361c0 4.818 27.849 8.725 62.202 8.725z" fill="#AFAFAF"/><path opacity=".372" d="M66.932 46.074c34.329 0 62.159-3.9 62.159-8.709 0-4.81-27.83-8.708-62.16-8.708-34.329 0-62.159 3.899-62.159 8.708 0 4.81 27.83 8.709 62.16 8.709z" fill="#34BEED"/><path opacity=".379" d="M66.932 46.062c34.306 0 62.116-3.892 62.116-8.692 0-4.8-27.81-8.692-62.116-8.692S4.815 32.569 4.815 37.37c0 4.8 27.81 8.692 62.117 8.692z" fill="#ACACAC"/><path opacity=".386" d="M66.932 46.05c34.282 0 62.074-3.884 62.074-8.675 0-4.792-27.792-8.676-62.074-8.676-34.283 0-62.074 3.884-62.074 8.676 0 4.79 27.791 8.675 62.074 8.675z" fill="#AAA"/><path opacity=".393" d="M66.932 46.038c34.259 0 62.031-3.877 62.031-8.659 0-4.782-27.772-8.658-62.031-8.658-34.26 0-62.032 3.876-62.032 8.658s27.773 8.66 62.032 8.66z" fill="#A9A9A9"/><path opacity=".4" d="M66.932 46.026c34.235 0 61.989-3.869 61.989-8.642s-27.754-8.642-61.99-8.642c-34.235 0-61.988 3.87-61.988 8.642 0 4.773 27.753 8.642 61.989 8.642z" fill="#A7A7A7"/><path opacity=".407" d="M66.932 46.014c34.212 0 61.946-3.861 61.946-8.625 0-4.764-27.734-8.626-61.946-8.626-34.212 0-61.947 3.862-61.947 8.626 0 4.764 27.735 8.625 61.947 8.625z" fill="#A5A5A5"/><path opacity=".414" d="M66.932 46.002c34.188 0 61.904-3.854 61.904-8.608 0-4.755-27.716-8.61-61.904-8.61-34.189 0-61.904 3.855-61.904 8.61 0 4.754 27.715 8.608 61.904 8.608z" fill="#A4A4A4"/><path opacity=".421" d="M66.932 45.99c34.165 0 61.861-3.846 61.861-8.592 0-4.745-27.696-8.592-61.861-8.592-34.166 0-61.862 3.847-61.862 8.592 0 4.746 27.697 8.592 61.862 8.592z" fill="#A2A2A2"/><path opacity=".428" d="M66.932 45.978c34.141 0 61.818-3.839 61.818-8.575 0-4.736-27.677-8.575-61.818-8.575-34.142 0-61.82 3.839-61.82 8.575 0 4.736 27.678 8.575 61.82 8.575z" fill="#A1A1A1"/><path opacity=".434" d="M66.932 45.967c34.118 0 61.776-3.832 61.776-8.56 0-4.726-27.658-8.558-61.776-8.558S5.155 32.681 5.155 37.408c0 4.727 27.659 8.559 61.777 8.559z" fill="#9F9F9F"/><path opacity=".441" d="M66.932 45.955c34.094 0 61.733-3.825 61.733-8.542 0-4.718-27.639-8.543-61.733-8.543-34.095 0-61.734 3.825-61.734 8.543 0 4.717 27.639 8.542 61.734 8.542z" fill="#9E9E9E"/><path opacity=".448" d="M66.932 45.943c34.071 0 61.691-3.817 61.691-8.526 0-4.708-27.62-8.525-61.691-8.525-34.072 0-61.692 3.817-61.692 8.525 0 4.709 27.62 8.526 61.692 8.526z" fill="#9C9C9C"/><path opacity=".455" d="M66.932 45.93c34.047 0 61.648-3.809 61.648-8.508 0-4.7-27.601-8.509-61.648-8.509-34.048 0-61.65 3.81-61.65 8.509 0 4.7 27.602 8.509 61.65 8.509z" fill="#9B9B9B"/><path opacity=".462" d="M66.932 45.919c34.024 0 61.606-3.802 61.606-8.492 0-4.69-27.582-8.493-61.606-8.493-34.025 0-61.606 3.802-61.606 8.493 0 4.69 27.581 8.492 61.606 8.492z" fill="#999"/><path opacity=".469" d="M66.932 45.907c34 0 61.563-3.795 61.563-8.476 0-4.68-27.563-8.475-61.563-8.475-34.001 0-61.564 3.794-61.564 8.475 0 4.681 27.563 8.476 61.564 8.476z" fill="#989898"/><path opacity=".476" d="M66.932 45.895c33.977 0 61.521-3.787 61.521-8.459s-27.544-8.459-61.521-8.459c-33.977 0-61.521 3.787-61.521 8.459s27.544 8.459 61.52 8.459z" fill="#969696"/><path opacity=".483" d="M66.932 45.883c33.953 0 61.478-3.78 61.478-8.442 0-4.663-27.525-8.443-61.478-8.443-33.954 0-61.479 3.78-61.479 8.443 0 4.662 27.525 8.442 61.479 8.442z" fill="#959595"/><path opacity=".49" d="M66.932 45.871c33.93 0 61.436-3.772 61.436-8.426 0-4.653-27.506-8.425-61.436-8.425S5.496 32.792 5.496 37.445c0 4.654 27.505 8.426 61.436 8.426z" fill="#939393"/><path opacity=".497" d="M66.932 45.86c33.906 0 61.393-3.766 61.393-8.41s-27.487-8.409-61.393-8.409c-33.907 0-61.394 3.765-61.394 8.41 0 4.643 27.487 8.408 61.394 8.408z" fill="#929292"/><path opacity=".503" d="M66.932 45.847c33.883 0 61.351-3.757 61.351-8.392s-27.468-8.392-61.351-8.392c-33.884 0-61.351 3.757-61.351 8.392s27.467 8.392 61.35 8.392z" fill="#909090"/><path opacity=".51" d="M66.932 45.835c33.859 0 61.308-3.75 61.308-8.375 0-4.626-27.449-8.376-61.308-8.376-33.86 0-61.309 3.75-61.309 8.376 0 4.625 27.449 8.375 61.309 8.375z" fill="#8F8F8F"/><path opacity=".517" d="M66.932 45.823c33.836 0 61.265-3.742 61.265-8.359 0-4.616-27.429-8.358-61.265-8.358-33.837 0-61.266 3.742-61.266 8.358 0 4.617 27.43 8.36 61.266 8.36z" fill="#8D8D8D"/><path opacity=".524" d="M66.932 45.812c33.812 0 61.223-3.735 61.223-8.343 0-4.607-27.411-8.342-61.223-8.342-33.813 0-61.224 3.735-61.224 8.342 0 4.608 27.41 8.343 61.224 8.343z" fill="#8C8C8C"/><path opacity=".531" d="M66.932 45.8c33.789 0 61.18-3.728 61.18-8.326 0-4.598-27.391-8.326-61.18-8.326-33.79 0-61.181 3.728-61.181 8.326 0 4.598 27.391 8.326 61.18 8.326z" fill="#8A8A8A"/><path opacity=".538" d="M66.932 45.788c33.765 0 61.138-3.72 61.138-8.31 0-4.588-27.373-8.308-61.138-8.308-33.766 0-61.139 3.72-61.139 8.308 0 4.59 27.373 8.31 61.139 8.31z" fill="#898989"/><path opacity=".545" d="M66.932 45.776c33.742 0 61.095-3.713 61.095-8.293 0-4.58-27.353-8.292-61.095-8.292-33.743 0-61.096 3.713-61.096 8.292 0 4.58 27.353 8.293 61.096 8.293z" fill="#878787"/><path opacity=".552" d="M66.932 45.764c33.718 0 61.053-3.705 61.053-8.276 0-4.57-27.335-8.276-61.053-8.276-33.72 0-61.053 3.705-61.053 8.276 0 4.57 27.334 8.276 61.053 8.276z" fill="#868686"/><path opacity=".559" d="M66.932 45.752c33.695 0 61.01-3.698 61.01-8.26 0-4.56-27.315-8.258-61.01-8.258-33.696 0-61.01 3.697-61.01 8.259 0 4.561 27.314 8.259 61.01 8.259z" fill="#848484"/><path opacity=".566" d="M66.932 45.74c33.671 0 60.968-3.69 60.968-8.242 0-4.553-27.297-8.243-60.968-8.243-33.672 0-60.968 3.69-60.968 8.243 0 4.552 27.296 8.242 60.968 8.242z" fill="#838383"/><path opacity=".572" d="M66.932 45.728c33.648 0 60.925-3.683 60.925-8.226 0-4.543-27.277-8.226-60.925-8.226-33.649 0-60.926 3.683-60.926 8.226 0 4.543 27.277 8.226 60.926 8.226z" fill="#818181"/><path opacity=".579" d="M66.932 45.716c33.624 0 60.883-3.675 60.883-8.209s-27.259-8.209-60.883-8.209c-33.625 0-60.883 3.675-60.883 8.21 0 4.533 27.258 8.208 60.883 8.208z" fill="gray"/><path opacity=".586" d="M66.932 45.704c33.601 0 60.84-3.668 60.84-8.192 0-4.525-27.239-8.192-60.84-8.192-33.602 0-60.84 3.667-60.84 8.192 0 4.524 27.239 8.192 60.84 8.192z" fill="#7E7E7E"/><path opacity=".593" d="M66.932 45.692c33.577 0 60.797-3.66 60.797-8.176 0-4.515-27.22-8.175-60.797-8.175-33.578 0-60.798 3.66-60.798 8.175 0 4.516 27.22 8.176 60.798 8.176z" fill="#7D7D7D"/><path opacity=".6" d="M66.932 45.68c33.554 0 60.755-3.653 60.755-8.159s-27.201-8.159-60.755-8.159c-33.555 0-60.756 3.653-60.756 8.16 0 4.505 27.201 8.158 60.756 8.158z" fill="#7B7B7B"/><path opacity=".607" d="M66.932 45.668c33.53 0 60.712-3.645 60.712-8.142s-27.182-8.143-60.712-8.143c-33.531 0-60.713 3.646-60.713 8.143 0 4.497 27.182 8.142 60.713 8.142z" fill="#797979"/><path opacity=".614" d="M66.932 45.656c33.507 0 60.67-3.638 60.67-8.125 0-4.488-27.163-8.126-60.67-8.126-33.508 0-60.67 3.638-60.67 8.126 0 4.487 27.162 8.125 60.67 8.125z" fill="#787878"/><path opacity=".621" d="M66.932 45.644c33.483 0 60.627-3.63 60.627-8.109 0-4.478-27.144-8.109-60.627-8.109-33.484 0-60.628 3.63-60.628 8.11 0 4.478 27.144 8.108 60.628 8.108z" fill="#767676"/><path opacity=".628" d="M66.932 45.632c33.46 0 60.585-3.623 60.585-8.092 0-4.47-27.125-8.093-60.585-8.093S6.346 33.071 6.346 37.54c0 4.47 27.125 8.092 60.586 8.092z" fill="#757575"/><path opacity=".634" d="M66.932 45.62c33.436 0 60.542-3.615 60.542-8.075 0-4.46-27.106-8.076-60.542-8.076-33.437 0-60.543 3.616-60.543 8.076 0 4.46 27.106 8.076 60.543 8.076z" fill="#737373"/><path opacity=".641" d="M66.932 45.609c33.413 0 60.5-3.608 60.5-8.06 0-4.45-27.087-8.058-60.5-8.058-33.414 0-60.5 3.608-60.5 8.059 0 4.45 27.086 8.059 60.5 8.059z" fill="#727272"/><path opacity=".648" d="M66.932 45.597c33.389 0 60.457-3.601 60.457-8.043 0-4.442-27.068-8.042-60.457-8.042-33.39 0-60.458 3.6-60.458 8.042s27.068 8.043 60.458 8.043z" fill="#707070"/><path opacity=".655" d="M66.932 45.585c33.366 0 60.415-3.594 60.415-8.026 0-4.433-27.049-8.026-60.415-8.026-33.367 0-60.415 3.593-60.415 8.026 0 4.432 27.048 8.026 60.415 8.026z" fill="#6F6F6F"/><path opacity=".662" d="M66.932 45.573c33.342 0 60.372-3.586 60.372-8.01 0-4.423-27.03-8.009-60.372-8.009-33.343 0-60.373 3.586-60.373 8.01 0 4.423 27.03 8.009 60.373 8.009z" fill="#6D6D6D"/><path opacity=".669" d="M66.932 45.56c33.319 0 60.33-3.578 60.33-7.992s-27.011-7.992-60.33-7.992c-33.32 0-60.33 3.578-60.33 7.992s27.01 7.993 60.33 7.993z" fill="#6C6C6C"/><path opacity=".676" d="M66.932 45.549c33.295 0 60.287-3.57 60.287-7.976 0-4.405-26.992-7.976-60.287-7.976-33.296 0-60.288 3.571-60.288 7.976 0 4.405 26.992 7.976 60.288 7.976z" fill="#6A6A6A"/><path opacity=".683" d="M66.932 45.537c33.272 0 60.244-3.563 60.244-7.96 0-4.395-26.972-7.958-60.244-7.958-33.273 0-60.245 3.563-60.245 7.959 0 4.396 26.972 7.96 60.245 7.96z" fill="#696969"/><path opacity=".69" d="M66.932 45.525c33.248 0 60.202-3.556 60.202-7.942 0-4.387-26.954-7.943-60.202-7.943-33.25 0-60.203 3.556-60.203 7.943 0 4.386 26.954 7.942 60.203 7.942z" fill="#676767"/><path opacity=".697" d="M66.932 45.513c33.225 0 60.159-3.548 60.159-7.926 0-4.377-26.934-7.926-60.16-7.926-33.225 0-60.16 3.549-60.16 7.926 0 4.377 26.935 7.926 60.16 7.926z" fill="#666"/><path opacity=".703" d="M66.932 45.501c33.201 0 60.117-3.54 60.117-7.91 0-4.367-26.916-7.908-60.117-7.908-33.202 0-60.118 3.54-60.118 7.909 0 4.368 26.916 7.91 60.118 7.91z" fill="#646464"/><path opacity=".71" d="M66.932 45.49c33.178 0 60.074-3.534 60.074-7.893 0-4.36-26.896-7.893-60.074-7.893-33.179 0-60.075 3.534-60.075 7.893s26.896 7.892 60.075 7.892z" fill="#636363"/><path opacity=".717" d="M66.932 45.477c33.154 0 60.032-3.526 60.032-7.876 0-4.35-26.878-7.876-60.032-7.876-33.155 0-60.032 3.527-60.032 7.876 0 4.35 26.877 7.876 60.032 7.876z" fill="#616161"/><path opacity=".724" d="M66.932 45.465c33.131 0 59.989-3.518 59.989-7.859 0-4.34-26.858-7.86-59.99-7.86-33.13 0-59.989 3.52-59.989 7.86s26.858 7.86 59.99 7.86z" fill="#606060"/><path opacity=".731" d="M66.932 45.453c33.107 0 59.947-3.51 59.947-7.842s-26.84-7.843-59.947-7.843c-33.108 0-59.947 3.511-59.947 7.843 0 4.331 26.839 7.843 59.947 7.843z" fill="#5E5E5E"/><path opacity=".738" d="M66.932 45.442c33.084 0 59.904-3.504 59.904-7.826 0-4.323-26.82-7.826-59.904-7.826-33.085 0-59.905 3.503-59.905 7.826 0 4.322 26.82 7.826 59.905 7.826z" fill="#5D5D5D"/><path opacity=".745" d="M66.932 45.43c33.06 0 59.862-3.497 59.862-7.81s-26.802-7.81-59.862-7.81c-33.061 0-59.862 3.497-59.862 7.81s26.8 7.81 59.862 7.81z" fill="#5B5B5B"/><path opacity=".752" d="M66.932 45.418c33.037 0 59.819-3.49 59.819-7.793 0-4.304-26.782-7.793-59.82-7.793-33.037 0-59.819 3.49-59.819 7.793 0 4.304 26.782 7.793 59.82 7.793z" fill="#5A5A5A"/><path opacity=".759" d="M66.932 45.406c33.013 0 59.776-3.481 59.776-7.776s-26.763-7.776-59.776-7.776c-33.014 0-59.777 3.481-59.777 7.776 0 4.294 26.763 7.776 59.777 7.776z" fill="#585858"/><path opacity=".765" d="M66.932 45.394c32.99 0 59.734-3.474 59.734-7.76 0-4.285-26.744-7.759-59.734-7.759s-59.735 3.474-59.735 7.76c0 4.285 26.744 7.759 59.735 7.759z" fill="#575757"/><path opacity=".772" d="M66.932 45.382c32.966 0 59.691-3.467 59.691-7.743s-26.725-7.743-59.691-7.743c-32.967 0-59.692 3.467-59.692 7.743s26.725 7.743 59.692 7.743z" fill="#555"/><path opacity=".779" d="M66.932 45.37c32.943 0 59.649-3.459 59.649-7.726 0-4.267-26.706-7.726-59.65-7.726-32.943 0-59.649 3.46-59.649 7.726 0 4.267 26.706 7.726 59.65 7.726z" fill="#545454"/><path opacity=".786" d="M66.932 45.358c32.92 0 59.606-3.452 59.606-7.71 0-4.257-26.686-7.709-59.606-7.709S7.325 33.391 7.325 37.65c0 4.257 26.687 7.71 59.607 7.71z" fill="#525252"/><path opacity=".793" d="M66.932 45.346c32.896 0 59.564-3.444 59.564-7.693 0-4.248-26.668-7.692-59.564-7.692-32.897 0-59.565 3.444-59.565 7.692 0 4.249 26.668 7.693 59.565 7.693z" fill="#515151"/><path opacity=".8" d="M66.932 45.334c32.873 0 59.521-3.437 59.521-7.676 0-4.24-26.648-7.676-59.521-7.676-32.873 0-59.522 3.437-59.522 7.676 0 4.24 26.649 7.676 59.522 7.676z" fill="#4F4F4F"/><path opacity=".807" d="M66.932 45.322c32.849 0 59.479-3.43 59.479-7.66s-26.63-7.659-59.48-7.659c-32.849 0-59.478 3.43-59.478 7.66s26.63 7.66 59.479 7.66z" fill="#4D4D4D"/><path opacity=".814" d="M66.932 45.31c32.825 0 59.436-3.422 59.436-7.643 0-4.22-26.61-7.643-59.436-7.643S7.495 33.447 7.495 37.667s26.61 7.643 59.437 7.643z" fill="#4C4C4C"/><path opacity=".821" d="M66.932 45.298c32.802 0 59.394-3.414 59.394-7.626s-26.592-7.626-59.394-7.626c-32.803 0-59.394 3.414-59.394 7.626S34.129 45.3 66.932 45.3z" fill="#4A4A4A"/><path opacity=".828" d="M66.932 45.286c32.778 0 59.351-3.406 59.351-7.61 0-4.202-26.573-7.609-59.351-7.609-32.78 0-59.352 3.407-59.352 7.61s26.573 7.61 59.352 7.61z" fill="#494949"/><path opacity=".835" d="M66.932 45.275c32.755 0 59.309-3.4 59.309-7.593 0-4.194-26.554-7.593-59.31-7.593-32.755 0-59.308 3.4-59.308 7.593s26.553 7.593 59.309 7.593z" fill="#474747"/><path opacity=".841" d="M66.932 45.263c32.731 0 59.266-3.392 59.266-7.576 0-4.185-26.534-7.577-59.266-7.577S7.665 33.502 7.665 37.687c0 4.184 26.535 7.576 59.267 7.576z" fill="#464646"/><path opacity=".848" d="M66.932 45.25c32.708 0 59.223-3.384 59.223-7.559 0-4.175-26.515-7.56-59.223-7.56-32.709 0-59.224 3.385-59.224 7.56s26.515 7.56 59.224 7.56z" fill="#444"/><path opacity=".855" d="M66.932 45.239c32.684 0 59.181-3.377 59.181-7.543s-26.496-7.543-59.181-7.543S7.75 33.53 7.75 37.696s26.497 7.543 59.182 7.543z" fill="#434343"/><path opacity=".862" d="M66.932 45.227c32.661 0 59.138-3.37 59.138-7.526 0-4.157-26.477-7.527-59.138-7.527-32.662 0-59.14 3.37-59.14 7.527 0 4.156 26.478 7.526 59.14 7.526z" fill="#414141"/><path opacity=".869" d="M66.932 45.215c32.638 0 59.096-3.362 59.096-7.51 0-4.147-26.459-7.51-59.096-7.51-32.638 0-59.097 3.363-59.097 7.51 0 4.148 26.459 7.51 59.097 7.51z" fill="#404040"/><path opacity=".876" d="M66.932 45.203c32.614 0 59.053-3.355 59.053-7.493s-26.439-7.493-59.053-7.493c-32.615 0-59.054 3.355-59.054 7.493s26.44 7.493 59.054 7.493z" fill="#3E3E3E"/><path opacity=".883" d="M66.932 45.191c32.59 0 59.011-3.347 59.011-7.476 0-4.13-26.42-7.477-59.011-7.477S7.92 33.587 7.92 37.715c0 4.129 26.42 7.476 59.012 7.476z" fill="#3D3D3D"/><path opacity=".89" d="M66.932 45.179c32.567 0 58.968-3.34 58.968-7.46s-26.4-7.46-58.968-7.46c-32.568 0-58.969 3.34-58.969 7.46s26.401 7.46 58.969 7.46z" fill="#3B3B3B"/><path opacity=".897" d="M66.932 45.167c32.543 0 58.926-3.332 58.926-7.443 0-4.11-26.383-7.443-58.926-7.443-32.544 0-58.926 3.332-58.926 7.443 0 4.11 26.382 7.443 58.926 7.443z" fill="#3A3A3A"/><path opacity=".903" d="M66.932 45.155c32.52 0 58.883-3.325 58.883-7.426 0-4.102-26.363-7.427-58.883-7.427S8.048 33.627 8.048 37.73c0 4.101 26.363 7.426 58.884 7.426z" fill="#383838"/><path opacity=".91" d="M66.932 45.143c32.497 0 58.841-3.317 58.841-7.41 0-4.092-26.344-7.41-58.841-7.41S8.09 33.642 8.09 37.734c0 4.093 26.344 7.41 58.84 7.41z" fill="#373737"/><path opacity=".917" d="M66.932 45.131c32.473 0 58.798-3.31 58.798-7.393s-26.325-7.393-58.798-7.393c-32.474 0-58.799 3.31-58.799 7.393 0 4.084 26.325 7.393 58.799 7.393z" fill="#353535"/><path opacity=".924" d="M66.932 45.12c32.45 0 58.756-3.303 58.756-7.377s-26.306-7.376-58.756-7.376-58.756 3.302-58.756 7.376 26.306 7.377 58.756 7.377z" fill="#343434"/><path opacity=".931" d="M66.932 45.108c32.426 0 58.713-3.296 58.713-7.36 0-4.065-26.287-7.36-58.713-7.36-32.427 0-58.714 3.295-58.714 7.36 0 4.064 26.287 7.36 58.714 7.36z" fill="#323232"/><path opacity=".938" d="M66.932 45.096c32.403 0 58.67-3.288 58.67-7.344 0-4.055-26.267-7.343-58.67-7.343-32.403 0-58.671 3.288-58.671 7.343 0 4.056 26.268 7.344 58.67 7.344z" fill="#313131"/><path opacity=".945" d="M66.932 45.084c32.38 0 58.628-3.28 58.628-7.327 0-4.046-26.249-7.326-58.628-7.326-32.38 0-58.629 3.28-58.629 7.326 0 4.046 26.25 7.327 58.629 7.327z" fill="#2F2F2F"/><path opacity=".952" d="M66.932 45.072c32.356 0 58.585-3.273 58.585-7.31 0-4.037-26.23-7.31-58.585-7.31-32.356 0-58.586 3.273-58.586 7.31 0 4.037 26.23 7.31 58.586 7.31z" fill="#2E2E2E"/><path opacity=".959" d="M66.932 45.06c32.332 0 58.543-3.265 58.543-7.293 0-4.028-26.21-7.294-58.543-7.294S8.388 33.74 8.388 37.767 34.6 45.06 66.932 45.06z" fill="#2C2C2C"/><path opacity=".966" d="M66.932 45.048c32.309 0 58.5-3.258 58.5-7.276 0-4.02-26.191-7.277-58.5-7.277-32.31 0-58.501 3.258-58.501 7.277 0 4.018 26.192 7.276 58.5 7.276z" fill="#2B2B2B"/><path opacity=".972" d="M66.932 45.036c32.285 0 58.458-3.25 58.458-7.26s-26.173-7.26-58.458-7.26c-32.286 0-58.459 3.25-58.459 7.26s26.173 7.26 58.459 7.26z" fill="#34BEED"/><path opacity=".979" d="M66.932 45.024c32.262 0 58.415-3.243 58.415-7.243s-26.153-7.243-58.415-7.243S8.516 33.78 8.516 37.78s26.154 7.243 58.416 7.243z" fill="#34BEED"/><path opacity=".986" d="M66.932 45.012c32.238 0 58.373-3.235 58.373-7.226s-26.135-7.227-58.373-7.227c-32.239 0-58.373 3.236-58.373 7.227 0 3.99 26.134 7.226 58.373 7.226z" fill="#34BEED"/><path opacity=".993" d="M66.932 45c32.215 0 58.33-3.228 58.33-7.21 0-3.982-26.115-7.21-58.33-7.21s-58.33 3.228-58.33 7.21c0 3.982 26.115 7.21 58.33 7.21z" fill="#34BEED"/><path d="M66.932 44.988c32.191 0 58.287-3.22 58.287-7.193 0-3.973-26.096-7.193-58.287-7.193-32.192 0-58.288 3.22-58.288 7.193 0 3.973 26.096 7.193 58.288 7.193z" fill="#34BEED"/></g><path d="M67.968 12.476c-32.796-.08-59.847 3.556-60.42 8.12-.572 4.565 25.55 8.33 58.347 8.41 32.797.08 59.847-3.556 60.42-8.12.572-4.565-25.55-8.33-58.347-8.41zm53.638 8.398c-.527 4.202-25.433 7.55-55.629 7.476-30.195-.073-54.247-3.54-53.72-7.742.528-4.202 25.433-7.55 55.629-7.476 30.196.073 54.247 3.54 53.72 7.742z" fill="#E8E8E8"/><path d="M121.604 10.428c-.526 4.203-25.43 7.55-55.627 7.479-30.194-.076-54.246-3.54-53.72-7.744.527-4.203 25.434-7.55 55.628-7.474 30.197.072 54.249 3.536 53.719 7.74z" fill="#E8E8E8"/><path d="M118.778 8.853a1.215 1.215 0 01-.04.185l-.025.062c-.015.04-.029.082-.049.122-.031.065-.07.13-.114.195l-.045.06c-.034.044-.068.09-.107.134-.023.026-.05.052-.075.079a2.593 2.593 0 01-.325.294 4.665 4.665 0 01-.663.443 5.55 5.55 0 01-.32.175 8.652 8.652 0 01-.351.173 15.883 15.883 0 01-.585.258 13.127 13.127 0 01-.428.17l-.214.08a18.175 18.175 0 01-.468.166l-.26.087-.242.078a34.672 34.672 0 01-.832.252l-.259.073-.327.09-.261.07-.404.104-.234.059c-.16.04-.324.078-.488.117l-.179.043c-.233.054-.472.108-.715.162l-.19.04-.56.12-.253.051a87.234 87.234 0 01-1.445.28l-.267.049c-.309.056-.623.111-.943.166l-.172.028a102.197 102.197 0 01-2.228.353h-.004a133.913 133.913 0 01-2.731.375l-.159.02c-.407.052-.82.102-1.238.152l-.245.03-1.324.15-.276.03c-.419.044-.842.089-1.27.132l-.167.018c-.413.041-.832.082-1.254.122l-.335.03c-.33.032-.662.062-.998.091l-.377.034-.944.08-.279.023-1.238.098-.33.024-.912.068-.45.031a294.4 294.4 0 01-2.42.159l-.243.015-1.396.08-.28.015c-.575.032-1.154.062-1.739.09l-.127.007c-.602.03-1.21.056-1.822.082l-.343.015c-.6.025-1.203.049-1.811.07l-.316.012a333.647 333.647 0 01-4.552.13l-.184.004c-.536.012-1.075.022-1.616.031l-.404.007c-.531.008-1.064.016-1.6.022l-.08.001c-.491.006-.985.01-1.48.014l-.503.003a371.303 371.303 0 01-2.585.007h-.651a374.61 374.61 0 01-1.388-.006l-.263-.002a367.285 367.285 0 01-3.174-.035l-.303-.005c-.586-.01-1.168-.02-1.747-.032l-.384-.009c-.616-.013-1.23-.028-1.838-.044l-.06-.002c-.677-.019-1.349-.04-2.017-.062l-.235-.007a343.318 343.318 0 01-4.375-.178l-.288-.013a299.251 299.251 0 01-4.482-.25l-.239-.015c-.74-.047-1.47-.097-2.19-.15l-.161-.01c-.798-.059-1.585-.12-2.358-.184l-.223-.019c-.311-.025-.62-.052-.926-.079-.13-.01-.258-.022-.387-.034a218.01 218.01 0 01-.759-.069l-.406-.038c-.27-.025-.538-.051-.805-.078l-.375-.037c-.316-.031-.629-.064-.94-.096l-.197-.02c-.41-.044-.812-.089-1.212-.134l-.31-.035-.943-.111-.273-.033c-.434-.053-.861-.107-1.282-.162l-.258-.034c-.415-.055-.826-.11-1.228-.167l-.057-.008c-.583-.083-1.151-.167-1.705-.253l-.308-.05-.512-.081-.323-.055-.478-.08c-.242-.041-.481-.083-.716-.126l-.136-.024-.563-.104-.244-.047a79.11 79.11 0 01-.435-.085l-.264-.052a77.479 77.479 0 01-1.294-.274l-.389-.088-.221-.05a50.432 50.432 0 01-.45-.108l-.135-.032c-.192-.047-.38-.095-.565-.143l-.126-.033a41.71 41.71 0 01-.412-.11l-.194-.055c-.11-.03-.218-.061-.323-.092l-.202-.06a32.233 32.233 0 01-.777-.242l-.179-.059a20.523 20.523 0 01-.286-.099l-.153-.053-.332-.123-.082-.03a16.568 16.568 0 01-.388-.156c-.035-.015-.067-.03-.102-.044a13.484 13.484 0 01-.26-.113l-.129-.06a10.677 10.677 0 01-.643-.325 7.067 7.067 0 01-.173-.1l-.105-.063a5.887 5.887 0 01-.167-.108l-.084-.056a4.545 4.545 0 01-.198-.145l-.025-.019a3.505 3.505 0 01-.195-.166c-.019-.017-.035-.034-.053-.052a2.748 2.748 0 01-.115-.115c-.02-.021-.037-.043-.056-.064a2.09 2.09 0 01-.133-.173 1.65 1.65 0 01-.15-.277 1.15 1.15 0 01-.057-.182l-.014-.057a1.026 1.026 0 01-.015-.172v1.569c0 .058.006.115.015.173l.014.056c.008.039.018.077.03.116l.027.066a1.316 1.316 0 00.15.277 1.675 1.675 0 00.134.173c.018.022.035.043.055.064.036.039.075.078.115.116l.053.051c.06.056.125.111.195.166l.022.017c.064.05.13.098.201.148l.084.055c.054.036.109.072.167.108l.105.063a7.108 7.108 0 00.48.263l.125.063c.07.034.14.067.213.1l.127.06.261.113.101.043c.126.052.255.104.39.156l.073.027c.11.042.223.084.34.126l.15.053a22.766 22.766 0 001.247.402l.196.058.33.094.188.052.408.11.133.035c.185.047.373.095.564.142l.133.032.454.108.214.05c.13.03.261.06.394.089l.246.054a61.717 61.717 0 001.054.22l.255.051.44.085.242.047c.192.036.387.072.584.107l.112.021a98.783 98.783 0 00.722.127l.457.077.341.057.512.082.308.049.84.128.148.021a133.22 133.22 0 00.732.106l.043.006c.4.057.81.112 1.224.167l.262.034c.42.055.845.109 1.278.162l.086.01c.065.009.133.016.199.024.305.037.614.073.926.109l.323.037c.398.045.8.089 1.207.132l.03.004.17.017a203.871 203.871 0 002.114.211l.225.022.19.017.738.067.408.036.889.076.233.02.024.002c.772.063 1.558.124 2.355.183.018 0 .035.002.053.004l.108.007c.719.052 1.448.102 2.187.15.033.001.064.004.097.006l.148.009c.694.044 1.395.085 2.104.125l.12.007.159.009c.69.038 1.39.074 2.095.108l.126.006.167.008c.675.032 1.356.062 2.043.09l.122.005.184.007c.667.027 1.34.052 2.017.075.027 0 .053.002.08.003l.172.005c.658.022 1.322.042 1.99.06l.06.002h.02c.604.017 1.213.032 1.824.045l.217.005.182.004c.578.012 1.157.023 1.74.032l.074.002.233.003c.452.007.907.013 1.364.018l.255.004.223.001c.433.005.868.009 1.304.012l.231.002h.064c.459.003.919.005 1.38.006h1.943l.299-.002c.331 0 .662-.003.992-.005l.334-.001.173-.002c.494-.003.988-.008 1.479-.014h.08a390.93 390.93 0 001.593-.023l.182-.002.24-.005 1.587-.03.164-.004h.042c.881-.02 1.755-.043 2.62-.068H77.772a336.4 336.4 0 001.9-.063l.332-.012c.606-.021 1.207-.045 1.805-.07l.344-.014c.61-.026 1.216-.054 1.816-.083l.146-.007c.577-.028 1.148-.058 1.715-.089l.185-.01.111-.006c.467-.026.93-.052 1.39-.08l.243-.015 1.14-.072.192-.012.255-.018c.279-.018.556-.038.833-.057l.45-.031.912-.068c.088-.006.179-.012.267-.02.021 0 .042-.003.063-.004l1.238-.098.279-.023.944-.08.158-.014.22-.02.997-.09.336-.031c.42-.04.837-.08 1.25-.122l.05-.005.131-.014c.422-.043.84-.086 1.252-.131l.287-.031c.445-.049.883-.099 1.316-.15l.093-.01.163-.02c.413-.049.82-.099 1.222-.15l.171-.02c.431-.056.853-.112 1.271-.17l.142-.018.149-.021c.394-.055.783-.11 1.163-.166l.019-.003c.376-.056.744-.113 1.108-.17l.143-.022.143-.023c.275-.044.546-.089.813-.134l.184-.03.937-.165.082-.015.193-.036a81.535 81.535 0 001.435-.278l.181-.036.08-.017c.185-.038.366-.077.545-.116l.203-.043c.243-.053.481-.107.714-.162l.021-.004.161-.039c.163-.039.325-.077.483-.116l.242-.062c.134-.033.266-.067.396-.101l.083-.022c.063-.016.122-.033.183-.05a34.8 34.8 0 00.324-.088l.259-.074.306-.09c.036-.01.074-.02.109-.031l.144-.045a34.672 34.672 0 00.516-.164l.257-.087.116-.038.115-.042a27.398 27.398 0 00.455-.167l.222-.086.112-.044.092-.039c.069-.028.137-.057.204-.086l.191-.084.188-.087c.033-.015.069-.03.102-.046l.074-.038a13.064 13.064 0 00.337-.175l.159-.09.091-.05.055-.036c.051-.03.099-.061.147-.092l.129-.086c.045-.03.087-.062.13-.093.025-.019.053-.037.077-.056l.036-.03a4.36 4.36 0 00.124-.104l.092-.082c.039-.036.073-.072.108-.108.02-.02.042-.04.061-.061l.014-.018a1.99 1.99 0 00.106-.134c.015-.02.032-.04.046-.06.044-.064.083-.13.114-.195l.001-.001c.02-.04.034-.081.049-.122.007-.02.017-.04.023-.06a1.108 1.108 0 00.047-.256l.002-.058v-1.57c0 .043-.003.086-.008.13z" fill="#D0D0D0"/><path d="M66.932 15.944c28.638 0 51.854-3.23 51.854-7.217 0-3.985-23.216-7.216-51.854-7.216-28.639 0-51.854 3.23-51.854 7.216s23.216 7.217 51.854 7.217z" fill="#E8E8E8"/><path d="M121.606 10.43c-.008.065-.023.13-.042.195-.007.023-.019.045-.028.068-.015.042-.029.084-.05.126a1.641 1.641 0 01-.12.205l-.048.063a1.959 1.959 0 01-.113.141c-.024.028-.052.056-.079.084-.036.038-.072.076-.113.114a2.761 2.761 0 01-.098.086 3.48 3.48 0 01-.25.2 3.8 3.8 0 01-.137.098c-.043.03-.09.06-.136.09a5.045 5.045 0 01-.307.189l-.17.095a10.823 10.823 0 01-.94.453 14.402 14.402 0 01-.665.27 14.955 14.955 0 01-.479.176 29.422 29.422 0 01-1.921.6c-.113.033-.229.064-.344.095l-.278.074-.417.108-.257.065-.505.121-.196.047c-.246.057-.498.114-.754.17l-.205.045-.582.123c-.091.02-.185.038-.277.057l-.589.117-.312.06c-.203.04-.408.078-.616.116l-.283.052c-.325.059-.656.117-.994.175l-.183.03c-.283.048-.571.095-.862.142l-.306.049c-.383.06-.77.12-1.166.178l-.02.004a148.498 148.498 0 01-2.876.394l-.174.022c-.427.054-.861.107-1.3.16l-.259.03c-.457.054-.921.107-1.39.158l-.307.033c-.433.047-.87.093-1.314.138l-.198.02c-.433.044-.872.087-1.315.129l-.356.033-1.048.095-.4.035c-.33.029-.663.057-.997.084l-.293.025c-.43.035-.865.07-1.302.103l-.363.027-.95.07-.478.033a321.316 321.316 0 01-2.539.167l-.268.016c-.486.03-.975.058-1.467.085l-.301.016c-.605.033-1.214.065-1.829.095l-.138.007c-.634.03-1.276.06-1.92.087l-.359.015c-.632.026-1.268.051-1.91.075l-.34.011a358.56 358.56 0 01-4.794.138l-.204.004c-.561.012-1.125.023-1.692.033l-.433.007c-.56.01-1.122.017-1.687.024h-.065c-.522.007-1.047.011-1.574.015l-.54.004a401.744 401.744 0 01-2.724.007h-.683l-1.465-.007-.272-.002a408.059 408.059 0 01-3.368-.037l-.296-.005c-.62-.01-1.237-.021-1.851-.034l-.402-.009c-.648-.014-1.294-.03-1.934-.047l-.08-.002c-.711-.02-1.417-.041-2.118-.065l-.242-.008c-.72-.024-1.432-.05-2.14-.079l-.314-.012c-.726-.03-1.446-.062-2.16-.096l-.306-.014c-.746-.036-1.484-.074-2.215-.114l-.287-.016c-.749-.042-1.49-.087-2.221-.133l-.259-.016c-.78-.05-1.55-.103-2.31-.158l-.2-.014-.98-.074-.247-.018-1.21-.097-.272-.023a241.02 241.02 0 01-.949-.081l-.436-.04c-.257-.022-.514-.045-.77-.069l-.443-.042-.836-.08-.405-.04-.977-.1-.221-.024c-.43-.046-.855-.092-1.275-.14l-.33-.037-.988-.116-.295-.036a162.05 162.05 0 01-1.349-.17l-.275-.037a146.92 146.92 0 01-1.297-.176l-.054-.008c-.27-.038-.535-.077-.8-.116l-.113-.016-.888-.135-.287-.046-.577-.092-.352-.06-.49-.082a98.714 98.714 0 01-.757-.133l-.146-.027a92.044 92.044 0 01-.591-.109l-.256-.049-.463-.09c-.091-.017-.181-.036-.271-.054a74.208 74.208 0 01-1.11-.232l-.259-.057c-.14-.03-.276-.062-.412-.093l-.231-.053a58.97 58.97 0 01-.477-.114l-.14-.033c-.203-.05-.4-.1-.595-.15l-.143-.039a44.434 44.434 0 01-.425-.114l-.203-.056a40.42 40.42 0 01-.346-.098l-.208-.062a32.76 32.76 0 01-.821-.256l-.189-.062-.302-.104c-.053-.02-.108-.038-.16-.057-.12-.043-.236-.086-.35-.13l-.088-.032c-.14-.054-.276-.109-.408-.164l-.109-.046a14.81 14.81 0 01-.274-.12l-.134-.061a12.067 12.067 0 01-.554-.276 9.6 9.6 0 01-.308-.173l-.111-.067a6.597 6.597 0 01-.176-.114l-.089-.059a4.76 4.76 0 01-.206-.151l-.03-.022a3.754 3.754 0 01-.205-.175c-.02-.018-.036-.036-.055-.054a2.86 2.86 0 01-.122-.123l-.058-.066a2.221 2.221 0 01-.14-.183 1.786 1.786 0 01-.109-.181 1.374 1.374 0 01-.05-.112c-.01-.023-.02-.046-.027-.07a1.202 1.202 0 01-.034-.122l-.014-.059a1.089 1.089 0 01-.016-.182v10.445c0 .06.006.121.016.182l.014.059c.01.04.02.082.034.122.007.024.017.047.027.07a1.376 1.376 0 00.158.293 2.086 2.086 0 00.141.182l.058.067c.038.041.08.082.122.123l.055.054c.064.058.132.116.206.174.009.008.02.015.03.022.065.05.133.101.205.152l.09.059c.056.038.114.076.175.113.036.023.074.045.111.067a7.8 7.8 0 00.64.344c.071.035.146.07.222.105.045.02.088.042.134.062l.274.12.109.046c.132.055.268.11.409.163l.086.033.35.13.161.056c.1.035.2.07.302.104l.189.063a28.558 28.558 0 001.375.415c.067.02.134.038.203.057l.425.114.143.038c.194.05.393.1.595.15l.14.034.477.114.23.053.413.093c.086.02.173.038.26.057a76.044 76.044 0 001.108.232l.272.054.463.09.256.049c.194.037.392.073.59.109l.147.027c.237.043.478.085.722.127l.036.006c.16.028.325.055.49.082l.35.06.578.091.287.046c.292.046.588.09.888.135l.114.017c.264.039.53.078.8.116l.013.002.04.005c.425.06.858.119 1.297.177l.276.036c.442.058.892.115 1.348.17l.09.012.205.024a175.12 175.12 0 002.593.294l.033.003.188.02.977.1.405.04.836.08.24.024.204.019.77.07.435.038c.314.028.63.055.949.081l.234.02.038.003c.4.033.804.066 1.21.097l.248.019c.324.025.65.05.979.073l.09.007.11.008c.76.055 1.53.107 2.31.157l.103.007.156.01c.732.046 1.472.09 2.221.132l.123.008.164.008c.731.04 1.47.079 2.215.114l.132.007.174.008c.714.034 1.434.066 2.16.095l.125.006.19.007c.706.028 1.417.055 2.134.079l.081.003.176.005c.698.023 1.4.045 2.108.064l.06.002h.02c.64.018 1.286.033 1.934.048l.219.005.184.003c.611.013 1.226.025 1.845.035l.076.001.24.004c.482.007.965.014 1.45.019.088.001.175.003.263.003l.228.002c.47.005.94.01 1.412.013l.214.001h.058c.487.004.975.006 1.465.007h2.048l.313-.002 1.046-.005c.118 0 .237 0 .356-.002l.184-.001a386.59 386.59 0 001.574-.015h.065a384.55 384.55 0 001.687-.024l.188-.003.245-.005c.567-.01 1.13-.02 1.692-.032l.162-.003.042-.001c1.623-.036 3.221-.083 4.794-.138l.34-.012a341.54 341.54 0 001.91-.074l.358-.015a337.06 337.06 0 001.921-.087l.138-.007c.615-.03 1.224-.062 1.829-.095l.187-.01.114-.006 1.467-.085.268-.017c.399-.024.795-.05 1.19-.075l.205-.013.27-.018.875-.06.478-.034.95-.07.292-.021.07-.006c.437-.033.871-.067 1.302-.103l.293-.024.996-.084.167-.014.234-.022c.352-.03.701-.063 1.048-.095l.355-.033c.445-.042.885-.085 1.32-.128l.051-.005.133-.014a201.705 201.705 0 003.021-.33l.094-.01.165-.021c.439-.052.873-.105 1.3-.16l.174-.021c.457-.058.905-.118 1.347-.178l.145-.02.152-.021a138.9 138.9 0 001.232-.176l.02-.003c.397-.059.786-.119 1.169-.18l.149-.022.15-.025c.293-.047.582-.094.867-.142l.182-.03c.338-.058.669-.117.994-.175l.085-.015.197-.037a87.789 87.789 0 001.524-.295l.186-.037.082-.018c.199-.04.394-.083.587-.124l.203-.044c.256-.056.508-.113.754-.17l.022-.006.174-.041c.17-.04.339-.08.505-.122l.257-.065c.14-.035.281-.07.417-.107l.087-.022.191-.052.344-.094a36.25 36.25 0 00.595-.172l.116-.034.15-.047a28.345 28.345 0 00.817-.265l.122-.04.12-.044a18.265 18.265 0 00.715-.267c.039-.016.08-.03.118-.046l.097-.041a13.423 13.423 0 00.615-.271c.035-.017.073-.033.107-.05l.078-.04a9.543 9.543 0 00.355-.183l.17-.096.094-.053c.021-.012.038-.024.058-.037a4.86 4.86 0 00.291-.188c.048-.033.093-.066.138-.099.026-.02.055-.038.08-.058.014-.01.025-.021.038-.031.046-.037.089-.074.132-.111.033-.029.066-.057.097-.086.041-.038.077-.076.113-.114.021-.021.045-.043.064-.064l.015-.019c.042-.047.078-.094.113-.142.015-.02.033-.041.047-.062.047-.068.088-.137.121-.206l.002-.002c.019-.04.033-.082.048-.123.009-.023.02-.046.028-.069.019-.064.034-.13.042-.195l.007-.074.001-.061V10.294c0 .045-.002.09-.008.135z" fill="url(#b)"/><path d="M126.315 20.885c-.009.071-.025.142-.046.212-.008.024-.02.048-.029.072-.017.047-.032.093-.055.139-.036.075-.081.15-.131.223-.016.023-.035.046-.052.068a2.266 2.266 0 01-.122.154c-.027.03-.057.06-.086.09-.04.042-.079.083-.123.124-.033.031-.07.062-.105.093-.047.04-.093.08-.144.12-.041.033-.085.065-.128.098a5.945 5.945 0 01-.466.312l-.165.097a7.035 7.035 0 01-.368.202 15.63 15.63 0 01-.201.102l-.202.097a18.505 18.505 0 01-.435.195 15.752 15.752 0 01-.971.386 23.109 23.109 0 01-1.107.378 26.421 26.421 0 01-.604.186c-.115.035-.233.069-.351.103l-.295.084-.375.103c-.1.027-.199.054-.301.08-.149.04-.302.078-.455.117l-.277.07c-.181.045-.366.089-.552.133l-.21.05c-.267.062-.54.124-.818.185l-.226.049c-.208.045-.417.09-.631.134l-.295.06a78.16 78.16 0 01-1.652.32l-.308.056c-.353.064-.713.127-1.079.19l-.195.032c-.31.053-.624.104-.943.155l-.327.052c-.418.066-.842.132-1.274.196l-.016.002c-.436.065-.883.128-1.335.19l-.329.046c-.48.065-.966.13-1.462.193l-.184.023c-.465.06-.938.117-1.416.174l-.28.033c-.497.059-1.002.116-1.513.172l-.326.035c-.476.052-.957.102-1.445.152l-.196.02c-.474.048-.955.094-1.439.14l-.373.035-1.15.104-.433.038-1.073.091-.33.028c-.467.038-.94.075-1.415.111l-.373.028c-.349.027-.698.052-1.05.078l-.516.036a302.639 302.639 0 01-2.766.181l-.285.018c-.526.032-1.057.062-1.59.092l-.337.018c-.651.035-1.307.07-1.97.102l-.162.008c-.687.033-1.38.064-2.077.094l-.402.017c-.684.029-1.373.056-2.067.08l-.372.014a393.385 393.385 0 01-5.205.15c-.074 0-.148.002-.222.004-.609.013-1.221.024-1.836.035l-.472.008c-.608.01-1.218.019-1.831.026h-.081c-.564.007-1.13.012-1.699.016l-.586.004a429.636 429.636 0 01-2.947.008h-.755l-1.585-.007c-.107 0-.213-.002-.32-.003-.507-.003-1.012-.007-1.516-.013-.178-.002-.355-.003-.532-.006a451.51 451.51 0 01-1.585-.02l-.33-.006c-.672-.01-1.339-.023-2.003-.037l-.449-.01c-.702-.015-1.402-.032-2.096-.05l-.08-.003c-.77-.021-1.534-.045-2.293-.07l-.281-.01c-.78-.026-1.554-.054-2.322-.085l-.334-.013c-.792-.033-1.576-.067-2.354-.104l-.326-.016c-.81-.039-1.61-.08-2.403-.124l-.32-.017c-.814-.046-1.62-.094-2.417-.145a310.887 310.887 0 01-2.783-.189l-.214-.014-1.06-.08-.276-.021c-.441-.034-.88-.07-1.313-.105l-.291-.025-1.037-.088-.461-.041a269.639 269.639 0 01-2.242-.21l-.432-.043a238.9 238.9 0 01-1.078-.111l-.223-.023c-.468-.05-.928-.1-1.385-.152l-.367-.042c-.358-.041-.712-.083-1.062-.125l-.326-.04c-.495-.06-.983-.121-1.464-.184l-.3-.04c-.475-.063-.945-.126-1.406-.191l-.06-.009c-.67-.095-1.322-.191-1.957-.29l-.292-.047-.647-.103-.352-.06a110.11 110.11 0 01-1.382-.238l-.172-.031a100.4 100.4 0 01-.63-.117l-.28-.053a95.902 95.902 0 01-1.558-.313 66.458 66.458 0 01-.44-.095l-.285-.062-.446-.101-.253-.058-.503-.12-.168-.04a50.854 50.854 0 01-.643-.163l-.16-.043c-.155-.04-.309-.081-.459-.123l-.22-.061a38.784 38.784 0 01-1.166-.346l-.326-.105-.207-.069c-.11-.037-.218-.074-.325-.112l-.177-.062a22.82 22.82 0 01-.382-.142l-.092-.034c-.153-.059-.3-.118-.444-.178l-.118-.05a15.505 15.505 0 01-.298-.13 13.637 13.637 0 01-.533-.255 10.913 10.913 0 01-.548-.3l-.122-.073a6.71 6.71 0 01-.19-.122l-.096-.065a5.245 5.245 0 01-.227-.166l-.03-.022a4.058 4.058 0 01-.223-.19l-.06-.059a3.125 3.125 0 01-.132-.132l-.063-.073a2.448 2.448 0 01-.153-.199 1.86 1.86 0 01-.172-.317c-.01-.026-.021-.05-.03-.076a1.286 1.286 0 01-.036-.133l-.015-.064a1.186 1.186 0 01-.018-.198v15.665c0 .066.007.132.018.198.004.022.01.043.015.065.01.044.021.088.036.132.009.026.02.05.03.076a1.54 1.54 0 00.172.318 2.113 2.113 0 00.153.198c.02.024.04.049.063.073.041.044.086.088.132.133l.06.059c.07.063.144.126.224.19l.03.021c.07.056.146.111.226.167.03.021.065.043.097.064.061.041.123.082.19.123l.121.073a8.77 8.77 0 00.693.373l.243.114.145.068.298.129.118.05c.144.06.291.12.444.178l.092.035c.125.047.251.094.382.141l.176.062c.108.038.215.076.326.113l.207.068a29.46 29.46 0 001.116.344c.125.037.253.073.382.109l.212.06.472.126.147.039c.211.054.427.109.647.163l.152.036c.17.042.343.084.52.125l.246.056c.15.034.299.069.451.102l.28.062a67.396 67.396 0 001.21.253l.288.057.515.1.266.051.657.121.145.027c.259.046.52.093.786.138l.037.007.547.091.367.062.595.095.347.055c.316.05.637.099.962.147l.135.02a148.28 148.28 0 00.871.126l.046.006c.46.065.93.129 1.406.192l.3.04c.48.062.969.124 1.464.184l.098.012c.075.01.153.018.228.027.35.042.704.084 1.062.125l.367.042c.457.052.917.102 1.385.152l.033.004.193.02 1.07.11.446.044c.3.03.603.058.907.087l.258.025.216.02.852.077.461.041c.343.03.69.06 1.037.088l.25.022.04.003c.435.036.873.07 1.314.105l.276.021 1.06.08.096.007.118.008c.826.06 1.664.117 2.512.171l.11.008.168.01c.794.05 1.598.098 2.41.144l.137.008.183.01c.793.043 1.594.084 2.403.123l.141.008.185.008c.778.037 1.562.072 2.354.104l.132.006.202.007c.768.03 1.541.06 2.322.086l.088.004.193.005c.759.026 1.523.049 2.293.07l.06.002h.02c.694.02 1.394.036 2.096.051.082.002.162.005.244.006l.205.004c.664.014 1.331.027 2.003.038l.078.001.252.003 1.585.022c.095 0 .19.002.284.003l.248.002c.504.006 1.01.01 1.517.013l.25.003h.069l1.585.007H68.12l.338-.002 1.14-.006.384-.001.203-.002 1.698-.016h.07l.01-.001c.614-.007 1.224-.016 1.832-.026l.204-.003.27-.005c.608-.01 1.215-.022 1.818-.035l.192-.003.05-.002a402.978 402.978 0 003.006-.077h.016c.732-.022 1.457-.046 2.179-.072l.372-.013c.694-.025 1.383-.052 2.067-.08l.402-.017c.697-.03 1.39-.061 2.077-.095l.163-.008c.662-.032 1.318-.066 1.97-.102l.21-.01.126-.008c.534-.03 1.064-.06 1.59-.092l.288-.018c.434-.026.866-.053 1.295-.081l.223-.015.298-.02.945-.065.517-.036 1.05-.077.302-.023.072-.005 1.416-.112.33-.028 1.072-.09.182-.016.251-.023 1.15-.104.373-.034c.484-.046.965-.093 1.439-.14l.054-.006.143-.015a221.42 221.42 0 003.279-.358l.105-.012.185-.023c.476-.056.946-.114 1.409-.172l.185-.023c.496-.064.982-.128 1.462-.194l.161-.021.168-.024c.452-.063.898-.126 1.335-.19l.015-.003c.433-.064.856-.13 1.275-.195l.163-.026.164-.026c.319-.051.633-.103.943-.155l.195-.033c.366-.062.725-.126 1.079-.19l.092-.016.217-.04a95.682 95.682 0 001.65-.32l.205-.04.09-.02c.215-.044.424-.09.632-.134l.226-.049c.278-.06.551-.122.818-.185l.025-.005.185-.045c.186-.044.371-.088.552-.133l.277-.07.455-.116.094-.025c.071-.018.137-.037.207-.056.126-.034.252-.068.375-.103l.295-.084.351-.102.125-.037.164-.051a30.575 30.575 0 00.887-.287l.132-.044.131-.047a25.064 25.064 0 00.777-.291l.127-.05.106-.044a16.9 16.9 0 00.233-.1 18.505 18.505 0 00.435-.196l.116-.053.086-.043.201-.102.183-.097.185-.104c.033-.02.07-.038.102-.058l.063-.04a7.177 7.177 0 00.466-.312c.028-.02.06-.042.087-.063.015-.011.027-.023.041-.034.051-.04.097-.08.144-.12.035-.031.072-.062.105-.093.044-.041.083-.083.123-.124.022-.023.049-.047.07-.07l.016-.02c.045-.052.084-.103.122-.154l.052-.068c.05-.074.095-.149.131-.224l.001-.002c.022-.045.037-.09.054-.136.009-.024.021-.048.029-.072.021-.07.037-.141.046-.212l.007-.081.002-.066V20.738c0 .05-.003.098-.009.147z" fill="url(#c)"/></g><g filter="url(#d)"><ellipse cx="66.886" cy="8.973" rx="31.288" ry="4.172" fill="#000"/></g><defs><radialGradient id="b" cx="0" cy="0" r="1" gradientUnits="userSpaceOnUse" gradientTransform="translate(66.932 19.323) scale(39.19)"><stop stop-color="#fff"/><stop offset="1" stop-color="#C4C4C2"/></radialGradient><radialGradient id="c" cx="0" cy="0" r="1" gradientUnits="userSpaceOnUse" gradientTransform="translate(66.932 32.705) scale(42.8407)"><stop stop-color="#fff"/><stop offset="1" stop-color="#C4C4C2"/></radialGradient><filter id="a" x="0" y="0" width="133.863" height="50.231" filterUnits="userSpaceOnUse" color-interpolation-filters="sRGB"><feFlood flood-opacity="0" result="BackgroundImageFix"/><feColorMatrix in="SourceAlpha" values="0 0 0 0 0 0 0 0 0 0 0 0 0 0 0 0 0 0 127 0" result="hardAlpha"/><feOffset dy="1.007"/><feGaussianBlur stdDeviation="1.259"/><feComposite in2="hardAlpha" operator="out"/><feColorMatrix values="0 0 0 0 0.203922 0 0 0 0 0.745098 0 0 0 0 0.929412 0 0 0 1 0"/><feBlend in2="BackgroundImageFix" result="effect1_dropShadow_1026_634"/><feColorMatrix in="SourceAlpha" values="0 0 0 0 0 0 0 0 0 0 0 0 0 0 0 0 0 0 127 0" result="hardAlpha"/><feOffset dy="1.007"/><feGaussianBlur stdDeviation=".504"/><feComposite in2="hardAlpha" operator="out"/><feColorMatrix values="0 0 0 0 0.203922 0 0 0 0 0.745098 0 0 0 0 0.929412 0 0 0 1 0"/><feBlend in2="effect1_dropShadow_1026_634" result="effect2_dropShadow_1026_634"/><feBlend in="SourceGraphic" in2="effect2_dropShadow_1026_634" result="shape"/></filter><filter id="d" x="34.803" y="4.007" width="64.166" height="10.727" filterUnits="userSpaceOnUse" color-interpolation-filters="sRGB"><feFlood flood-opacity="0" result="BackgroundImageFix"/><feColorMatrix in="SourceAlpha" values="0 0 0 0 0 0 0 0 0 0 0 0 0 0 0 0 0 0 127 0" result="hardAlpha"/><feOffset dy=".795"/><feGaussianBlur stdDeviation=".397"/><feComposite in2="hardAlpha" operator="out"/><feColorMatrix values="0 0 0 0 0 0 0 0 0 0 0 0 0 0 0 0 0 0 0.25 0"/><feBlend in2="BackgroundImageFix" result="effect1_dropShadow_1026_634"/><feBlend in="SourceGraphic" in2="effect1_dropShadow_1026_634" result="shape"/><feGaussianBlur stdDeviation=".397" result="effect2_foregroundBlur_1026_634"/></filter></defs></svg>