<svg width="36" height="36" fill="none" xmlns="http://www.w3.org/2000/svg"><g clip-path="url(#a)"><path d="M31.5 0h-27A4.513 4.513 0 000 4.5v27C0 33.975 2.025 36 4.5 36h27c2.475 0 4.5-2.025 4.5-4.5v-27C36 2.025 33.975 0 31.5 0z" fill="#E44332"/><path d="M7.612 16.988c.628-.366 14.111-8.202 14.42-8.383.308-.18.324-.731-.023-.93-.345-.2-1-.576-1.244-.72a1.129 1.129 0 00-1.112.013C19.481 7.07 7.96 13.76 7.575 13.98a1.488 1.488 0 01-1.49 0L0 10.409v3.035c1.48.872 5.163 3.037 6.056 3.547.532.303 1.042.296 1.558-.003" fill="#fff"/><path d="M7.612 22.726c.628-.366 14.111-8.202 14.42-8.383.308-.18.324-.731-.023-.93-.345-.199-1-.575-1.244-.72a1.129 1.129 0 00-1.112.013c-.172.101-11.693 6.792-12.078 7.012a1.488 1.488 0 01-1.49 0L0 16.148v3.034c1.48.872 5.163 3.038 6.056 3.548.532.302 1.042.296 1.558-.004" fill="#fff"/><path d="M7.612 28.823c.628-.366 14.111-8.201 14.42-8.383.308-.18.324-.73-.023-.93-.345-.199-1-.575-1.244-.72a1.128 1.128 0 00-1.112.014c-.172.1-11.693 6.792-12.078 7.011a1.488 1.488 0 01-1.49 0L0 22.245v3.035c1.48.871 5.163 3.037 6.056 3.547.532.302 1.042.296 1.558-.004" fill="#fff"/></g><defs><clipPath id="a"><path fill="#fff" d="M0 0H36V36H0z"/></clipPath></defs></svg>