<svg width="33" height="33" fill="none" xmlns="http://www.w3.org/2000/svg"><path d="M16.916 32.828h-.973a.39.39 0 00-.136-.02 17.688 17.688 0 01-1.547-.137 15.974 15.974 0 01-2.812-.626 16.495 16.495 0 01-4.392-2.165 16.3 16.3 0 01-3.34-3.091 16.158 16.158 0 01-2.664-4.622A16.089 16.089 0 01.045 17.51a.823.823 0 00-.045-.26v-1.694a.746.746 0 00.045-.231 16.192 16.192 0 011.74-6.357 16.463 16.463 0 014.849-5.743 16.278 16.278 0 015.46-2.66c.965-.263 1.951-.436 2.949-.519.177-.016.363 0 .54-.045h1.666c.127.037.26.016.387.029.66.057 1.316.14 1.967.268A16.22 16.22 0 0125.31 2.6a16.393 16.393 0 013.621 3.17A16.12 16.12 0 0131.079 9a16.069 16.069 0 011.469 4.324c.148.8.26 1.608.263 2.424 0 .054.013.112.017.165v.973c-.017.062-.017.128-.02.194 0 .156 0 .313-.013.47a17.142 17.142 0 01-.479 2.956 16.26 16.26 0 01-2.297 5.083 16.42 16.42 0 01-6.215 5.47 16.201 16.201 0 01-6.383 1.719c-.163.019-.336.015-.505.05z" fill="#383838"/><path style="mix-blend-mode:lighten" d="M12.145 9.603c-.012.302.042.632.13.961.17.628.45 1.203.781 1.746.754 1.235 1.704 2.292 2.735 3.274.084.08.184.149.292.2a.362.362 0 00.327.009.852.852 0 00.285-.206c.357-.37.71-.74 1.05-1.122.476-.543.93-1.102 1.342-1.701a8.82 8.82 0 00.953-1.734c.246-.615.366-1.25.285-1.918-.135-1.102-.584-2.035-1.388-2.767-.951-.864-2.058-1.21-3.304-1.017-2.027.314-3.496 2.18-3.488 4.275z" fill="url(#a)"/><path d="M22.633 24.62a3.56 3.56 0 01-.828-.085c-.847-.185-1.566-.57-2.12-1.253a7.777 7.777 0 01-.862-1.343 14.124 14.124 0 01-.735-1.732 18.838 18.838 0 01-.638-2.18c-.093-.412.011-.67.468-.813a21.24 21.24 0 011.76-.474c.986-.216 1.98-.355 2.994-.321.286.011.572.042.855.092.82.143 1.516.521 2.084 1.119.971 1.018 1.358 2.233 1.118 3.619-.344 1.979-2.1 3.386-4.096 3.37z" fill="url(#b)"/><path d="M9.86 24.62c.255.007.542-.024.828-.085.847-.185 1.566-.57 2.12-1.253.336-.417.619-.868.862-1.343.287-.56.526-1.142.735-1.732.255-.713.472-1.442.638-2.18.093-.412-.011-.67-.468-.813a21.249 21.249 0 00-1.76-.474c-.986-.216-1.98-.355-2.994-.321a6.365 6.365 0 00-.855.092 3.688 3.688 0 00-2.084 1.119c-.971 1.018-1.358 2.233-1.118 3.619.344 1.979 2.1 3.386 4.096 3.37z" fill="url(#c)"/><defs><radialGradient id="a" cx="0" cy="0" r="1" gradientUnits="userSpaceOnUse" gradientTransform="matrix(4.3434 .36645 -.67738 8.0288 16.326 15.28)"><stop stop-color="#fff"/><stop offset="1" stop-color="#009BD8"/></radialGradient><radialGradient id="b" cx="0" cy="0" r="1" gradientUnits="userSpaceOnUse" gradientTransform="rotate(21.776 -37.474 54.285) scale(9.61212 5.13649)"><stop stop-color="#fff"/><stop offset="1" stop-color="#FF3044"/></radialGradient><radialGradient id="c" cx="0" cy="0" r="1" gradientUnits="userSpaceOnUse" gradientTransform="rotate(146.321 4.851 10.98) scale(9.71373 4.4154)"><stop stop-color="#fff"/><stop offset="1" stop-color="#FCFF7C"/></radialGradient></defs></svg>