<svg width="66" height="66" fill="none" xmlns="http://www.w3.org/2000/svg"><path d="M60 0H6C2.685 0 0 2.685 0 6v54c0 3.315 2.685 6 6 6h54c3.315 0 6-2.685 6-6V6a6 6 0 00-6-6zm-3.933 28.422c-.39.036-.783.06-1.179.06-4.485 0-8.427-2.304-10.722-5.793V42.42c0 8.055-6.531 14.583-14.583 14.583C21.531 57 15 50.469 15 42.417c0-8.055 6.531-14.583 14.583-14.583.306 0 .603.027.9.045v7.188c-.3-.036-.591-.09-.9-.09a7.444 7.444 0 000 14.886c4.113 0 7.743-3.24 7.743-7.35l.072-33.51h6.867c.645 6.141 5.604 10.989 11.802 11.433v7.986z" fill="#000"/></svg>