<svg width="90" height="90" fill="none" xmlns="http://www.w3.org/2000/svg"><path d="M45 6C23.496 6 6 23.496 6 45s17.496 39 39 39 39-17.496 39-39S66.504 6 45 6zM34.998 18h19.998C64.371 18 72 25.626 72 34.998v19.998C72 64.371 64.374 72 55.002 72H35.004C25.629 72 18 64.374 18 55.002V35.004C18 25.629 25.626 18 34.998 18zm0 6C28.935 24 24 28.938 24 35.004v19.998C24 61.065 28.938 66 35.004 66h19.998C61.065 66 66 61.062 66 54.996V34.998C66 28.935 61.062 24 54.996 24H34.998zm24.006 4.998c1.104 0 1.998.894 1.998 1.998A2.002 2.002 0 0159.004 33C57.9 33 57 32.1 57 30.996s.9-1.998 2.004-1.998zM45 30c8.271 0 15 6.729 15 15s-6.729 15-15 15-15-6.729-15-15 6.729-15 15-15zm0 6a9 9 0 100 18 9 9 0 000-18z" fill="#000"/></svg>