<svg width="90" height="90" fill="none" xmlns="http://www.w3.org/2000/svg"><path d="M72 12H18c-3.315 0-6 2.685-6 6v54c0 3.315 2.685 6 6 6h54c3.315 0 6-2.685 6-6V18c0-3.315-2.685-6-6-6zM32.862 66h-8.85V37.524h8.85V66zm-4.515-32.547a5.16 5.16 0 110-10.317 5.162 5.162 0 015.157 5.157 5.163 5.163 0 01-5.157 5.16zM66.012 66h-8.844V52.152c0-3.303-.06-7.551-4.599-7.551-4.605 0-5.313 3.597-5.313 7.311V66h-8.844V37.524h8.49v3.891h.12c1.182-2.238 4.068-4.599 8.373-4.599 8.961 0 10.617 5.898 10.617 13.566V66z" fill="#000"/></svg>