<svg width="60" height="60" fill="none" xmlns="http://www.w3.org/2000/svg"><path d="M60 59.249V15.886L42.857 7.315l-1.881-1.089c-.532-.883-1.136-1.723-1.886-2.469-5.014-5.01-13.166-5.01-18.18 0a12.797 12.797 0 00-3.767 9.095c0 .317.068.625.09.938L0 5.172v43.363l17.143 8.571 2.044 1.02 2.242-.891 19.187-7.676L60 59.249zm-4.286-40.714v33.78l-12.857-6.429v-33.78l12.857 6.429zM23.94 6.787c3.339-3.338 8.781-3.338 12.12 0a8.571 8.571 0 011.817 2.696l.086.214c.03.073.043.15.068.223.159.438.3.879.386 1.329.099.523.154 1.058.154 1.603 0 2.288-.891 4.44-2.511 6.06L30 24.972l-6.06-6.06a8.736 8.736 0 01-1.08-1.316c-.056-.086-.09-.18-.141-.261a8.491 8.491 0 01-.652-1.235 8.573 8.573 0 01-.638-3.248c0-2.289.891-4.444 2.511-6.065zm-19.654 39.1v-33.78l12.857 6.428v33.78L4.286 45.886zM21.429 22.46L30 31.032l8.571-8.572v23.302L21.43 52.619V22.46z" fill="#000"/><path d="M30 14.763a2.679 2.679 0 100-5.357 2.679 2.679 0 000 5.357z" fill="#000"/></svg>