<svg width="32" height="32" fill="none" xmlns="http://www.w3.org/2000/svg"><path d="M24.5 0h-17A7.5 7.5 0 000 7.5v17A7.5 7.5 0 007.5 32h17a7.5 7.5 0 007.5-7.5v-17A7.5 7.5 0 0024.5 0z" fill="#242938"/><mask id="a" style="mask-type:luminance" maskUnits="userSpaceOnUse" x="7" y="3" width="18" height="26"><path d="M24.295 3.5H7.625v25h16.67v-25z" fill="#fff"/></mask><g mask="url(#a)"><path d="M11.794 28.5c2.3 0 4.166-1.867 4.166-4.167v-4.166h-4.166a4.168 4.168 0 00-4.167 4.166c0 2.3 1.867 4.167 4.167 4.167z" fill="#0ACF83"/><path d="M7.627 16c0-2.3 1.867-4.167 4.167-4.167h4.166v8.334h-4.166A4.168 4.168 0 017.627 16z" fill="#A259FF"/><path d="M7.627 7.667c0-2.3 1.867-4.167 4.167-4.167h4.166v8.333h-4.166a4.168 4.168 0 01-4.167-4.166z" fill="#F24E1E"/><path d="M15.96 3.5h4.167c2.3 0 4.166 1.867 4.166 4.167s-1.866 4.166-4.166 4.166H15.96V3.5z" fill="#FF7262"/><path d="M24.293 16c0 2.3-1.866 4.167-4.166 4.167A4.168 4.168 0 0115.96 16c0-2.3 1.867-4.167 4.167-4.167S24.293 13.7 24.293 16z" fill="#1ABCFE"/></g></svg>