<svg width="1920" height="1080" fill="none" xmlns="http://www.w3.org/2000/svg"><g clip-path="url(#a)"><path fill="#fff" d="M0 0H1920V1080H0z"/><path d="M503.541 489.824v71.901h35.95c4.927 0 9.562-.919 13.904-2.756 4.343-1.921 8.142-4.51 11.399-7.767 3.257-3.256 5.804-7.056 7.641-11.398 1.921-4.426 2.881-9.103 2.881-14.03s-.96-9.562-2.881-13.904c-1.837-4.426-4.384-8.267-7.641-11.524-3.257-3.257-7.056-5.804-11.399-7.641-4.342-1.921-8.977-2.881-13.904-2.881h-35.95zm0 143.676h-35.95V453.873h71.9c6.597 0 12.944.877 19.04 2.631 6.096 1.67 11.775 4.092 17.036 7.265a67.832 67.832 0 0114.53 11.274 67.832 67.832 0 0111.274 14.53 69.347 69.347 0 017.265 17.161c1.754 6.096 2.631 12.443 2.631 19.04 0 6.18-.794 12.192-2.38 18.038a70.101 70.101 0 01-6.639 16.66c-2.839 5.261-6.347 10.104-10.522 14.53a71.676 71.676 0 01-14.03 11.525l19.917 46.973h-38.205l-15.658-36.201-40.209.251v35.95zm407.98-71.775v-35.951c0-4.927-.96-9.562-2.881-13.904-1.837-4.426-4.384-8.267-7.641-11.524-3.257-3.257-7.098-5.804-11.524-7.641-4.342-1.921-8.977-2.881-13.904-2.881s-9.604.96-14.03 2.881c-4.342 1.837-8.142 4.384-11.398 7.641-3.257 3.257-5.846 7.098-7.767 11.524-1.837 4.342-2.756 8.977-2.756 13.904v35.951h71.901zm35.951 71.775h-35.951v-35.95H839.62v35.95h-35.825V525.774c0-9.937 1.879-19.249 5.637-27.933 3.758-8.769 8.852-16.41 15.282-22.923 6.514-6.514 14.113-11.65 22.798-15.408 8.768-3.758 18.121-5.637 28.059-5.637 9.937 0 19.249 1.879 27.933 5.637 8.769 3.758 16.41 8.894 22.923 15.408 6.514 6.513 11.65 14.154 15.408 22.923 3.758 8.684 5.637 17.996 5.637 27.933V633.5z" fill="#FFC019"/><path d="M778.618 579.637c0 7.432-1.42 14.405-4.259 20.919-2.84 6.514-6.723 12.234-11.65 17.161-4.843 4.843-10.522 8.685-17.035 11.524-6.514 2.839-13.487 4.259-20.919 4.259h-89.814V453.873h89.814c7.432 0 14.405 1.42 20.919 4.259 6.513 2.84 12.192 6.723 17.035 11.65 4.927 4.843 8.81 10.522 11.65 17.035 2.839 6.514 4.259 13.487 4.259 20.919 0 3.341-.46 6.765-1.378 10.272a49.898 49.898 0 01-3.883 10.146 43.81 43.81 0 01-6.013 8.894c-2.338 2.672-4.927 4.885-7.766 6.639 2.922 1.586 5.553 3.758 7.891 6.513a43.797 43.797 0 016.013 8.894 44.531 44.531 0 013.758 10.272c.918 3.507 1.378 6.931 1.378 10.271zM670.892 597.55h53.863c2.505 0 4.843-.46 7.014-1.378 2.172-.919 4.051-2.171 5.637-3.758a17.98 17.98 0 003.883-5.762c.919-2.171 1.378-4.51 1.378-7.015s-.459-4.843-1.378-7.015a16.594 16.594 0 00-3.883-5.636 16.59 16.59 0 00-5.637-3.884c-2.171-.918-4.509-1.377-7.014-1.377h-53.863v35.825zm0-71.776h53.863c2.505 0 4.843-.459 7.014-1.378 2.172-.918 4.051-2.171 5.637-3.758a17.968 17.968 0 003.883-5.762c.919-2.254 1.378-4.634 1.378-7.14 0-2.505-.459-4.843-1.378-7.014a16.588 16.588 0 00-3.883-5.637 16.588 16.588 0 00-5.637-3.883c-2.171-.919-4.509-1.378-7.014-1.378h-53.863v35.95z" fill="#F89F2B"/><g clip-path="url(#b)"><path d="M1399.58 375.573c34.41 88.938-36.81 156.072-158.36 158.919z" fill="#F89F2B"/><path d="M1399.65 375.573c-88.62-34.541-155.52 36.939-158.36 158.919zM1399.58 704.875c34.41-88.938-36.81-156.072-158.36-158.919z" fill="#F89F2B"/><path d="M1399.58 704.875c-88.63 34.541-155.52-36.939-158.36-158.919zM1069.42 704.875c-34.42-88.938 36.81-156.072 158.36-158.919zM1069.42 704.875c88.63 34.541 155.52-36.939 158.36-158.919zM1069.42 375.573c-34.42 88.938 36.81 156.072 158.36 158.919z" fill="#F89F2B"/><path d="M1069.42 375.573c88.63-34.541 155.52 36.939 158.36 158.919z" fill="#F89F2B"/><path d="M1234.5 307.764c-86.98 38.438-83.92 136.442 0 224.78zM1234.5 307.764c86.98 38.438 83.92 136.442 0 224.78zM1234.5 772.609c-86.98-38.438-83.92-136.442 0-224.78zM1234.5 772.609c86.98-38.438 83.92-136.442 0-224.78zM1469.53 540.111c-38.3-87.289-135.95-84.217-223.98 0zM1469.53 540.112c-38.3 87.289-135.95 84.217-223.98 0zM999.466 540.111c38.304-87.289 135.954-84.217 223.984 0zM999.466 540.112c38.304 87.289 135.954 84.217 223.984 0z" fill="#FFB759"/><g filter="url(#c)"><path d="M1201.05 654.974c-28.82-51.625-28-101.75 13.59-127.525 12.39-7.643 28-7.418 40.39.15 40.92 24.875 42.78 72.828 12.32 127-14.48 25.775-51.89 26.224-66.3.375z" fill="#F59E2D"/><path d="M1226.21 675.279c2.76.524 5.45.824 8.07.824 2.46 0 4.92-.225 7.46-.749l-7.76 11.314-7.77-11.389z" fill="#1D1D1B"/><path d="M1232.26 680.823h3.58l-1.79 3.222-1.79-3.296m16.5-10.34c-5 2.472-9.71 3.671-14.48 3.671-4.78 0-9.64-1.274-15.01-3.671.07 8.317 5.37 17.383 14.71 26.973 7.76-6.219 12.47-15.36 14.71-26.973h.07zM1287.96 580.797c-35.24 17.757-71.6 17.083-106.47-.6l2.69-29.296c34.87 22.028 66.52 22.178 101.76 0l2.02 29.896zM1276.31 637.591c-33.97 15.435-50.17 15.51-83.77.15-3.88-8.692-6.87-18.132-9.03-28.173 33.59 19.107 68.09 19.256 102.13 0-2.01 8.617-5.3 18.058-9.26 28.023h-.07z" fill="#1D1D1B"/><path d="M1234.5 519.731c42.03 8.917 109.23-16.034 142.15 41.809 6.65 11.689 5.31 34.167-1.86 43.308-49.73 63.463-97.51-43.308-140.29-85.117z" fill="#fff" stroke="#fff" stroke-width="2.611" stroke-miterlimit="10"/><path d="M1234.87 519.731c-42.03 8.917-109.23-16.034-142.15 41.809-6.65 11.689-5.3 34.167 1.86 43.308 49.73 63.463 97.51-43.308 140.29-85.117z" fill="#fff" stroke="#fff" stroke-width="2.481" stroke-miterlimit="10"/><path d="M1234.5 522.054c-47.63 0-47.63-67.134 0-67.134 47.41 0 48.31 67.134 0 67.134z" fill="#1D1D1B"/><path d="M1278.92 445.329c-13.21-8.167-22.4 1.199-30.16 16.934M1190 445.329c13.22-8.167 22.4 1.199 30.16 16.934" stroke="#1D1D1B" stroke-width="3.917" stroke-miterlimit="10" stroke-linecap="round"/></g></g><path d="M1757.83 104.149l52.87-31.16 54.54 30.185 1.68 61.346-52.87 31.16-54.55-30.185-1.67-61.346z" fill="url(#d)"/><path d="M1814.63 3.447l52.87-31.16 54.55 30.185 1.67 61.346-52.87 31.16-54.54-30.185-1.68-61.346z" fill="url(#e)"/><path d="M1933.41 2.802l52.87-31.16 54.54 30.185 1.68 61.345-52.87 31.16-54.55-30.185-1.67-61.345z" fill="#F89F2B"/><path d="M1580.22-2.592l52.86-31.16 54.55 30.186 1.68 61.346-52.87 31.16-54.55-30.186-1.67-61.346z" fill="#FFC019" fill-opacity=".6"/><path d="M1639.05 102.858l52.87-31.16 54.54 30.185 1.68 61.346-52.87 31.16-54.54-30.186-1.68-61.345z" fill="#FFC019" fill-opacity=".8"/><path d="M1464.76 63.48l52.87-31.16 54.54 30.186 1.68 61.346-52.87 31.16-54.55-30.185-1.67-61.346z" fill="#FFC019" fill-opacity=".4"/><path d="M1697.79 3.447l52.87-31.16 54.55 30.185 1.67 61.346-52.87 31.16-54.54-30.185-1.68-61.346z" fill="#FFC019" fill-opacity=".8"/><path d="M1875.96 104.149l52.87-31.16 54.54 30.185 1.68 61.346-52.87 31.16-54.55-30.185-1.67-61.346z" fill="#F89F2B"/><path d="M1400 99.4l36.37 21v42l-36.37 21-36.37-21v-42l36.37-21z" fill="#FFC019" fill-opacity=".4"/><path d="M271.294 982.255l53.42 30.205 1.131 62.33-52.289 32.12-53.42-30.2-1.131-62.33 52.289-32.125zM156.605 979.428l53.42 30.202 1.131 62.33-52.289 32.13-53.42-30.21-1.131-62.33 52.289-32.122zM100.207 1080.57l53.421 30.2 1.131 62.33-52.29 32.12-53.42-30.2-1.13-62.33 52.288-32.12z" fill="#F89F2B"/><path d="M41.465 978.82l53.42 30.21 1.13 62.33-52.288 32.12-53.42-30.21-1.132-62.33 52.29-32.12z" fill="url(#f)"/><path d="M38.817 775.833l53.42 30.206 1.131 62.33-52.289 32.124-53.42-30.206-1.131-62.33 52.29-32.124z" fill="#FFC019" fill-opacity=".8"/><path d="M97.73 878.331l53.42 30.206 1.131 62.33-52.289 32.123-53.42-30.205-1.131-62.33 52.29-32.124z" fill="url(#g)"/><path d="M-18.615 876.927l53.42 30.206 1.131 62.33-52.29 32.127-53.42-30.209-1.13-62.33 52.289-32.124z" fill="#FFC019" fill-opacity=".8"/><path d="M215.261 1079.73l53.42 30.21 1.131 62.33-52.289 32.12-53.42-30.2-1.131-62.33 52.289-32.13z" fill="#F89F2B"/><path d="M3.012 710.373v42l-36.373 21-36.373-21v-42l36.373-21 36.373 21z" fill="#FFC019" fill-opacity=".4"/></g><defs><linearGradient id="d" x1="1741.15" y1="134.274" x2="1883.54" y2="131.854" gradientUnits="userSpaceOnUse"><stop stop-color="#FFC019"/><stop offset="1" stop-color="#F89F2B"/></linearGradient><linearGradient id="e" x1="1797.96" y1="33.573" x2="1940.35" y2="31.152" gradientUnits="userSpaceOnUse"><stop stop-color="#FFC019"/><stop offset="1" stop-color="#F89F2B"/></linearGradient><linearGradient id="f" x1="7.039" y1="979.445" x2="80.33" y2="1101.55" gradientUnits="userSpaceOnUse"><stop stop-color="#FFC019"/><stop offset="1" stop-color="#F89F2B"/></linearGradient><linearGradient id="g" x1="63.305" y1="878.956" x2="136.596" y2="1001.06" gradientUnits="userSpaceOnUse"><stop stop-color="#FFC019"/><stop offset="1" stop-color="#F89F2B"/></linearGradient><clipPath id="a"><path fill="#fff" d="M0 0H1920V1080H0z"/></clipPath><clipPath id="b"><path fill="#fff" transform="translate(999.466 307.764)" d="M0 0H470.067V464.471H0z"/></clipPath><filter id="c" x="1087.16" y="440.358" width="295.115" height="270.082" filterUnits="userSpaceOnUse" color-interpolation-filters="sRGB"><feFlood flood-opacity="0" result="BackgroundImageFix"/><feColorMatrix in="SourceAlpha" values="0 0 0 0 0 0 0 0 0 0 0 0 0 0 0 0 0 0 127 0" result="hardAlpha"/><feOffset dy="13.057"/><feComposite in2="hardAlpha" operator="out"/><feColorMatrix values="0 0 0 0 0 0 0 0 0 0 0 0 0 0 0 0 0 0 0.19 0"/><feBlend in2="BackgroundImageFix" result="effect1_dropShadow_4752_244"/><feBlend in="SourceGraphic" in2="effect1_dropShadow_4752_244" result="shape"/></filter></defs></svg>