<svg width="32" height="26" fill="none" xmlns="http://www.w3.org/2000/svg"><path d="M12.557 14.402c.116-2.076 1.133-3.905 2.666-5.201 1.504-1.274 3.529-2.052 5.738-2.052 2.207 0 4.231.778 5.736 2.052 1.533 1.296 2.55 3.125 2.667 5.2.116 2.132-.741 4.114-2.245 5.583-1.534 1.494-3.715 2.432-6.158 2.432-2.443 0-4.629-.938-6.161-2.432-1.506-1.469-2.36-3.45-2.243-5.582z" fill="#fff"/><path d="M16.65 14.588c.06-1.066.58-2.004 1.368-2.67a4.556 4.556 0 012.944-1.052c1.132 0 2.17.4 2.943 1.053.787.665 1.308 1.603 1.369 2.667.06 1.095-.38 2.112-1.152 2.866-.787.766-1.907 1.247-3.16 1.247-1.254 0-2.375-.48-3.162-1.247-.772-.754-1.21-1.771-1.15-2.864z" fill="#265787"/><path d="M9.803 16.776c.008.418.141 1.23.34 1.864a9.831 9.831 0 002.125 3.677 10.974 10.974 0 003.717 2.67A11.947 11.947 0 0020.865 26a11.956 11.956 0 004.878-1.03 11.05 11.05 0 003.714-2.68 9.913 9.913 0 002.123-3.685 9.32 9.32 0 00.4-2.056 9.494 9.494 0 00-1.42-5.749 10.34 10.34 0 00-2.472-2.724l.002-.002L18.093.397c-.009-.007-.016-.014-.026-.02-.656-.504-1.76-.502-2.48.003-.73.51-.813 1.354-.164 1.886l-.003.003 4.17 3.391-12.71.014h-.017c-1.051 0-2.06.69-2.26 1.561-.206.888.507 1.624 1.6 1.628l-.002.004 6.442-.013L1.146 17.68l-.044.032c-1.084.83-1.435 2.212-.752 3.086.693.888 2.168.89 3.263.005l6.275-5.135s-.092.693-.085 1.109zm16.123 2.321c-1.293 1.317-3.103 2.064-5.061 2.068-1.961.004-3.771-.736-5.064-2.051a6.02 6.02 0 01-1.382-2.164 5.707 5.707 0 01.375-4.693 6.273 6.273 0 011.538-1.828c1.257-1.024 2.857-1.579 4.53-1.58 1.675-.003 3.274.546 4.532 1.567a6.247 6.247 0 011.536 1.823 5.71 5.71 0 01.695 2.274 5.633 5.633 0 01-.318 2.416 6.05 6.05 0 01-1.38 2.168z" fill="#EA7600"/></svg>