<svg width="32" height="34" fill="none" xmlns="http://www.w3.org/2000/svg"><path d="M30.833 13.695c0-2.037-2.55-3.967-6.462-5.164.903-3.987.502-7.158-1.266-8.174-.408-.238-.884-.35-1.404-.35v1.397c.288 0 .52.056.714.163.853.489 1.223 2.35.934 4.745-.069.589-.181 1.21-.32 1.842a30.38 30.38 0 00-3.98-.683 30.575 30.575 0 00-2.607-3.134c2.043-1.899 3.962-2.94 5.265-2.94V0c-1.724 0-3.98 1.229-6.261 3.36C13.164 1.24 10.908.025 9.184.025v1.398c1.297 0 3.222 1.034 5.265 2.92a29.59 29.59 0 00-2.589 3.128c-1.416.15-2.758.383-3.986.69a18.906 18.906 0 01-.326-1.818c-.294-2.394.069-4.256.915-4.751.188-.113.433-.163.721-.163V.031c-.527 0-1.003.113-1.417.351-1.76 1.016-2.156 4.181-1.247 8.155C2.621 9.74.083 11.664.083 13.695c0 2.037 2.551 3.968 6.462 5.165-.902 3.986-.501 7.158 1.266 8.173.408.238.884.351 1.41.351 1.724 0 3.98-1.228 6.262-3.36 2.282 2.12 4.538 3.335 6.262 3.335.526 0 1.003-.113 1.416-.35 1.761-1.016 2.156-4.181 1.248-8.155 3.886-1.197 6.424-3.128 6.424-5.159zm-8.16-4.18c-.232.808-.52 1.642-.847 2.475a29.63 29.63 0 00-.82-1.504c-.29-.501-.596-.99-.903-1.467.89.132 1.748.295 2.57.496zm-2.871 6.675c-.49.846-.99 1.648-1.51 2.394a32.646 32.646 0 01-5.654.006 34.498 34.498 0 01-1.517-2.381 32.653 32.653 0 01-1.304-2.495 33.384 33.384 0 012.808-4.895 32.61 32.61 0 015.654-.006 32.661 32.661 0 012.82 4.876c-.395.84-.827 1.68-1.297 2.5zm2.024-.815a26.9 26.9 0 01.865 2.495c-.82.2-1.686.37-2.582.501.307-.482.614-.978.902-1.485.289-.502.558-1.01.815-1.51zm-6.355 6.688a25.835 25.835 0 01-1.743-2.006c.564.025 1.14.044 1.724.044.589 0 1.172-.012 1.742-.044-.538.7-1.113 1.369-1.723 2.006zm-4.664-3.692a28.262 28.262 0 01-2.57-.495c.232-.809.52-1.642.847-2.476.257.502.526 1.003.82 1.504.295.502.596.99.903 1.467zM15.44 5.328a25.834 25.834 0 011.743 2.005 38.8 38.8 0 00-1.724-.043c-.59 0-1.172.012-1.742.043.538-.699 1.113-1.368 1.723-2.005zm-4.638 3.691a34.628 34.628 0 00-1.717 2.99c-.33-.817-.618-1.65-.865-2.494a30.431 30.431 0 012.582-.496zm-5.672 7.848c-2.22-.947-3.655-2.188-3.655-3.172s1.436-2.231 3.655-3.171a19.285 19.285 0 011.736-.633 30.111 30.111 0 001.41 3.817 29.673 29.673 0 00-1.391 3.798c-.62-.194-1.21-.407-1.755-.64zM8.5 25.824c-.853-.49-1.223-2.35-.934-4.745.069-.59.182-1.21.32-1.843 1.228.3 2.57.533 3.98.683a30.558 30.558 0 002.607 3.134c-2.043 1.9-3.961 2.94-5.265 2.94-.282-.006-.52-.063-.708-.17zm14.867-4.777c.295 2.395-.069 4.256-.915 4.752-.188.112-.432.163-.72.163-1.298 0-3.223-1.035-5.266-2.921a29.612 29.612 0 002.589-3.128 29.269 29.269 0 003.986-.69c.144.634.257 1.242.326 1.825zm2.413-4.18c-.539.232-1.128.439-1.736.633a30.11 30.11 0 00-1.41-3.817 29.657 29.657 0 001.391-3.799c.62.195 1.21.408 1.762.64 2.218.946 3.654 2.187 3.654 3.171-.007.984-1.442 2.232-3.66 3.172z" fill="#61DAFB"/><path d="M15.452 16.56a2.864 2.864 0 100-5.73 2.864 2.864 0 000 5.73zM1.479 32.316H.534v1.629H0v-4.026h1.333c.453 0 .801.103 1.045.31.245.206.367.507.367.901 0 .25-.068.47-.204.655a1.204 1.204 0 01-.564.418l.945 1.708v.034h-.57l-.873-1.629zm-.945-.434h.815c.264 0 .473-.068.628-.205a.69.69 0 00.235-.547c0-.249-.075-.44-.224-.572-.148-.133-.361-.2-.642-.202H.534v1.526zM4.654 34c-.406 0-.736-.133-.99-.398-.255-.267-.382-.624-.382-1.07v-.094c0-.297.056-.561.168-.794.115-.234.273-.416.476-.547.205-.133.426-.2.664-.2.389 0 .69.129.906.385.216.256.324.623.324 1.1v.213H3.793c.008.295.093.534.257.717a.82.82 0 00.63.27.89.89 0 00.46-.11c.125-.074.235-.172.329-.293l.312.243c-.25.385-.626.578-1.128.578zm-.064-2.682a.68.68 0 00-.52.227c-.14.15-.227.36-.26.63h1.498v-.038c-.014-.26-.084-.461-.21-.603a.64.64 0 00-.508-.216zm3.671 2.627a1.068 1.068 0 01-.072-.316c-.238.247-.521.371-.851.371-.295 0-.537-.083-.727-.249a.816.816 0 01-.282-.636c0-.311.118-.553.354-.724.237-.173.57-.26 1-.26h.498v-.235a.57.57 0 00-.16-.426c-.107-.107-.265-.16-.473-.16a.745.745 0 00-.459.138c-.124.092-.185.204-.185.335h-.515c0-.15.053-.294.158-.432.107-.14.25-.25.431-.332.183-.08.383-.121.6-.121.345 0 .615.086.81.26.196.171.297.408.304.71v1.377c0 .275.036.493.106.655v.045H8.26zm-.849-.39c.16 0 .313-.042.457-.125a.754.754 0 00.312-.323v-.614h-.4c-.628 0-.941.183-.941.55 0 .16.054.286.16.376.107.09.245.136.412.136zm3.282.028a.737.737 0 00.478-.166.583.583 0 00.227-.415h.484a.927.927 0 01-.177.49 1.162 1.162 0 01-.437.37c-.18.092-.372.138-.575.138-.407 0-.732-.136-.973-.407-.24-.272-.36-.645-.36-1.117v-.085c0-.291.054-.55.16-.777.108-.227.26-.403.46-.528.2-.126.438-.188.71-.188.336 0 .614.1.835.301.223.201.342.462.357.783H11.4a.697.697 0 00-.708-.664c-.26 0-.461.094-.605.282-.142.186-.213.456-.213.81v.097c0 .345.071.61.213.796.142.186.345.28.608.28zm2.458-3.354v.724h.559v.396h-.559v1.855c0 .12.025.21.075.27.05.06.134.09.254.09.059 0 .14-.012.243-.034v.415a1.48 1.48 0 01-.392.055c-.229 0-.401-.07-.517-.207-.116-.139-.174-.335-.174-.59v-1.855h-.545v-.395h.545v-.724h.511zm5.737 3.716h-.534l-2.026-3.102v3.102h-.534v-4.026h.534l2.032 3.116v-3.116h.528v4.026zm2.71 0a1.065 1.065 0 01-.072-.316c-.238.247-.522.371-.852.371-.295 0-.537-.083-.727-.249a.816.816 0 01-.282-.636c0-.311.118-.553.354-.724.238-.173.571-.26 1-.26h.498v-.235a.57.57 0 00-.16-.426c-.107-.107-.265-.16-.473-.16a.745.745 0 00-.459.138c-.123.092-.185.204-.185.335h-.514c0-.15.052-.294.157-.432.107-.14.251-.25.432-.332.182-.08.382-.121.6-.121.344 0 .614.086.81.26.195.171.296.408.304.71v1.377c0 .275.035.493.105.655v.045h-.536zm-.85-.39c.161 0 .313-.042.457-.125a.753.753 0 00.312-.323v-.614h-.4c-.627 0-.94.183-.94.55 0 .16.053.286.16.376.107.09.244.136.412.136zm2.777-3.326v.724h.558v.396h-.558v1.855c0 .12.024.21.074.27.05.06.135.09.255.09.058 0 .14-.012.243-.034v.415a1.483 1.483 0 01-.393.055c-.228 0-.4-.07-.517-.207-.116-.139-.174-.335-.174-.59v-1.855h-.544v-.395h.544v-.724h.512zm1.714 3.716h-.512v-2.992h.512v2.992zm-.553-3.785c0-.083.025-.153.075-.21.051-.058.127-.086.226-.086.1 0 .175.028.227.085a.303.303 0 01.077.21.293.293 0 01-.077.208c-.052.055-.127.083-.227.083s-.175-.028-.226-.083a.298.298 0 01-.075-.207zm2.361 3.09l.74-2.297h.523l-1.072 2.992h-.39l-1.084-2.992h.523l.76 2.298zm2.958.75c-.405 0-.735-.133-.99-.398-.254-.267-.381-.624-.381-1.07v-.094c0-.297.056-.561.169-.794.114-.234.272-.416.475-.547.205-.133.426-.2.664-.2.388 0 .69.129.906.385.216.256.324.623.324 1.1v.213h-2.027c.008.295.093.534.258.717.165.18.376.27.63.27.18 0 .334-.036.459-.11.125-.074.235-.172.329-.293l.312.243c-.25.385-.626.578-1.128.578zm-.063-2.682a.68.68 0 00-.52.227c-.14.15-.227.36-.26.63h1.498v-.038c-.014-.26-.084-.461-.21-.603a.64.64 0 00-.508-.216z" fill="#61DAFB"/></svg>