<svg width="1920" height="1080" viewBox="0 0 1920 1080" fill="none" xmlns="http://www.w3.org/2000/svg">
<rect width="1920" height="1080" fill="#589772"/>
<path d="M1163.13 793.164C1137.67 793.164 1118.3 786.438 1105.03 772.985C1091.75 759.532 1085.11 739.807 1085.11 713.81V598.457H1110.48V712.992C1110.48 732.444 1114.94 746.988 1123.85 756.623C1132.76 766.076 1145.85 770.803 1163.13 770.803C1180.41 770.803 1193.5 766.076 1202.41 756.623C1211.32 746.988 1215.78 732.444 1215.78 712.992V598.457H1240.87V713.81C1240.87 739.807 1234.24 759.532 1220.96 772.985C1207.87 786.438 1188.59 793.164 1163.13 793.164ZM1286 790.71V598.457H1408.75V619.182H1310.55V682.722H1403.02V703.447H1310.55V769.985H1408.75V790.71H1286Z" fill="#F0F7F4"/>
<path d="M556.83 779.348V627.999H495.682V619.137H627.526V627.999H566.377V779.348H556.83ZM614.51 779.348L683.387 619.137H692.48L761.357 779.348H751.128L731.124 732.989L737.261 735.035H638.151L644.516 732.989L624.739 779.348H614.51ZM687.706 632.09L647.017 727.535L642.016 726.172H733.397L728.851 727.535L688.161 632.09H687.706Z" fill="#F0F7F4"/>
<path d="M1012.11 622.111H988.427L800.985 302.13H648.295L925.199 765.372L912.773 792.608L605.101 279.572H631.39V279.406H816.085L908.261 429.784L993.472 279.029H1190.18L1012.11 622.111ZM930.216 442.19L924.727 451.893L1003.69 583.57L1148.67 304.239L1008.19 304.233L930.216 442.19Z" fill="#F0F7F4"/>
</svg>
