<svg width="33" height="33" fill="none" xmlns="http://www.w3.org/2000/svg"><mask id="a" style="mask-type:alpha" maskUnits="userSpaceOnUse" x="0" y="0" width="33" height="33"><path fill-rule="evenodd" clip-rule="evenodd" d="M23.337 32.6a2.046 2.046 0 001.633-.062l6.776-3.26a2.056 2.056 0 001.165-1.854V5.316a2.057 2.057 0 00-1.166-1.853L24.97.203A2.05 2.05 0 0022.632.6L9.661 12.434 4.01 8.146a1.37 1.37 0 00-1.75.077L.447 9.872A1.373 1.373 0 00.447 11.9l4.9 4.47-4.9 4.47a1.372 1.372 0 00.002 2.028l1.812 1.65a1.37 1.37 0 001.75.077l5.65-4.29L22.632 32.14c.2.2.44.358.705.46zm1.35-23.7l-9.841 7.47 9.842 7.471V8.9z" fill="#fff"/></mask><g mask="url(#a)"><path d="M31.746 3.468L24.965.203A2.05 2.05 0 0022.626.6L.427 20.84a1.37 1.37 0 00.002 2.028l1.813 1.649a1.372 1.372 0 001.75.078l26.734-20.28c.896-.68 2.185-.041 2.185 1.085v-.08a2.057 2.057 0 00-1.165-1.852" fill="#0065A9"/><g filter="url(#b)"><path d="M31.746 29.273l-6.781 3.264a2.05 2.05 0 01-2.339-.397L.427 11.9A1.37 1.37 0 01.43 9.872l1.813-1.649a1.372 1.372 0 011.75-.077l26.734 20.28c.896.68 2.185.04 2.185-1.086v.08a2.058 2.058 0 01-1.165 1.852z" fill="#007ACC"/></g><g filter="url(#c)"><path d="M24.965 32.538a2.05 2.05 0 01-2.339-.398c.759.759 2.057.221 2.057-.852V1.452c0-1.073-1.298-1.61-2.057-.852a2.05 2.05 0 012.34-.398l6.779 3.26a2.057 2.057 0 011.166 1.854v22.108a2.057 2.057 0 01-1.166 1.854l-6.78 3.26z" fill="#1F9CF0"/></g><path style="mix-blend-mode:overlay" opacity=".25" fill-rule="evenodd" clip-rule="evenodd" d="M23.317 32.6a2.047 2.047 0 001.633-.062l6.776-3.26a2.056 2.056 0 001.165-1.854V5.316a2.057 2.057 0 00-1.165-1.853L24.95.203A2.05 2.05 0 0022.612.6L9.641 12.434 3.99 8.146a1.37 1.37 0 00-1.75.077L.428 9.872A1.373 1.373 0 00.427 11.9l4.9 4.47-4.9 4.47a1.372 1.372 0 00.001 2.028l1.813 1.649a1.37 1.37 0 001.75.078l5.65-4.289L22.612 32.14c.2.201.44.358.705.46zm1.35-23.7l-9.842 7.47 9.843 7.471V8.9z" fill="url(#d)"/></g><defs><filter id="b" x="-2.763" y="5.125" width="38.416" height="30.358" filterUnits="userSpaceOnUse" color-interpolation-filters="sRGB"><feFlood flood-opacity="0" result="BackgroundImageFix"/><feColorMatrix in="SourceAlpha" values="0 0 0 0 0 0 0 0 0 0 0 0 0 0 0 0 0 0 127 0" result="hardAlpha"/><feOffset/><feGaussianBlur stdDeviation="1.371"/><feColorMatrix values="0 0 0 0 0 0 0 0 0 0 0 0 0 0 0 0 0 0 0.25 0"/><feBlend mode="overlay" in2="BackgroundImageFix" result="effect1_dropShadow_1057_418"/><feBlend in="SourceGraphic" in2="effect1_dropShadow_1057_418" result="shape"/></filter><filter id="c" x="19.883" y="-2.744" width="15.77" height="38.227" filterUnits="userSpaceOnUse" color-interpolation-filters="sRGB"><feFlood flood-opacity="0" result="BackgroundImageFix"/><feColorMatrix in="SourceAlpha" values="0 0 0 0 0 0 0 0 0 0 0 0 0 0 0 0 0 0 127 0" result="hardAlpha"/><feOffset/><feGaussianBlur stdDeviation="1.371"/><feColorMatrix values="0 0 0 0 0 0 0 0 0 0 0 0 0 0 0 0 0 0 0.25 0"/><feBlend mode="overlay" in2="BackgroundImageFix" result="effect1_dropShadow_1057_418"/><feBlend in="SourceGraphic" in2="effect1_dropShadow_1057_418" result="shape"/></filter><linearGradient id="d" x1="16.435" y1="0" x2="16.435" y2="32.741" gradientUnits="userSpaceOnUse"><stop stop-color="#fff"/><stop offset="1" stop-color="#fff" stop-opacity="0"/></linearGradient></defs></svg>