<svg width="40" height="40" fill="none" xmlns="http://www.w3.org/2000/svg"><path d="M20 40c11.046 0 20-8.954 20-20S31.046 0 20 0 0 8.954 0 20s8.954 20 20 20z" fill="#7D2AE7"/><path d="M20 40c11.046 0 20-8.954 20-20S31.046 0 20 0 0 8.954 0 20s8.954 20 20 20z" fill="url(#a)"/><path d="M20 40c11.046 0 20-8.954 20-20S31.046 0 20 0 0 8.954 0 20s8.954 20 20 20z" fill="url(#b)"/><path d="M20 40c11.046 0 20-8.954 20-20S31.046 0 20 0 0 8.954 0 20s8.954 20 20 20z" fill="url(#c)"/><path d="M20 40c11.046 0 20-8.954 20-20S31.046 0 20 0 0 8.954 0 20s8.954 20 20 20z" fill="url(#d)"/><path d="M28.634 24.102c-.165 0-.31.14-.46.444-1.708 3.461-4.656 5.91-8.068 5.91-3.945 0-6.388-3.56-6.388-8.48 0-8.333 4.644-13.152 8.722-13.152 1.905 0 3.07 1.198 3.07 3.104 0 2.261-1.286 3.46-1.286 4.257 0 .358.223.575.665.575 1.774 0 3.857-2.04 3.857-4.92 0-2.793-2.431-4.846-6.51-4.846-6.739 0-12.729 6.249-12.729 14.894 0 6.692 3.822 11.115 9.718 11.115 6.258 0 9.877-6.227 9.877-8.248 0-.448-.229-.653-.468-.653z" fill="#fff"/><defs><radialGradient id="a" cx="0" cy="0" r="1" gradientUnits="userSpaceOnUse" gradientTransform="rotate(-49.416 42.39 9.33) scale(30.9367)"><stop stop-color="#6420FF"/><stop offset="1" stop-color="#6420FF" stop-opacity="0"/></radialGradient><radialGradient id="b" cx="0" cy="0" r="1" gradientUnits="userSpaceOnUse" gradientTransform="rotate(54.703 .9 12.51) scale(34.8868)"><stop stop-color="#00C4CC"/><stop offset="1" stop-color="#00C4CC" stop-opacity="0"/></radialGradient><radialGradient id="c" cx="0" cy="0" r="1" gradientUnits="userSpaceOnUse" gradientTransform="rotate(-45.195 46.453 8.445) scale(30.5621 14.0559)"><stop stop-color="#6420FF"/><stop offset="1" stop-color="#6420FF" stop-opacity="0"/></radialGradient><radialGradient id="d" cx="0" cy="0" r="1" gradientUnits="userSpaceOnUse" gradientTransform="rotate(66.52 4.07 15.165) scale(31.4918 52.756)"><stop stop-color="#00C4CC" stop-opacity=".726"/><stop offset="0" stop-color="#00C4CC"/><stop offset="1" stop-color="#00C4CC" stop-opacity="0"/></radialGradient></defs></svg>