<svg width="1920" height="1080" viewBox="0 0 1920 1080" fill="none" xmlns="http://www.w3.org/2000/svg">
<g clip-path="url(#clip0_1209_9)">
<rect width="1920" height="1080" fill="#FAF2DB"/>
<path d="M983.447 691.079C1109.11 691.079 1210.99 589.206 1210.99 463.539C1210.99 337.873 1109.11 236 983.447 236C857.78 236 755.908 337.873 755.908 463.539C755.908 589.206 857.78 691.079 983.447 691.079Z" fill="#FED853"/>
<path d="M789.184 569.222C802.392 610.466 827.557 647.978 866.892 667.789C882.971 676.56 908.84 681.125 926.555 685.777C947.902 691.174 969.163 694.462 991.113 699.888C992.391 700.147 992.606 702.113 991.357 702.602C980.518 707.526 969.077 710.325 957.449 711.99C918.487 717.316 888.124 708.301 855.781 686.58C825.849 667.344 804.157 636.823 793.749 603.159C790.405 592.234 788.079 581.08 786.514 569.825C786.313 568.217 788.596 567.528 789.17 569.222H789.184Z" fill="black"/>
<path d="M1182.17 570.141C1169.22 609.16 1152.6 650.031 1120.03 677.35C1091.95 701.109 1067.43 709.047 1031.12 709.492C1020.8 709.564 1010.48 709.119 999.712 707.138C998.348 706.923 997.874 704.985 999.037 704.195C1007.87 697.706 1017.2 692.997 1026.49 688.691C1044.36 680.695 1057 684 1080.82 668.736C1108.43 661.443 1129.26 641.029 1146.36 618.778C1158.4 603.245 1168.94 586.147 1179.42 568.892C1179.85 568.174 1180.8 567.93 1181.51 568.375C1182.13 568.748 1182.37 569.48 1182.17 570.141Z" fill="black"/>
<path d="M794.582 569.523C794.582 569.523 825.103 696.4 985.959 696.328C1135.12 696.256 1176.5 569.523 1176.5 569.523H794.582Z" stroke="black" stroke-width="13" stroke-linecap="round" stroke-linejoin="round"/>
<path d="M890.536 702.444C890.536 702.444 884.464 721.81 906.385 724.422C928.306 727.035 1061.37 724.422 1061.37 724.422C1061.37 724.422 1080.68 720.13 1077.03 702.444" fill="black"/>
<path d="M890.536 702.444C890.536 702.444 884.464 721.81 906.385 724.422C928.306 727.035 1061.37 724.422 1061.37 724.422C1061.37 724.422 1080.68 720.13 1077.03 702.444" stroke="black" stroke-miterlimit="10" stroke-linecap="round"/>
<path d="M694.329 660.006C813.698 549.954 915.107 390.246 915.107 390.246C915.107 390.246 926.103 378.029 929.52 353.107C934.731 315.093 968.51 281.874 1005.28 283.467C1044.85 285.176 1059.8 304.498 1075.89 336.498C1080.86 346.374 1096.18 343.589 1111.08 365.338C1111.08 365.338 1081.36 364.678 1065.87 370.305C1064.46 370.822 1063.04 371.282 1061.61 371.727C1055.61 373.579 1038.74 381.158 1042.17 407.358C1045.08 429.681 1071.99 518.587 958.117 573.024C891.161 605.037 839.854 583.403 830.078 591.6C813.382 605.583 703.502 677.606 703.502 677.606C703.502 677.606 673.556 679.171 694.343 660.006H694.329Z" fill="black" stroke="black" stroke-miterlimit="10" stroke-linecap="round"/>
<path d="M866.111 557.563C866.111 557.563 939.871 545.934 982.307 498.919C1012.86 465.082 989.269 430.385 989.269 430.385C1020.67 504.661 866.111 557.577 866.111 557.577V557.563Z" fill="#FED853"/>
<path d="M1148.09 574.986C1148.09 574.986 1170.86 548.765 1223.66 522.9C1245.8 512.056 1224.56 481.356 1201.66 492.336C1163.32 510.718 1111 570.138 1111 570.138L1148.11 575L1148.09 574.986Z" fill="black"/>
<path d="M780.959 836L807.519 774.8H808.159L834.719 836H821.279L804.319 792.96L812.719 787.2L792.399 836H780.959ZM799.119 814.72H816.799L820.879 824.48H795.519L799.119 814.72ZM874.743 791.36C872.503 790.133 870.209 789.12 867.863 788.32C865.569 787.52 863.409 787.12 861.383 787.12C858.876 787.12 856.903 787.627 855.463 788.64C854.023 789.653 853.303 791.173 853.303 793.2C853.303 794.587 853.836 795.84 854.903 796.96C856.023 798.027 857.436 798.987 859.143 799.84C860.903 800.693 862.716 801.467 864.583 802.16C866.289 802.8 867.969 803.573 869.623 804.48C871.329 805.333 872.849 806.427 874.183 807.76C875.516 809.04 876.583 810.667 877.383 812.64C878.183 814.56 878.583 816.933 878.583 819.76C878.583 822.747 877.809 825.52 876.263 828.08C874.716 830.64 872.449 832.72 869.463 834.32C866.476 835.867 862.796 836.64 858.423 836.64C856.183 836.64 853.889 836.427 851.543 836C849.249 835.52 846.983 834.827 844.743 833.92C842.503 832.96 840.343 831.76 838.263 830.32L843.383 821.28C844.769 822.293 846.263 823.2 847.863 824C849.516 824.747 851.169 825.333 852.823 825.76C854.476 826.187 855.996 826.4 857.383 826.4C858.769 826.4 860.156 826.213 861.543 825.84C862.983 825.413 864.156 824.72 865.063 823.76C866.023 822.8 866.503 821.467 866.503 819.76C866.503 818.587 866.103 817.52 865.303 816.56C864.556 815.6 863.516 814.72 862.183 813.92C860.903 813.12 859.489 812.427 857.943 811.84C856.129 811.147 854.263 810.347 852.343 809.44C850.423 808.533 848.609 807.44 846.903 806.16C845.249 804.827 843.889 803.2 842.823 801.28C841.809 799.307 841.303 796.907 841.303 794.08C841.303 790.667 842.049 787.707 843.543 785.2C845.089 782.693 847.249 780.72 850.023 779.28C852.796 777.787 855.996 776.96 859.623 776.8C864.369 776.8 868.209 777.36 871.143 778.48C874.129 779.6 876.796 780.933 879.143 782.48L874.743 791.36ZM883.303 836L909.863 774.8H910.503L937.063 836H923.623L906.663 792.96L915.063 787.2L894.743 836H883.303ZM901.463 814.72H919.143L923.223 824.48H897.863L901.463 814.72ZM945.646 777.12H982.446V788.32H957.246V801.68H979.086V812.88H957.246V836H945.646V777.12ZM1011.46 777.12C1015.14 777.12 1018.42 777.6 1021.3 778.56C1024.18 779.467 1026.58 780.8 1028.5 782.56C1030.47 784.267 1031.96 786.347 1032.98 788.8C1033.99 791.2 1034.5 793.92 1034.5 796.96C1034.5 799.36 1034.12 801.76 1033.38 804.16C1032.68 806.56 1031.51 808.747 1029.86 810.72C1028.26 812.693 1026.12 814.293 1023.46 815.52C1020.79 816.693 1017.48 817.28 1013.54 817.28H1005.22V836H993.615V777.12H1011.46ZM1013.46 806.08C1015.22 806.08 1016.68 805.787 1017.86 805.2C1019.03 804.613 1019.94 803.867 1020.58 802.96C1021.27 802.053 1021.75 801.12 1022.02 800.16C1022.34 799.147 1022.5 798.213 1022.5 797.36C1022.5 796.72 1022.39 795.92 1022.18 794.96C1022.02 793.947 1021.64 792.933 1021.06 791.92C1020.47 790.907 1019.56 790.053 1018.34 789.36C1017.16 788.667 1015.56 788.32 1013.54 788.32H1005.22V806.08H1013.46ZM1024.34 813.28L1038.9 836H1025.38L1010.5 813.6L1024.34 813.28ZM1041.82 836L1068.38 774.8H1069.02L1095.58 836H1082.14L1065.18 792.96L1073.58 787.2L1053.26 836H1041.82ZM1059.98 814.72H1077.66L1081.74 824.48H1056.38L1059.98 814.72ZM1104.16 836V774.72H1104.24L1136.96 821.12L1132 820L1164.64 774.72H1164.8V836H1153.2V800.88L1153.92 806.88L1134 835.2H1133.84L1113.36 806.88L1115.36 801.36V836H1104.16Z" fill="black"/>
<path d="M374 112.5C374 258.027 256.027 376 110.5 376C-35.027 376 -153 258.027 -153 112.5C-153 -33.027 -35.027 -151 110.5 -151C256.027 -151 374 -33.027 374 112.5Z" fill="#F8B000" fill-opacity="0.77"/>
<path d="M2062 949.5C2062 1136.45 1910.45 1288 1723.5 1288C1536.55 1288 1385 1136.45 1385 949.5C1385 762.552 1536.55 611 1723.5 611C1910.45 611 2062 762.552 2062 949.5Z" fill="#FED853" fill-opacity="0.75"/>
<path d="M2062 949.5C2062 1136.45 1910.45 1288 1723.5 1288C1536.55 1288 1385 1136.45 1385 949.5C1385 762.552 1536.55 611 1723.5 611C1910.45 611 2062 762.552 2062 949.5Z" fill="#FED853" fill-opacity="0.75"/>
<path d="M-24.4998 611C-4.49977 493.667 109.3 257.1 334.5 321.5C616 402 761 109 630.5 -71.5" stroke="black" stroke-width="20"/>
<path d="M1065.5 1111.5C977.503 1191.65 737.818 1148.8 600.004 959.411C427.737 722.669 133.088 864.289 124.8 1086.87" stroke="black" stroke-width="20"/>
<path d="M-86 189.201C-9.51649 98.001 208.121 -48.7922 370.033 120.462C572.423 332.029 845.477 152.263 823.914 -69.4248" stroke="black" stroke-width="10"/>
<path d="M1276.28 1160.5C1377.48 1094.39 1748.27 1107.5 1682.28 834.003C1616.28 560.503 1907.38 478.694 2127.78 525.003" stroke="black" stroke-width="10"/>
<path d="M-461.021 595C-442.361 714.436 -331.142 956.09 -104.825 893.257C178.071 814.717 319.88 1114.06 187.059 1295.94" stroke="black" stroke-width="10"/>
<path d="M2328.17 669.682C2286.88 781.317 2131.41 992.847 1921.95 888.032C1660.12 757.013 1463.58 1018.26 1558.57 1219.72" stroke="black" stroke-width="20"/>
<path d="M2041.98 159.62C2004.45 199.448 1903.28 292.931 1801.28 277.662M1801.28 277.662C1713.22 264.478 1643.48 43.3563 1811.9 47.1535C1925.33 49.711 1916.09 237.706 1801.28 277.662ZM1801.28 277.662C1722.67 279.247 1578.32 156.992 1543.1 42.746C1494.47 -114.968 1645.74 -160.089 1577.7 -236.038C1529.63 -289.69 1451.02 -259.833 1427.02 -252.214" stroke="black" stroke-width="20"/>
<path d="M1239.18 -15.5193C1359.77 -23.8945 1677.11 168.343 1752.84 -102.624C1828.57 -373.591 2122.61 -303.084 2292.46 -155.191" stroke="black" stroke-width="10"/>
</g>
<defs>
<clipPath id="clip0_1209_9">
<rect width="1920" height="1080" fill="white"/>
</clipPath>
</defs>
</svg>
