<svg width="25" height="28" fill="none" xmlns="http://www.w3.org/2000/svg"><path d="M2.246 25.201L0 0h24.688l-2.249 25.197L12.329 28 2.246 25.201z" fill="#1572B6"/><path d="M12.344 25.858l8.17-2.265 1.922-21.532H12.344v23.797z" fill="#33A9DC"/><path d="M12.344 11.191h4.09l.282-3.165h-4.372v-3.09h7.75l-.074.828-.759 8.518h-6.917v-3.09z" fill="#fff"/><path d="M12.363 19.218l-.014.004-3.442-.93-.22-2.465H5.584l.433 4.853 6.331 1.758.015-.004v-3.216z" fill="#EBEBEB"/><path d="M16.171 14.15l-.372 4.14-3.447.93v3.216l6.336-1.756.047-.522.537-6.007h-3.1z" fill="#fff"/><path d="M12.355 4.935v3.091H4.89l-.062-.695-.14-1.567-.075-.829h7.743zM12.344 11.19V14.283H8.945l-.062-.695-.14-1.567-.074-.83h3.675z" fill="#EBEBEB"/></svg>