<svg width="1920" height="1080" viewBox="0 0 1920 1080" fill="none" xmlns="http://www.w3.org/2000/svg">
<g clip-path="url(#clip0_1_5)">
<rect width="1920" height="1080" fill="#FAFAFA"/>
<path d="M728.7 445.2C700.8 468 665.1 518.7 638.7 560.1C637.5 569.1 636.3 577.5 634.5 585.3C624.6 629.4 609.3 637.2 598.2 637.2C586.8 637.2 577.5 627.9 577.5 615.3C577.5 606 585.3 590.4 594.9 576.6C599.1 543.9 609.3 491.7 630 440.4C582.9 488.4 533.4 651.9 449.7 651.9C416.7 651.9 397.8 634.2 397.8 612.6C397.8 592.8 412.5 580.5 426.9 580.5C438.9 580.5 448.5 587.1 448.5 595.2C448.5 599.1 439.5 601.2 439.5 613.5C439.5 623.7 447.3 629.1 457.8 629.1C533.7 629.1 594.6 414.3 641.4 414.3C655.5 414.3 666.9 424.5 666.9 436.8C666.9 440.4 666 444.6 664.2 449.4C652.5 482.4 646.8 507 643.2 527.4C677.1 476.1 718.8 420.3 742.2 420.3C752.7 420.3 765.9 429.6 765.9 442.8C765.9 446.4 765.3 450.6 763.2 455.4C751.5 483.6 716.7 546.3 716.7 589.5C716.7 596.7 720.6 606 726.9 606C732.3 606 741.3 604.8 761.7 575.7C762.9 573.9 764.7 573 766.2 573C768.3 573 770.1 574.8 770.1 577.5C770.1 579 769.8 580.8 768.6 582.6C752.1 612.3 732.9 636.6 705.3 636.6C687.9 636.6 675.3 621.6 675.3 597C675.3 554.1 708.3 483.6 728.7 445.2ZM813.898 638.7L815.698 620.1C803.998 630.3 793.198 632.7 784.198 632.7C764.998 632.7 754.798 617.4 754.798 598.8C754.798 585 758.998 565.8 764.998 550.8C772.498 532.2 781.198 516.6 792.298 516.6C803.098 516.6 809.398 524.7 809.398 534.6C809.398 540 806.698 543 802.198 551.4C793.198 568.5 788.998 584.1 788.998 594.3C788.998 603.3 792.598 609 797.998 609C805.798 609 812.098 604.8 818.398 597.9C823.198 562.5 832.798 521.7 858.298 521.7C869.098 521.7 872.098 529.8 872.098 539.7C872.098 555.6 859.198 578.4 848.698 594.6C847.498 618.3 847.198 655.8 834.298 684C824.098 706.2 803.098 720.6 777.598 720.6C752.698 720.6 736.498 705.3 736.498 685.5C736.498 664.2 757.798 648.3 779.998 648.3C786.598 648.3 792.598 650.1 792.598 654.6C792.598 656.1 791.398 657 788.698 658.5C779.098 664.2 767.698 674.1 767.698 687.9C767.698 696.9 773.398 703.8 781.798 703.8C799.198 703.8 809.398 675 813.898 638.7ZM962.857 471.6C962.857 517.2 1053.16 521.4 1053.16 582.6C1053.16 625.5 1010.86 660.3 955.057 660.3C904.957 660.3 874.357 631.8 874.357 601.5C874.357 581.4 888.157 564.6 907.657 564.6C919.357 564.6 928.357 572.4 928.357 578.1C928.357 583.8 918.757 588.6 918.757 604.8C918.757 624.6 934.357 642.9 962.857 642.9C989.557 642.9 1010.26 625.2 1010.26 600C1010.26 549.6 920.257 544.2 920.257 486C920.257 446.7 962.557 416.7 1012.36 416.7C1042.36 416.7 1070.26 428.1 1070.26 453C1070.26 476.1 1047.46 486 1030.06 486C1015.36 486 1008.76 480.3 1008.76 475.5C1008.76 474 1009.66 472.8 1011.16 472.5C1023.16 468.9 1030.06 462.6 1030.06 452.4C1030.06 441 1019.56 434.7 1006.66 434.7C986.557 434.7 962.857 447.6 962.857 471.6ZM1167.97 521.7C1178.77 521.7 1182.97 529.8 1182.97 539.7C1182.97 555.6 1169.77 576.3 1161.07 585.9C1160.77 588.3 1160.77 591 1160.77 593.4C1160.77 602.4 1164.97 606.6 1170.07 606.6C1175.77 606.6 1184.77 604.8 1205.17 575.7C1206.37 573.9 1208.17 573 1209.67 573C1211.77 573 1213.57 574.8 1213.57 577.5C1213.57 579 1213.27 580.5 1212.07 582.6C1189.57 623.1 1169.47 632.7 1153.87 632.7C1141.57 632.7 1134.07 625.5 1130.17 615C1116.67 629.4 1104.07 632.7 1093.87 632.7C1074.67 632.7 1064.47 617.4 1064.47 598.8C1064.47 585 1068.67 565.8 1074.67 550.8C1082.17 532.2 1090.87 516.6 1101.97 516.6C1112.77 516.6 1119.07 524.7 1119.07 534.6C1119.07 540 1116.67 543 1111.87 551.4C1102.27 568.5 1097.47 581.4 1097.47 593.4C1097.47 606 1102.27 609 1107.67 609C1114.87 609 1121.47 605.1 1127.77 599.1V598.8C1127.77 585 1132.87 565.8 1138.87 550.8C1146.37 532.2 1156.87 521.7 1167.97 521.7ZM1304.85 447C1304.85 468.3 1291.35 495.3 1272.75 519.9C1276.35 517.8 1279.95 516.6 1283.85 516.6C1304.25 516.6 1313.55 535.5 1313.55 553.8C1313.55 588.3 1283.85 632.7 1245.45 632.7C1214.25 632.7 1201.05 611.4 1201.05 583.2C1201.05 570.9 1203.15 557.4 1206.75 543.3C1219.35 492.3 1249.95 416.7 1282.65 416.7C1297.35 416.7 1304.85 429 1304.85 447ZM1280.25 460.2C1271.85 460.2 1252.65 501.3 1240.95 539.7C1265.85 512.7 1283.55 482.1 1283.55 465C1283.55 462.9 1283.25 460.2 1280.25 460.2ZM1257.15 545.7C1255.95 545.7 1253.85 545.4 1253.85 542.4V541.5C1247.85 547.5 1241.85 552.9 1235.85 558C1234.35 564 1232.85 573.3 1232.85 583.8C1232.85 598.2 1237.35 614.1 1250.55 614.1C1268.55 614.1 1282.95 588 1282.95 566.7C1282.95 549.3 1276.65 541.5 1268.85 541.5C1263.75 541.5 1260.75 545.7 1257.15 545.7ZM1352.04 576.3C1352.04 578.1 1348.74 578.7 1345.44 581.4C1337.94 587.7 1334.34 593.7 1334.34 602.7C1334.34 612 1340.04 616.8 1345.74 616.8C1355.04 616.8 1361.94 607.5 1361.94 594.3C1361.94 572.4 1341.54 549 1341.54 530.4C1341.54 516.9 1352.04 501.3 1367.04 501.3C1377.24 501.3 1381.14 508.5 1381.14 516.3C1381.14 524.4 1376.94 534.3 1370.04 541.8C1379.34 556.2 1393.74 568.2 1393.74 588.3C1393.74 612.6 1373.34 633 1343.64 633C1318.74 633 1307.04 618.3 1307.04 603.3C1307.04 583.8 1324.74 569.7 1340.94 569.7C1346.94 569.7 1352.04 572.4 1352.04 576.3Z" fill="#051D40"/>
<circle cx="0.5" cy="-0.5" r="334.5" fill="#051D40"/>
<circle cx="1" r="420" stroke="#B1D4E0" stroke-width="20"/>
<circle cx="1919.5" cy="1079.5" r="334.5" fill="#051D40"/>
<circle cx="1920" cy="1080" r="420" stroke="#B1D4E0" stroke-width="20"/>
</g>
<defs>
<clipPath id="clip0_1_5">
<rect width="1920" height="1080" fill="white"/>
</clipPath>
</defs>
</svg>
