<svg width="1920" height="1080" fill="none" xmlns="http://www.w3.org/2000/svg"><g clip-path="url(#a)"><path fill="#fff" d="M0 0H1920V1080H0z"/><g filter="url(#b)"><path d="M184.628 620V471.27h28.3l55.774 66.515 55.567-66.515h28.506V620H327.78V505.974l-59.078 70.44-59.286-70.234V620h-24.788zm191.641 0V471.27h28.3l55.774 66.515 55.567-66.515h28.507V620h-24.995V505.974l-59.079 70.44-59.285-70.234V620h-24.789zm189.989 0V471.27h24.582V620h-24.582zm134.419 0c-5.096 0-9.778-1.239-14.047-3.718-4.132-2.479-7.437-5.853-9.916-10.122-2.478-4.269-3.718-8.951-3.718-14.047v-9.915h24.789v9.089c0 1.102.344 1.997 1.032 2.685.689.689 1.584 1.033 2.686 1.033h91.303c1.102 0 1.997-.344 2.686-1.033.826-.688 1.239-1.583 1.239-2.685v-29.54c0-.964-.413-1.79-1.239-2.478-.689-.827-1.584-1.24-2.686-1.24h-92.129c-5.096 0-9.778-1.239-14.047-3.718-4.132-2.479-7.437-5.784-9.916-9.915-2.478-4.269-3.718-8.952-3.718-14.047v-31.192c0-5.095 1.24-9.778 3.718-14.047 2.479-4.269 5.784-7.643 9.916-10.122 4.269-2.478 8.951-3.718 14.047-3.718h93.162c5.096 0 9.709 1.24 13.84 3.718 4.269 2.479 7.643 5.853 10.122 10.122 2.617 4.269 3.925 8.952 3.925 14.047v9.915h-24.995v-9.089c0-1.101-.413-1.997-1.239-2.685-.689-.689-1.584-1.033-2.686-1.033h-91.303c-1.102 0-1.997.344-2.686 1.033-.688.688-1.032 1.584-1.032 2.685v29.54c0 .964.344 1.859 1.032 2.685.689.689 1.584 1.033 2.686 1.033h92.336c5.096 0 9.709 1.239 13.84 3.718 4.269 2.479 7.643 5.853 10.122 10.122 2.617 4.131 3.925 8.745 3.925 13.84v31.192c0 5.096-1.308 9.778-3.925 14.047-2.479 4.269-5.853 7.643-10.122 10.122-4.131 2.479-8.744 3.718-13.84 3.718h-93.162zm417.393 0c-5.09 0-9.78-1.239-14.05-3.718-4.27-2.479-7.64-5.853-10.12-10.122-2.48-4.269-3.72-8.951-3.72-14.047v-92.956c0-5.095 1.24-9.778 3.72-14.047 2.48-4.269 5.85-7.643 10.12-10.122 4.27-2.478 8.96-3.718 14.05-3.718h120.43v24.995h-116.09c-2.2 0-4 .689-5.37 2.066-1.38 1.239-2.07 2.961-2.07 5.164v84.28c0 2.204.69 3.994 2.07 5.371 1.37 1.239 3.17 1.859 5.37 1.859h116.09V620h-120.43zm169.86 0c-5.1 0-9.78-1.239-14.05-3.718-4.27-2.479-7.64-5.853-10.12-10.122-2.48-4.269-3.72-8.951-3.72-14.047v-92.956c0-5.095 1.24-9.778 3.72-14.047 2.48-4.269 5.85-7.643 10.12-10.122 4.27-2.478 8.95-3.718 14.05-3.718h120.43v24.995h-116.1c-2.2 0-3.99.689-5.37 2.066-1.37 1.239-2.06 2.961-2.06 5.164v84.28c0 2.204.69 3.994 2.06 5.371 1.38 1.239 3.17 1.859 5.37 1.859h116.1V620h-120.43zm142.38 0V471.27h136.54v24.995H1455.3v36.976h89.86v24.788h-89.86v36.976h111.55V620h-136.54zm277.96 0l-45.65-54.534h32.43l41.11 48.75V620h-27.89zm-120.22 0V471.477h120.84c5.1 0 9.71 1.308 13.84 3.925 4.27 2.478 7.64 5.852 10.12 10.121 2.62 4.132 3.93 8.745 3.93 13.841v40.9c0 4.958-1.31 9.571-3.93 13.84-2.48 4.27-5.85 7.643-10.12 10.122-4.13 2.479-8.74 3.719-13.84 3.719l-96.05.206V620h-24.79zm28.5-77.05h91.51c.97 0 1.79-.345 2.48-1.033.83-.689 1.24-1.584 1.24-2.686v-39.248c0-.964-.41-1.79-1.24-2.479-.69-.826-1.51-1.239-2.48-1.239h-91.51c-.96 0-1.85.413-2.68 1.239a3.374 3.374 0 00-1.03 2.479v39.248c0 1.102.34 1.997 1.03 2.686.83.688 1.72 1.033 2.68 1.033z" fill="#0149AF"/></g><g filter="url(#c)"><circle cx="959.498" cy="540.411" r="119.379" fill="#0149AF" fill-opacity=".17"/><circle cx="959.498" cy="540.411" r="115.549" stroke="#0149AF" stroke-width="7.661"/></g><g filter="url(#d)"><circle cx="959.619" cy="540.532" r="66.337" fill="#fff"/></g><path d="M1022.14 567.878a67.878 67.878 0 005.67-25.525 67.814 67.814 0 00-4.31-25.791c-3.2-8.551-8.04-16.275-14.37-22.957-6.34-6.682-13.796-11.923-22.164-15.579a67.962 67.962 0 00-25.526-5.676 67.973 67.973 0 00-25.791 4.31c-8.551 3.205-16.275 8.043-22.957 14.378-6.681 6.335-11.923 13.791-15.579 22.16a68 68 0 00-5.676 25.525 67.97 67.97 0 004.31 25.791c3.206 8.551 8.043 16.275 14.378 22.957 6.336 6.682 13.791 11.923 22.16 15.579a67.961 67.961 0 0025.525 5.676 67.97 67.97 0 0025.791-4.31c8.552-3.205 16.275-8.043 22.959-14.378 6.68-6.335 11.92-13.791 15.58-22.16zm-18.34 19.248c-.15.136-.29.267-.44.401l1.62-5.02c9.23-9.868 12.56-19.527 13.46-22.644l3.34-3.173c-2.97 11.537-9.12 22.036-17.98 30.436zm-38.681 10.327c-12.878 2.61-24.929-1.389-29.118-3.037l-7.036-22.308 19.992-14.987 26.4 7.312 5.299 18.289-15.537 14.731zm-58.032-37.84c-4.743-11-3.131-25.324-2.385-30.177l19.679-12.629 22.059 12.477 1.57 26.709-19.991 14.986-20.932-11.366zm92.715-66.434c2.088 1.944 10.438 10.217 15.048 22.309l-4.39 21.795-20.331 1.674-16.535-20.498 4.462-21.592 21.746-3.688zm-42.252-10.985l19.078 14.317-4.451 21.535-24.915 10.013-22.014-12.451 5.205-23.254c5.411-3.784 17.514-9.083 27.097-10.16zm24.463 99.926l-5.313-18.337 13.538-23.359 20.292-1.671 6.44 20.867c-.93 3.101-4.22 12.289-12.76 21.551l-22.197.949zm37.947-63.607l-3.65-3.336c-5.12-13.584-14.87-22.517-15.94-23.47l-.32-1.055a64.125 64.125 0 016.16 5.714c6.15 6.479 10.78 14.004 13.75 22.147zm-58.626-42.152a66.65 66.65 0 011.848.077l-5.035 4.216c-9.928.903-22.83 6.515-28.55 10.504l-9.73-1.029c11.767-9.314 26.283-14.172 41.467-13.768zm-65.886 62.469a64.427 64.427 0 013.306-18.786l4.512 9.015a78.343 78.343 0 00-.918 10.694c-.157 9.232 1.436 15.699 3.203 19.993l-3.38 9.508c-4.673-9.321-7.008-19.707-6.723-30.424zm62.469 65.885c-10.483-.279-20.513-3.048-29.424-8l6.9-.95c1.71.682 4.714 1.755 8.595 2.628 5.247 1.181 13.064 2.173 21.325.521l6.644 4.65a64.743 64.743 0 01-14.04 1.151z" fill="#212426"/><path d="M117.177 678.338l170.633 98.515s22.052 80.534 19.957 81.579c-2.095 1.045-189.744 310.388-189.744 310.388l-7.426-83.7-42.135 38.3-2.072-57.3-61.622 37.33-80.88-46.7-2.107-39.95-57.596 4.55 16.759-55.246L33.341 715.298l83.861-36.946-.025-.014z" fill="#5A4637" stroke="#1D1D1B" stroke-width="2.11" stroke-miterlimit="10"/><path d="M86.207 964.857l-14.699 29.805 14.753 8.738 28.81 30.08 15.26 15.08 18.261 11.44-7.252 11.03-10.085 17.47-12.283 41.27-8.855 30.72-1.167 2.02-31.299-18.07 2.75-43.19.72-5.86-.945-1.44-6.65 6.9-23.396 20.53-5.1 4.23-13.713-7.02-101.208-58.43-1.393-5.28 4.253-28.89 1.925-14.11-.945-1.44-4.05 3.93-16.534 10.17-19.792 12.76-1.05.29-21.968-12.68-10.926-7.21 5.6-6.61 13.583-12.756 14.634-13.045 19.851-18.999 9.579-15.064 7.486-14.494 18.754 9.031 13.537 4.239 47.599 11.361 8.49 2.207 5.003 1.872 12.22-6.574 10.558-17.347" fill="#010102"/><path d="M34.487 1046.4l22.642 13.07-8.148 14.11-1.05.29-5.054-2.02-15.98-9.23-.946-1.44 2.443-5.76 3.105-5.38 2.988-3.64z" fill="#F0F0F0" stroke="#1D1D1B" stroke-width="1.055" stroke-miterlimit="10"/><path d="M79.438 996.223l9.105 8.837 11.657 12.1 1.218 2.5-5.599 6.62-15.626 17.84-11.477 12.19-1.55 2.68 10.37-5.66 8.256-5.08 2.942 2.6 1.393 5.28-.214 3.45-5.703 8.35-10.972 9.79-22.793 16.4-12.14 11.81-9.65 10.55-1.723-.1-87.224-50.36 5.587-17.37 3.482-16.8 2.315-25.53 2.871-12.67 3.603-7.768 4.712-3.551 5.269-1.433 2.28 2.215.226 7.3.285 11.807.829 3.18 2.372-10.279 10.19-29.95 2.159-6.822.888-3.065 16.7 3.37 16.31 4.044 2.281 2.215 6.401 24.291 3.732 12.006 1.394 5.28 1.996 1.15 4.607-1.82 8.042-1.62 28.45-7.767 2.775-.196-.026-.014z" fill="#FCFCFC" stroke="#1D1D1B" stroke-width="1.055" stroke-miterlimit="10"/><path d="M111.184 1028.87l4.277 3.37 13.265 13.93 6.544 5.58 15.591 9.9.272 1.05-16.676 28.89-6.871 21.12-3.151 11.62-2.209 2.3-33.79-6.07-4.108-.57-2.28-2.22 1.263-14.49.047-6.24.778-1.35-1.335-.77-4.829 5.28-22.618 19.18-8.762 7.49-1.05.29-7.997-4.62.888-3.06 13.027-14.87 12.035-10.07 13.357-9.31 11.528-7.67 4.83-5.28 5.43-9.41 1.595-8.92-2.61-7.78-2.553-3.27 3.376-4.33 11.646-9.39 1.05-.29.04-.02z" fill="#FBFBFB" stroke="#1D1D1B" stroke-width="1.055" stroke-miterlimit="10"/><path d="M85.908 975.769l1.334.771-4.096 10.178-5.269 1.433-12.423-.002-13.194 1.332-10.914 14.299-4.607 1.81-2.385-.48-1.276-7.007 6.812-14.882-8.28-16.426-3.947-8.55 1.277-3.738 4.155-5.67 2.113-.577 5.67 8.647 9.33 16.134 2.942 2.597 18.638.014 14.147.099-.027.018z" fill="#F9F9F9" stroke="#1D1D1B" stroke-width="1.055" stroke-miterlimit="10"/><path d="M79.873 989.304l1.335.77-.506 2.403-4.712 3.552-8.042 1.628-13.311 3.063-8.432 2.3-2.385-.48 6.482-9.697 5.657-2.107 23.907-1.42.007-.012z" fill="#F4F4F3" stroke="#1D1D1B" stroke-width="1.055" stroke-miterlimit="10"/><path d="M24.882 958.453l2.28 2.215 4.219 9.606 6.117 12.481.272 1.056-5.541 11.124-2.34-6.724-5.836-22.185-1.218-2.5 2.054-5.086-.007.013z" fill="#F5F5F5" stroke="#1D1D1B" stroke-width="1.055" stroke-miterlimit="10"/><path d="M24.959 1065.98l21.307 12.3.272 1.06-6.592 11.41-4.154 5.67-5.93 1.06-7.925-.11-3.603-2.97-4.892-10 .214-3.45 6.59-11.42 2.989-3.65 1.724.1zm17.198 11.73l-17.704-9.33-1.05.3-6.98 12.09-.603 4.12 4.217 9.61 4.381 1.63 10.428-1.15 8.918-15.45-1.607-1.82zM34.487 1046.4l22.642 13.07-8.148 14.11-1.05.29-5.054-2.02-15.98-9.23-.946-1.44 2.443-5.76 3.105-5.38 2.988-3.64zm1.879 2.88l-2.502 1.25-3.494 6.05-1.666 4.41 2.281 2.22 9.319 5.38 7.711 3.55 1.05-.29 5.821-10.08-2.553-3.27-15.98-9.23.013.01z" fill="#010102" stroke="#1D1D1B" stroke-width="1.055" stroke-miterlimit="10"/><path d="M40.144 1055.03l5.988 3.46.272 1.06-3.494 6.05-1.724-.1-4.665-2.69-.557-2.12 3.105-5.38 1.05-.29.025.01z" fill="#010102" stroke="#1D1D1B" stroke-width="1.055" stroke-miterlimit="10"/><path d="M204.031 901.735l-48.838 46.98a14.624 14.624 0 01-6.989 3.592c-15.856 3.271-73.845 15.134-81.132 14.808-8.456-.356-14.976-8.646-14.976-8.646l-30.821-71.952a14.67 14.67 0 01-.678-9.63l17.437-64.142 131.37-37.35 34.614 126.333.013.007z" fill="#FDDCB7" stroke="#1D1D1B" stroke-width="2.11" stroke-miterlimit="10"/><path d="M69.84 903.013l-4.242 7.348 13.966 17.912 23.182 3.535 4.242-7.348" stroke="#1D1D1B" stroke-width="2.11" stroke-miterlimit="10"/><path d="M42.104 830.3l28.44-8.566 26.147 15.249 7.877 25.024-29.191-17.583L42.104 830.3z" fill="#fff" stroke="#1D1D1B" stroke-width="2.11" stroke-miterlimit="10"/><path d="M78.615 837.141s-.575-.383.04-.537c1.115-.288 1.21 1.073.447 1.309-.772.25-1.755-.453-1.85-1.169a1.337 1.337 0 011.607-1.463c1.028.187 2.305 1.263 1.96 2.387-.343 1.124-1.304 1.586-2.633 1.361-1.328-.224-2.459-1.318-2.576-2.555-.151-1.528.873-2.598 1.317-2.867.832-.503 2.264-.693 4.128.366 1.863 1.059 2.082 2.999 1.702 4.186-.46 1.413-1.668 2.36-3.476 2.468-1.809.109-4.49-1.558-4.906-2.747-.415-1.189-.555-2.474.356-4.287 1.007-1.978 3.068-2.466 5.169-1.965 2.821.663 3.694 2.556 4.253 3.438.444.698.662 2.112.149 3.765-.514 1.652-1.807 3.364-3.653 3.772-2.58.563-5.613-1.053-6.336-1.827-.723-.773-1.212-1.717-1.752-3.571-.318-1.065-.047-2.502.221-3.466.269-.963 1.025-2.273 1.934-2.968 1.984-1.499 3.692-1.344 4.589-1.283 2.115.153 5.55 2.102 6.536 6.265.588 2.475.171 6.574-5.025 8.235-6.437 2.047-9.65-5.453-9.776-7.525" stroke="#5A4637" stroke-width=".527" stroke-miterlimit="10"/><path d="M74.993 843.474c3.82 2.205 8.72.868 10.945-2.986 2.226-3.855.934-8.767-2.886-10.973-3.82-2.205-8.72-.868-10.945 2.987-2.226 3.855-.934 8.767 2.886 10.972z" stroke="#5A4637" stroke-width=".527" stroke-miterlimit="10"/><path d="M185.326 912.819l-6.814-28.919-26.268-15.013-25.609 5.69 29.822 16.489 28.869 21.753z" fill="#fff" stroke="#1D1D1B" stroke-width="2.11" stroke-miterlimit="10"/><path d="M162.038 885.305s-.575-.383.039-.537c1.115-.288 1.211 1.072.447 1.309-.771.25-1.755-.454-1.85-1.17a1.336 1.336 0 011.607-1.462c1.028.187 2.305 1.263 1.962 2.387-.344 1.123-1.306 1.585-2.634 1.361-1.328-.225-2.459-1.319-2.576-2.555-.152-1.529.873-2.598 1.317-2.868.832-.502 2.264-.693 4.127.366 1.864 1.059 2.083 2.999 1.703 4.187-.46 1.412-1.668 2.359-3.476 2.468-1.809.108-4.491-1.559-4.906-2.748-.416-1.189-.555-2.473.356-4.286 1.006-1.979 3.068-2.466 5.169-1.965 2.821.662 3.694 2.556 4.252 3.438.445.697.663 2.111.149 3.764-.513 1.653-1.806 3.364-3.653 3.773-2.579.562-5.612-1.054-6.335-1.827-.723-.774-1.213-1.717-1.752-3.571-.318-1.065-.048-2.502.221-3.466.268-.964 1.024-2.273 1.934-2.968 1.984-1.499 3.691-1.344 4.589-1.284 2.115.154 5.549 2.103 6.536 6.266.588 2.475.171 6.573-5.026 8.235-6.436 2.047-9.65-5.453-9.775-7.526" stroke="#5A4637" stroke-width=".527" stroke-miterlimit="10"/><path d="M158.428 891.645c3.82 2.205 8.72.868 10.946-2.986 2.225-3.855.933-8.768-2.886-10.973-3.82-2.205-8.72-.868-10.946 2.987-2.225 3.854-.933 8.767 2.886 10.972z" stroke="#5A4637" stroke-width=".527" stroke-miterlimit="10"/><path d="M115.739 863.354s-3.623-32.213-3.381-32.633c.242-.419-45.833-26.427-45.833-26.427l-33.024 8.698 3.87 26.678 51.514 29.741 26.854-6.057zM118.638 865.028s29.709-12.968 29.952-13.388c.242-.42 45.802 26.478 45.802 26.478l8.98 32.949-25.039 9.987-51.513-29.741-8.182-26.285zM115.74 863.355l2.898 1.673" stroke="#1D1D1B" stroke-width="1.055" stroke-miterlimit="10"/><path d="M150.687 836.646l33.994 19.627M89.957 801.584l33.994 19.626" stroke="#5A4637" stroke-width="2.11" stroke-miterlimit="10"/><path d="M627.908 705.846l120.971.825 76.807 93.206-6.836 32.308 16.776 24.228-4.474 55.194 20.439 45.268-24.032 53.835 24.032 62.97-20.439 19.05-64.043-33.72-51.028 33.72-79.897-10.58-30.169-23.14-55.991 33.72-14.903-58.81 15.742-37.286-15.742-53.027 15.574-69.663-12.918-25.206 13.505-26.521-.657-28.799 77.283-87.572z" fill="#2B2526" stroke="#1D1D1B" stroke-width="1.748" stroke-miterlimit="10"/><path d="M711.761 960.327l6.459 25.948 10.29 1.566 38.194 11.729 19.838 5.47 20.564.78-.741 13.29v20.33l9.549 42.21 7.34 31.26v2.35h-34.518l-18.37-39.09-2.208-5.47-1.468-.78-2.209 9.38-9.549 29.71-2.209 6.25-14.693.78H626.384l-3.677-3.92-10.289-27.35-5.145-13.3-1.468-.78-1.468 5.46-8.821 17.2-10.29 21.11-.741.78h-24.241l-12.485-.78 1.468-8.6 5.145-17.98 5.872-18.76 7.339-26.57.741-17.98-.741-16.42 19.838-1.56 13.225-3.13 44.807-14.068 8.081-2.348 8.5-26.731" fill="#0D0E1B"/><path d="M711.761 960.327l6.459 25.948 10.29 1.566 38.194 11.729 19.838 5.47 20.564.78-.741 13.29v20.33l9.549 42.21 7.34 31.26v2.35h-34.518l-18.37-39.09-2.208-5.47-1.468-.78-2.209 9.38-9.549 29.71-2.209 6.25-14.693.78H626.384l-3.677-3.92-10.289-27.35-5.145-13.3-1.468-.78-1.468 5.46-8.821 17.2-10.29 21.11-.741.78h-24.241l-12.485-.78 1.468-8.6 5.145-17.98 5.872-18.76 7.339-26.57.741-17.98-.741-16.42 19.838-1.56 13.225-3.13 44.807-14.068 8.081-2.348 8.5-26.731" stroke="#fff" stroke-width=".437" stroke-miterlimit="10"/><path d="M741.791 1055.91h6.613v34.53l-8.822 7.34-5.145 4.41-2.936-.75-12.484-9.54-2.209-2.21-.741-2.94-.741-29.39.741-.74 25.71-.74.014.03z" fill="#FBFBFB"/><path d="M776.769 854.721l-17.908 62.002a13.932 13.932 0 01-4.054 6.291c-11.52 10.248-53.698 47.645-59.864 50.847-7.144 3.732-16.468 0-16.468 0l-59.682-44.667a13.978 13.978 0 01-5.145-7.619l-16.161-61.206 92.339-92.633 41.396 49.714 45.52 37.285.027-.014z" fill="#FDF2DE" stroke="#1D1D1B" stroke-width="3.495" stroke-miterlimit="10"/><path d="M667.346 925.265l20.048 8.123 20.802-8.123" stroke="#1D1D1B" stroke-width="3.495" stroke-miterlimit="10"/><path d="M711.831 909.957a.728.728 0 10-.001-1.455.728.728 0 00.001 1.455z" fill="#1D1D1B" stroke="#1D1D1B" stroke-width="1.311" stroke-miterlimit="10"/><path d="M708.532 830.871h41.745M625.266 830.871h41.745" stroke="#1D1D1B" stroke-width="3.495" stroke-miterlimit="10"/><path d="M653.645 846.291c9.423 7.619 11.464 32.923-15.378 33.636-26.842.713-24.032-32.867-24.032-32.867" fill="#fff"/><path d="M653.645 846.291c9.423 7.619 11.464 32.923-15.378 33.636-26.842.713-24.032-32.867-24.032-32.867" stroke="#1D1D1B" stroke-width="1.748" stroke-miterlimit="10"/><path d="M639.246 871.623c6.725 0 12.176-5.495 12.176-12.274 0-6.779-5.451-12.275-12.176-12.275-6.725 0-12.177 5.496-12.177 12.275s5.452 12.274 12.177 12.274z" fill="#fff" stroke="#1D1D1B" stroke-width="1.311" stroke-miterlimit="10"/><path d="M639.19 860.509s-1.049-.056-.364-.727c1.259-1.244 2.405.49 1.594 1.384-.825.909-2.67.741-3.341-.126-.727-.964-.504-2.628 1.02-3.145 1.524-.517 4.013-.084 4.404 1.664.392 1.747-.517 3.089-2.446 3.788-1.93.699-4.236.14-5.355-1.398-1.37-1.901-.825-4.082-.447-4.781.713-1.3 2.446-2.642 5.718-2.67a5.387 5.387 0 015.424 4.236c.461 2.209-.391 4.39-2.712 5.913-2.321 1.524-7.102 1.356-8.57.112-1.398-1.188-2.628-2.838-2.782-5.941-.182-3.384 2.181-5.592 5.312-6.543 4.222-1.272 6.823.573 8.235 1.3 1.118.573 2.488 2.265 3.075 4.851.588 2.586.182 5.816-1.943 7.759-2.978 2.712-8.206 2.88-9.758 2.405-1.552-.476-2.908-1.356-5.033-3.383-1.23-1.161-1.957-3.258-2.349-4.754-.391-1.496-.377-3.788.294-5.382 1.482-3.495 3.859-4.6 5.075-5.187 2.908-1.412 8.933-1.454 13.393 3.286 2.656 2.824 5.228 8.555-.364 14.693-6.934 7.605-16.902.154-18.635-2.475" fill="#fff"/><path d="M639.19 860.509s-1.049-.056-.364-.727c1.259-1.244 2.405.49 1.594 1.384-.825.909-2.67.741-3.341-.126-.727-.964-.504-2.628 1.02-3.145 1.524-.517 4.013-.084 4.404 1.664.392 1.747-.517 3.089-2.446 3.788-1.93.699-4.236.14-5.355-1.398-1.37-1.901-.825-4.082-.447-4.781.713-1.3 2.446-2.642 5.718-2.67a5.387 5.387 0 015.424 4.236c.461 2.209-.391 4.39-2.712 5.913-2.321 1.524-7.102 1.356-8.57.112-1.398-1.188-2.628-2.838-2.782-5.941-.182-3.384 2.181-5.592 5.312-6.543 4.222-1.272 6.823.573 8.235 1.3 1.118.573 2.488 2.265 3.075 4.851.588 2.586.182 5.816-1.943 7.759-2.978 2.712-8.206 2.88-9.758 2.405-1.552-.476-2.908-1.356-5.033-3.383-1.23-1.161-1.957-3.258-2.349-4.754-.391-1.496-.377-3.788.294-5.382 1.482-3.495 3.859-4.6 5.075-5.187 2.908-1.412 8.933-1.454 13.393 3.286 2.656 2.824 5.228 8.555-.364 14.693-6.934 7.605-16.902.154-18.635-2.475" stroke="#1D1D1B" stroke-width="1.311" stroke-miterlimit="10"/><path d="M669.709 860.845l-18.021-15.547-37.453 1.776L599.402 840" stroke="#1D1D1B" stroke-width="5.243" stroke-miterlimit="10"/><path d="M719.674 845.676c-9.423 7.619-11.464 32.923 15.378 33.636 26.842.713 24.032-32.867 24.032-32.867" fill="#fff"/><path d="M719.674 845.676c-9.423 7.619-11.464 32.923 15.378 33.636 26.842.713 24.032-32.867 24.032-32.867" stroke="#1D1D1B" stroke-width="1.748" stroke-miterlimit="10"/><path d="M734.074 870.994c6.725 0 12.176-5.495 12.176-12.275 0-6.779-5.451-12.274-12.176-12.274-6.726 0-12.177 5.495-12.177 12.274 0 6.78 5.451 12.275 12.177 12.275z" fill="#fff" stroke="#1D1D1B" stroke-width="1.311" stroke-miterlimit="10"/><path d="M734.13 859.894s1.048-.056.363-.727c-1.258-1.244-2.405.489-1.594 1.384.825.909 2.67.741 3.342-.126.726-.964.503-2.628-1.021-3.145-1.524-.518-4.012-.084-4.404 1.663-.391 1.748.517 3.09 2.447 3.789 1.929.699 4.236.14 5.354-1.398 1.37-1.901.825-4.082.448-4.781-.713-1.3-2.447-2.643-5.718-2.671a5.39 5.39 0 00-5.425 4.236c-.461 2.209.392 4.39 2.712 5.914 2.321 1.524 7.102 1.356 8.57.112s2.629-2.838 2.782-5.942c.182-3.383-2.181-5.592-5.312-6.542-4.222-1.273-6.822.573-8.234 1.3-1.119.573-2.489 2.265-3.076 4.851-.587 2.586-.182 5.816 1.943 7.759 2.978 2.712 8.207 2.88 9.758 2.405 1.552-.476 2.908-1.357 5.033-3.384 1.23-1.16 1.957-3.257 2.349-4.753.391-1.496.377-3.789-.294-5.382-1.482-3.495-3.858-4.6-5.075-5.187-2.907-1.412-8.933-1.454-13.393 3.285-2.656 2.824-5.228 8.556.364 14.694 6.934 7.605 16.902.153 18.636-2.475" fill="#fff"/><path d="M734.13 859.894s1.048-.056.363-.727c-1.258-1.244-2.405.489-1.594 1.384.825.909 2.67.741 3.342-.126.726-.964.503-2.628-1.021-3.145-1.524-.518-4.012-.084-4.404 1.663-.391 1.748.517 3.09 2.447 3.789 1.929.699 4.236.14 5.354-1.398 1.37-1.901.825-4.082.448-4.781-.713-1.3-2.447-2.643-5.718-2.671a5.39 5.39 0 00-5.425 4.236c-.461 2.209.392 4.39 2.712 5.914 2.321 1.524 7.102 1.356 8.57.112s2.629-2.838 2.782-5.942c.182-3.383-2.181-5.592-5.312-6.542-4.222-1.273-6.822.573-8.234 1.3-1.119.573-2.489 2.265-3.076 4.851-.587 2.586-.182 5.816 1.943 7.759 2.978 2.712 8.207 2.88 9.758 2.405 1.552-.476 2.908-1.357 5.033-3.384 1.23-1.16 1.957-3.257 2.349-4.753.391-1.496.377-3.789-.294-5.382-1.482-3.495-3.858-4.6-5.075-5.187-2.907-1.412-8.933-1.454-13.393 3.285-2.656 2.824-5.228 8.556.364 14.694 6.934 7.605 16.902.153 18.636-2.475" stroke="#1D1D1B" stroke-width="1.311" stroke-miterlimit="10"/><path d="M703.611 860.23l18.02-15.546 37.453 1.761 14.833-7.06" stroke="#1D1D1B" stroke-width="5.243" stroke-miterlimit="10"/><path d="M1237.41 971.437l7.43 29.873 11.85 1.8 43.97 13.51 22.84 6.29 23.67.9-.85 15.31v23.4l10.99 48.59 8.46 35.99v2.7h-39.74l-21.15-45-2.55-6.29-1.69-.9-2.54 10.8-10.99 34.2-2.55 7.19-16.91.91h-128.54l-4.23-4.51-11.85-31.5-5.92-15.31-1.69-.9-1.69 6.3-10.16 19.79-11.84 24.31-.86.9h-27.91l-14.37-.9 1.69-9.9 5.92-20.7 6.76-21.6 8.45-30.6.86-20.7-.86-18.89 22.84-1.8 15.23-3.61 51.59-16.19 9.3-2.71 9.78-30.77" fill="#0C0D1C"/><path d="M1237.41 971.437l7.43 29.873 11.85 1.8 43.97 13.51 22.84 6.29 23.67.9-.85 15.31v23.4l10.99 48.59 8.46 35.99v2.7h-39.74l-21.15-45-2.55-6.29-1.69-.9-2.54 10.8-10.99 34.2-2.55 7.19-16.91.91h-128.54l-4.23-4.51-11.85-31.5-5.92-15.31-1.69-.9-1.69 6.3-10.16 19.79-11.84 24.31-.86.9h-27.91l-14.37-.9 1.69-9.9 5.92-20.7 6.76-21.6 8.45-30.6.86-20.7-.86-18.89 22.84-1.8 15.23-3.61 51.59-16.19 9.3-2.71 9.78-30.77" stroke="#1D1D1B" stroke-width="4.829" stroke-miterlimit="10"/><path d="M1280.12 927.513l2.13 16.336h-11.24l-5.21 15.5-11.69-4.619-9.06 23.225-11.56-2.092" fill="#49392C"/><path d="M1280.12 927.513l2.13 16.336h-11.24l-5.21 15.5-11.69-4.619-9.06 23.225-11.56-2.092" stroke="#1D1D1B" stroke-width="2.414" stroke-miterlimit="10"/><path d="M1135.55 931.086l-4.55 16.111 14.53-.676 6.88 13.907 10.78-4.121 4.65 19.556h17.22" fill="#49392C"/><path d="M1135.55 931.086l-4.55 16.111 14.53-.676 6.88 13.907 10.78-4.121 4.65 19.556h17.22" stroke="#1D1D1B" stroke-width="2.414" stroke-miterlimit="10"/><path d="M1106.58 855.454s0-118.445 103.96-118.445 102.43 111.959 102.43 111.959l-20.62 71.382a15.94 15.94 0 01-4.66 7.243c-13.27 11.798-61.83 54.853-68.92 58.539-8.23 4.297-18.96 0-18.96 0l-68.71-51.425a16.094 16.094 0 01-5.93-8.772l-18.6-70.465" fill="#FDDCB7"/><path d="M1106.58 855.454s0-118.445 103.96-118.445 102.43 111.959 102.43 111.959l-20.62 71.382a15.94 15.94 0 01-4.66 7.243c-13.27 11.798-61.83 54.853-68.92 58.539-8.23 4.297-18.96 0-18.96 0l-68.71-51.425a16.094 16.094 0 01-5.93-8.772l-18.6-70.465" stroke="#1D1D1B" stroke-width="3.219" stroke-miterlimit="10"/><path d="M1233.69 822.362h48.06M1137.82 822.362h48.06" stroke="#49392C" stroke-width="3.219" stroke-miterlimit="10"/><path d="M1128.02 704.561l60.04-33.382 25.81 7.629 26.22-1.899 49.13 27.652 40.06 7.645-20.51 12.876 25.27 19.073 1.92 36.247 23.37 9.528-12.41 25.286 9.36 13.584-15.25 13.118 4.28 13.343-12.88 4.104.48 13.07-12.39 6.357-10.49 17.013-7.12-17.061-18.04 12.506 11.03-15.001-4.3-30.516-18.37-16.933-8.33-17.882-10.13 25.27-15.37 13.987.69-34.959-10.12 26.702-26.59 30.034 4.23 15.274-10.91-14.791 4.3-13.07-23.86-30.565-.95 14.068 5.7 13.487-37.11-46.869-4.83 11.927-21.46 22.404v28.135l1.9 19.556-24.78-2.383 6.66-10.107-29.57-16.514 3.82-10.092-19.08 6.712 15.26-19.669-15.26-24.239 17.18-7.162-6.2-6.439 10.96-16.449-19.07-22.421 24.32-1.899-1.9-13.826 26.22-18.606-12.88-28.135 14.79 6.68 17.16-2.398z" fill="#49392C" stroke="#1D1D1B" stroke-width="2.414" stroke-miterlimit="10"/><path d="M1255.74 925.356s-26.43 19.894-47.74 3.798c-21.31 16.112-46.95-3.798-46.95-3.798" stroke="#1D1D1B" stroke-width="3.219" stroke-miterlimit="10"/><path d="M1223.02 860.765s37.37 47.691 74.74 0c0 0-33.28-48.817-74.74 0z" fill="#fff" stroke="#1D1D1B" stroke-width="1.61" stroke-miterlimit="10"/><path d="M1260.69 876.41c8.73 0 15.81-7.134 15.81-15.935 0-8.8-7.08-15.934-15.81-15.934-8.72 0-15.8 7.134-15.8 15.934 0 8.801 7.08 15.935 15.8 15.935z" stroke="#1D1D1B" stroke-width="1.207" stroke-miterlimit="10"/><path d="M1260.63 861.988s-1.35-.08-.47-.949c1.63-1.61 3.13.627 2.08 1.802-1.06 1.175-3.46.966-4.33-.177a2.638 2.638 0 011.32-4.088c1.96-.676 5.2-.113 5.71 2.157.52 2.269-.67 4.008-3.17 4.925-2.49.917-5.5.177-6.93-1.819-1.77-2.462-1.08-5.295-.58-6.212.93-1.691 3.18-3.429 7.42-3.461 4.31-.048 6.53 3.09 7.05 5.489.59 2.864-.52 5.697-3.53 7.661-3.01 1.963-9.22 1.754-11.12.145-1.82-1.529-3.41-3.686-3.62-7.71-.23-4.378 2.83-7.259 6.89-8.482 5.49-1.658 8.85.74 10.68 1.69 1.45.756 3.24 2.945 3.98 6.293.74 3.348.24 7.549-2.51 10.06-3.86 3.508-10.66 3.734-12.67 3.122-2.01-.611-3.76-1.754-6.53-4.378-1.6-1.513-2.55-4.233-3.04-6.164-.5-1.932-.5-4.909.38-6.986 1.92-4.538 5.01-5.955 6.58-6.727 3.77-1.835 11.59-1.884 17.39 4.265 3.44 3.653 6.79 11.089-.47 19.057-9 9.866-21.92.193-24.17-3.219" stroke="#1D1D1B" stroke-width="1.207" stroke-miterlimit="10"/><path d="M1191.21 861.731s-37.37 47.69-74.75 0c0 0 33.29-48.817 74.75 0z" fill="#fff" stroke="#1D1D1B" stroke-width="1.61" stroke-miterlimit="10"/><path d="M1153.6 862.954s1.35-.08.46-.949c-1.62-1.61-3.12.627-2.07 1.802 1.06 1.175 3.46.966 4.33-.177a2.638 2.638 0 00-1.32-4.088c-1.97-.676-5.2-.113-5.72 2.157-.51 2.269.68 4.007 3.17 4.925 2.5.917 5.51.177 6.94-1.819 1.77-2.462 1.08-5.295.58-6.213-.93-1.69-3.19-3.428-7.42-3.46-4.31-.048-6.53 3.09-7.05 5.488-.59 2.865.52 5.698 3.53 7.662 3.01 1.963 9.22 1.754 11.12.145 1.82-1.53 3.41-3.686 3.62-7.71.22-4.378-2.83-7.259-6.89-8.482-5.49-1.658-8.85.74-10.69 1.69-1.45.756-3.23 2.945-3.97 6.293-.74 3.348-.24 7.549 2.51 10.059 3.86 3.509 10.65 3.735 12.67 3.123 2.01-.612 3.76-1.754 6.53-4.378 1.59-1.513 2.54-4.233 3.04-6.164.5-1.932.5-4.909-.38-6.986-1.92-4.539-5.01-5.955-6.59-6.728-3.76-1.834-11.59-1.883-17.38 4.266-3.44 3.653-6.79 11.089.47 19.056 8.99 9.867 21.92.194 24.17-3.219" stroke="#1D1D1B" stroke-width="1.207" stroke-miterlimit="10"/><path d="M1153.52 877.392c8.73 0 15.8-7.134 15.8-15.935 0-8.8-7.07-15.934-15.8-15.934s-15.81 7.134-15.81 15.934c0 8.801 7.08 15.935 15.81 15.935z" stroke="#1D1D1B" stroke-width="1.207" stroke-miterlimit="10"/><path d="M1763.36 778.289l63.7-11.358-11.55-64.791-63.7 11.358 11.55 64.791z" fill="#706F6F"/><path d="M1822.54 741.653l-8.39 27.579M1821.27 734.47l-10.78 35.414M1820.13 728.135l-13.02 42.361M1818.91 721.236l-15.97 50M1817.83 715.185l-18.2 56.645M1816.57 708.145l-20.68 64.341M1815.51 702.136l-23.71 70.675M1811.62 703.341l-24.15 70.745M1807.07 703.65l-24.17 70.739M1802.19 704.741l-24.15 70.745M1797.94 705.507l-24.16 70.731M1793.1 706.654l-24.16 70.731M1787.48 707.359l-24.17 70.752" stroke="#1D1D1B" stroke-width=".264" stroke-miterlimit="10"/><path d="M1654.16 841.155l68.46-12.206-12.08-67.763-68.46 12.207 12.08 67.762z" fill="#706F6F"/><path d="M1717.9 802.494l-9.15 28.926M1716.56 794.977l-11.76 37.148M1715.38 788.357l-14.2 44.41M1714.09 781.145l-17.4 52.417M1712.96 774.824l-19.81 59.375M1711.65 767.456l-22.53 67.452M1710.53 761.17l-25.8 74.089M1706.35 762.449l-26.27 74.175M1701.47 762.786l-26.29 74.182M1696.23 763.956l-26.29 74.183M1691.66 764.778l-26.27 74.174M1686.45 766.004l-26.29 74.169M1680.41 766.784l-26.27 74.174" stroke="#1D1D1B" stroke-width=".264" stroke-miterlimit="10"/><path d="M1868.38 941.78l21.33 22.103 11.13-4.352 44.73-10.269 22.88-5.956 20.91-11.033 6.9 13.652 11.67 20.223 33.74 36.502 25.26 26.88 1.35 2.34-34.34 19.83-40.73-28.34-5.33-4.17-1.91.07 3.19 10.6 7.56 35.04 1.39 7.48-14.16 9.22-111.07 64.13-5.91-1.79-25.95-21.31-12.76-10.27-1.91.07 1.68 6.28 1.1 22.17 1.89 26.91-.28 1.21-24.12 13.92-12.87 6.39-3.48-9.39-5.21-20.84-4.93-22.04-7.96-30.66-9.59-18.31-10.17-15.9 18.84-12.95 11.36-10.71 36.49-39.73 6.69-6.98-6.89-31.472" fill="#0D0E1B"/><path d="M1702.46 915.252l-50.73-51.744s68.94-105.804 202.64-116.347l24.33 61.705 15.65 68.254c.56 2.701.34 5.535-.63 8.212-5.93 16.199-27.71 75.376-32.11 81.921-5.09 7.594-16.38 9.459-16.38 9.459l-83.49-7.486c-3.54-.313-6.79-1.795-9.24-4.18l-50.04-49.807" fill="#FDF2DE"/><path d="M1702.46 915.252l-50.73-51.744s68.94-105.804 202.64-116.347l24.33 61.705 15.65 68.254c.56 2.701.34 5.535-.63 8.212-5.93 16.199-27.71 75.376-32.11 81.921-5.09 7.594-16.38 9.459-16.38 9.459l-83.49-7.486c-3.54-.313-6.79-1.795-9.24-4.18l-50.04-49.807" stroke="#1D1D1B" stroke-width="2.11" stroke-miterlimit="10"/><path d="M1749.44 796.039l16.94-39.538 31.36-31.368 98.49 114.669-6.14-35.045 41.23 36.17-51.01-131.701-110.23-37.496-141.88 79.725-25.23 104.338 96.44 126.816-14.46-59.801 30.27 21.949-54.63-135.751 39.07-13.245 49.78.278z" fill="#1D1D1B" stroke="#1D1D1B" stroke-width="1.055" stroke-miterlimit="10"/><path d="M1805.77 855.96l2.27-33.169 50.86-29.364-4.19 25.492-48.94 37.041z" fill="#fff" stroke="#1D1D1B" stroke-width="2.11" stroke-miterlimit="10"/><path d="M1833.67 820.735s-.78.392-.58-.39c.38-1.44 1.95-.642 1.74.349-.21 1.013-1.62 1.659-2.46 1.292-.94-.404-1.48-1.725-.6-2.748.87-1.024 2.85-1.74 3.89-.615s.94 2.497-.15 3.815c-1.1 1.318-3.01 1.864-4.47 1.203-1.79-.821-2.33-2.659-2.35-3.334-.04-1.257.65-2.967 3-4.346 2.36-1.379 4.66-.351 5.72.851 1.28 1.435 1.59 3.387.55 5.472-1.04 2.084-4.56 3.964-6.14 3.656-1.59-.307-3.1-.994-4.54-3.202-1.56-2.418-.81-5.025 1.06-7.029 2.52-2.698 5.16-2.425 6.5-2.477 1.06-.034 2.76.633 4.29 2.29 1.54 1.656 2.62 4.203 1.89 6.513-1.01 3.233-4.72 5.543-6.02 5.851-1.31.309-2.68.211-5.08-.385-1.39-.349-2.8-1.574-3.72-2.512-.91-.938-1.88-2.621-2.06-4.092-.42-3.191.83-4.986 1.47-5.931 1.5-2.255 5.83-4.796 11.08-3.168 3.11.964 7.41 4.102 5.97 10.959-1.79 8.489-12.15 7.161-14.51 5.951" stroke="#1D1D1B" stroke-width=".791" stroke-miterlimit="10"/><path d="M1838.43 828.889c4.86-2.807 6.47-9.124 3.59-14.109-2.87-4.985-9.15-6.751-14.01-3.944-4.86 2.808-6.47 9.124-3.59 14.109 2.88 4.986 9.15 6.751 14.01 3.944z" stroke="#1D1D1B" stroke-width=".791" stroke-miterlimit="10"/><path d="M1773.94 874.563l-29.88-14.625-50.87 29.365 24.19 9.125 56.56-23.865z" fill="#fff" stroke="#1D1D1B" stroke-width="2.11" stroke-miterlimit="10"/><path d="M1729.47 881.118s.73-.476-.05-.695c-1.43-.396-1.53 1.365-.57 1.682.99.322 2.25-.574 2.35-1.487.12-1.014-.75-2.142-2.08-1.897-1.32.245-2.93 1.601-2.47 3.063.45 1.462 1.69 2.064 3.38 1.775 1.68-.288 3.11-1.669 3.27-3.261.18-1.961-1.14-3.349-1.71-3.703-1.07-.663-2.89-.928-5.27.423-2.37 1.352-2.63 3.857-2.12 5.38.61 1.82 2.14 3.066 4.47 3.207 2.32.141 5.71-1.961 6.23-3.49.53-1.528.69-3.178-.5-5.531-1.31-2.562-3.95-3.209-6.62-2.596-3.6.835-4.68 3.26-5.4 4.396-.55.897-.83 2.705-.16 4.86.67 2.154 2.34 4.364 4.7 4.891 3.3.744 7.16-1.315 8.08-2.291.92-.976 1.52-2.214 2.2-4.593.4-1.377.04-3.212-.31-4.471-.36-1.259-1.33-2.942-2.51-3.835-2.56-1.955-4.74-1.774-5.88-1.691-2.7.169-7.07 2.655-8.28 8.009-.72 3.18-.15 8.47 6.5 10.654 8.25 2.692 12.28-6.939 12.41-9.595" stroke="#1D1D1B" stroke-width=".791" stroke-miterlimit="10"/><path d="M1734.15 889.32c4.86-2.808 6.47-9.124 3.59-14.11-2.88-4.985-9.15-6.75-14.01-3.943-4.87 2.807-6.47 9.124-3.6 14.109 2.88 4.985 9.16 6.751 14.02 3.944z" stroke="#1D1D1B" stroke-width=".791" stroke-miterlimit="10"/><path d="M1784.72 934.188l5.65 5.395 55.27-15.016 3.03-8.348" fill="#FDF2DE"/><path d="M1784.72 934.188l5.65 5.395 55.27-15.016 3.03-8.348M1787.93 807.069l41.53-23.977M1705.09 854.894l41.53-23.977" stroke="#1D1D1B" stroke-width="2.11" stroke-miterlimit="10"/><path d="M1806.78 935.116l-1.83 12.946-6.83 6.505 10.08-5.434 5.1 7.364-2.58-7.982 1.58-14.895-5.52 1.496z" fill="#703F42" stroke="#1D1D1B" stroke-width="1.055" stroke-miterlimit="10"/><path d="M132.456 111.38l-6.787-23.637 7.475-5.979 25.028-26.906 13.287-13.476 16.02-10.081-6.704-10.249-9.348-16.19-11.803-38.009-8.53-28.273-1.08-1.87-27.492 15.872 3.343 39.582.755 5.37-.81 1.298-6.073-6.456-21.266-19.271-4.634-3.962-12.063 6.133L-7.15 26.618l-1.129 4.808 4.386 26.524 2.016 12.955-.809 1.299-3.683-3.68-14.934-9.639-17.903-12.082-.95-.283-19.308 11.147-9.584 6.365 5.123 6.173 12.365 11.954 13.304 12.243 18.068 17.793 8.857 13.979 6.958 13.414 16.52-7.876 11.975-3.587 42.156-9.403 7.516-1.845 19.062 17.382" fill="#0D0E1B"/><path d="M132.456 111.38l-6.787-23.637 7.475-5.979 25.028-26.906 13.287-13.476 16.02-10.081-6.704-10.249-9.348-16.19-11.803-38.009-8.53-28.273-1.08-1.87-27.492 15.872 3.343 39.582.755 5.37-.81 1.298-6.073-6.456-21.266-19.271-4.634-3.962-12.063 6.133L-7.15 26.618l-1.129 4.808 4.386 26.524 2.016 12.955-.809 1.299-3.683-3.68-14.934-9.639-17.903-12.082-.95-.283-19.308 11.147-9.584 6.365 5.123 6.173 12.365 11.954 13.304 12.243 18.068 17.793 8.857 13.979 6.958 13.414 16.52-7.876 11.975-3.587 42.156-9.403 7.516-1.845 19.062 17.382" stroke="#1D1D1B" stroke-width=".922" stroke-miterlimit="10"/><path d="M112.409 21.446l5.267-3.04L101.797-9.1l-10.402-1.79-6.123-1.14-1.997 1.94-5.553 13.346-.744 2.775.76 2.679 12.924 23.747.93.25 20.819-11.233-.002-.029z" fill="#FBFBFB"/><path d="M132.457 111.38l5.222-35.931 31.872 17.632 11.767-62.217 58.893 30.003 78.864 136.595-11.448 91.059-138.076 79.718-90.878-33.97L-.431 188.102l19.665-63.659 43.628 27.117 2.095-33.992 27.925 16.66 39.575-22.848z" fill="#E3AE5F" stroke="#1D1D1B" stroke-width="1.844" stroke-miterlimit="10"/><path d="M88.276 243.874l119.233 40.419 26.145-118.369-42.777-41.15a12.82 12.82 0 00-6.122-3.146c-13.888-2.865-64.68-13.255-71.063-12.97-7.406.312-13.117 7.573-13.117 7.573l-26.996 63.022a12.85 12.85 0 00-.594 8.435l15.274 56.181" fill="#FDF2DE"/><path d="M88.276 243.874l119.233 40.419 26.145-118.369-42.777-41.15a12.82 12.82 0 00-6.122-3.146c-13.888-2.865-64.68-13.255-71.063-12.97-7.406.312-13.117 7.573-13.117 7.573l-26.996 63.022a12.85 12.85 0 00-.594 8.435l15.274 56.181" stroke="#1D1D1B" stroke-width="1.844" stroke-miterlimit="10"/><path d="M118.065 166.249l-3.716-6.436 12.232-15.689 20.305-3.097 3.716 6.436" stroke="#1D1D1B" stroke-width="1.844" stroke-miterlimit="10"/><path d="M139.509 230.032c4.002-10.401-6.009-31.495-27.716-19.719-21.708 11.775-4.027 37.23-4.027 37.23" fill="#fff"/><path d="M139.509 230.032c4.002-10.401-6.009-31.495-27.716-19.719-21.708 11.775-4.027 37.23-4.027 37.23" stroke="#1D1D1B" stroke-width=".922" stroke-miterlimit="10"/><path d="M116.391 216.477c5.356-3.092 12.225-1.222 15.343 4.177 3.117 5.4 1.302 12.284-4.054 15.377-5.357 3.092-12.226 1.222-15.344-4.178-3.117-5.399-1.302-12.283 4.055-15.376z" fill="#fff" stroke="#34B1C2" stroke-width=".691" stroke-miterlimit="10"/><path d="M121.446 225.362s-.81.526.045.746c1.574.412 1.69-1.496.633-1.836-1.075-.344-2.468.638-2.604 1.637-.135 1.103.808 2.325 2.26 2.036 1.451-.288 3.234-1.778 2.742-3.35s-1.833-2.223-3.691-1.893c-1.858.331-3.438 1.837-3.622 3.576-.217 2.145 1.221 3.631 1.843 4.014 1.165.708 3.163.98 5.782-.502a4.955 4.955 0 002.372-5.869c-.648-1.971-2.33-3.316-4.879-3.463-2.55-.146-6.281 2.186-6.878 3.852-.597 1.666-.788 3.469.517 6.012 1.411 2.778 4.308 3.451 7.24 2.768 3.948-.928 5.17-3.594 5.961-4.822.627-.971.94-2.948.219-5.278-.722-2.33-2.53-4.716-5.116-5.287-3.619-.791-7.861 1.48-8.878 2.572-1.018 1.093-1.693 2.418-2.453 5.01-.447 1.49-.061 3.494.315 4.866.376 1.371 1.441 3.191 2.709 4.152 2.787 2.102 5.188 1.889 6.427 1.797 2.965-.212 7.784-2.95 9.157-8.776.817-3.47.23-9.219-7.047-11.535-9.02-2.869-13.533 7.65-13.705 10.54" fill="#fff"/><path d="M121.446 225.362s-.81.526.045.746c1.574.412 1.69-1.496.633-1.836-1.075-.344-2.468.638-2.604 1.637-.135 1.103.808 2.325 2.26 2.036 1.451-.288 3.234-1.778 2.742-3.35s-1.833-2.223-3.691-1.893c-1.858.331-3.438 1.837-3.622 3.576-.217 2.145 1.221 3.631 1.843 4.014 1.165.708 3.163.98 5.782-.502a4.955 4.955 0 002.372-5.869c-.648-1.971-2.33-3.316-4.879-3.463-2.55-.146-6.281 2.186-6.878 3.852-.597 1.666-.788 3.469.517 6.012 1.411 2.778 4.308 3.451 7.24 2.768 3.948-.928 5.17-3.594 5.961-4.822.627-.971.94-2.948.219-5.278-.722-2.33-2.53-4.716-5.116-5.287-3.619-.791-7.861 1.48-8.878 2.572-1.018 1.093-1.693 2.418-2.453 5.01-.447 1.49-.061 3.494.315 4.866.376 1.371 1.441 3.191 2.709 4.152 2.787 2.102 5.188 1.889 6.427 1.797 2.965-.212 7.784-2.95 9.157-8.776.817-3.47.23-9.219-7.047-11.535-9.02-2.869-13.533 7.65-13.705 10.54" stroke="#34B1C2" stroke-width=".691" stroke-miterlimit="10"/><path d="M145.611 211.054l-7.204 20.669-30.642 15.82-8.579 12.451" stroke="#1D1D1B" stroke-width="2.766" stroke-miterlimit="10"/><path d="M192.379 200.176c-11.009-1.735-24.271-20.952-3.22-33.863 21.052-12.911 34.256 15.128 34.256 15.128" fill="#fff"/><path d="M192.379 200.176c-11.009-1.735-24.271-20.952-3.22-33.863 21.052-12.911 34.256 15.128 34.256 15.128" stroke="#1D1D1B" stroke-width=".922" stroke-miterlimit="10"/><path d="M192.21 173.371c5.356-3.093 12.226-1.223 15.343 4.177 3.118 5.399 1.303 12.284-4.054 15.376-5.356 3.093-12.226 1.223-15.343-4.177-3.118-5.399-1.303-12.284 4.054-15.376z" fill="#fff" stroke="#3EA9BD" stroke-width=".691" stroke-miterlimit="10"/><path d="M197.365 182.197s.861-.437.624.412c-.43 1.57-2.14.716-1.906-.369.24-1.103 1.786-1.818 2.72-1.436 1.022.434 1.609 1.862.633 2.974-.976 1.113-3.157 1.912-4.272.7-1.116-1.212-1.009-2.698.206-4.142 1.215-1.444 3.31-2.06 4.908-1.349 1.965.884 2.534 2.872 2.555 3.602.03 1.364-.734 3.23-3.327 4.757a4.956 4.956 0 01-6.268-.88c-1.383-1.547-1.707-3.676-.559-5.957 1.147-2.281 5.033-4.346 6.774-4.03 1.742.316 3.399 1.051 4.948 3.453 1.701 2.611.835 5.457-1.222 7.654-2.778 2.955-5.698 2.681-7.157 2.751-1.154.058-3.023-.66-4.68-2.45-1.657-1.789-2.82-4.548-2.021-7.073 1.125-3.53 5.212-6.068 6.667-6.403 1.455-.335 2.94-.257 5.564.381 1.514.358 3.057 1.694 4.057 2.705 1 1.012 2.043 2.845 2.241 4.423.427 3.465-.958 5.437-1.657 6.464-1.667 2.462-6.447 5.266-12.178 3.542-3.414-1.027-8.099-4.41-6.467-11.87 2.025-9.246 13.391-7.895 15.981-6.599" fill="#fff"/><path d="M197.365 182.197s.861-.437.624.412c-.43 1.57-2.14.716-1.906-.369.24-1.103 1.786-1.818 2.72-1.436 1.022.434 1.609 1.862.633 2.974-.976 1.113-3.157 1.912-4.272.7-1.116-1.212-1.009-2.698.206-4.142 1.215-1.444 3.31-2.06 4.908-1.349 1.965.884 2.534 2.872 2.555 3.602.03 1.364-.734 3.23-3.327 4.757a4.956 4.956 0 01-6.268-.88c-1.383-1.547-1.707-3.676-.559-5.957 1.147-2.281 5.033-4.346 6.774-4.03 1.742.316 3.399 1.051 4.948 3.453 1.701 2.611.835 5.457-1.222 7.654-2.778 2.955-5.698 2.681-7.157 2.751-1.154.058-3.023-.66-4.68-2.45-1.657-1.789-2.82-4.548-2.021-7.073 1.125-3.53 5.212-6.068 6.667-6.403 1.455-.335 2.94-.257 5.564.381 1.514.358 3.057 1.694 4.057 2.705 1 1.012 2.043 2.845 2.241 4.423.427 3.465-.958 5.437-1.657 6.464-1.667 2.462-6.447 5.266-12.178 3.542-3.414-1.027-8.099-4.41-6.467-11.87 2.025-9.246 13.391-7.895 15.981-6.599" stroke="#3EA9BD" stroke-width=".691" stroke-miterlimit="10"/><path d="M172.892 195.971l21.502 4.096 29.026-18.644 15.067-1.187" stroke="#1D1D1B" stroke-width="2.766" stroke-miterlimit="10"/><path d="M192.145 218.825l33.249-19.197M125.823 257.116l33.25-19.197" stroke="#1D1D1B" stroke-width="1.844" stroke-miterlimit="10"/><path d="M717.301 106.582l6.484-26.05 10.331-1.573 38.347-11.776 19.917-5.488 20.647-.786-.744-13.349V27.152l9.587-42.376 7.369-31.385v-2.358h-34.655L776.14-9.72l-2.217 5.488-1.474.786-2.218-9.419-9.587-29.827-2.217-6.274-14.752-.786H631.582l-3.692 3.93-10.331 27.47-5.165 13.348-1.474.786-1.473-5.488-8.857-17.265-10.331-21.195-.744-.786h-24.339l-12.534.786 1.474 8.633 5.165 18.05 5.895 18.837 7.369 26.683.744 18.05-.744 16.479 19.918 1.572 13.278 3.144 44.986 14.12 8.113 2.358 8.534 26.837" fill="#0D0E1B"/><path d="M747.436 10.617h6.639v-34.67l-8.856-7.368-5.166-4.422-2.947.744-12.535 9.587-2.217 2.218-.744 2.947-.744 29.504.744.744 25.812.744.014-.028z" fill="#FBFBFB"/><path d="M603.214 207.727s0 103.292 90.66 103.292 89.327-97.635 89.327-97.635l-17.981-62.251a13.988 13.988 0 00-4.07-6.316c-11.566-10.289-53.913-47.836-60.103-51.05-7.173-3.748-16.535 0-16.535 0l-59.92 44.846a14.025 14.025 0 00-5.166 7.65l-16.226 61.45" fill="#FDDCB7"/><path d="M603.214 207.727s0 103.292 90.66 103.292 89.327-97.635 89.327-97.635l-17.981-62.251a13.988 13.988 0 00-4.07-6.316c-11.566-10.289-53.913-47.836-60.103-51.05-7.173-3.748-16.535 0-16.535 0l-59.92 44.846a14.025 14.025 0 00-5.166 7.65l-16.226 61.45" stroke="#1D1D1B" stroke-width="1.844" stroke-miterlimit="10"/><path d="M758.609 176.889l-18.261-50.867-13.039-11.748-94.927 27.034-2.737 6.667 128.964 28.914z" fill="#010102" stroke="#1D1D1B" stroke-width=".461" stroke-miterlimit="10"/><path d="M736.362 134.472l1.782-9.137-4.772-5.222-6.555-5.221-2.975 2.61.589 7.173 6.555 35.217 1.783 4.561" fill="#fff"/><path d="M736.362 134.472l1.782-9.137-4.772-5.222-6.555-5.221-2.975 2.61.589 7.173 6.555 35.217 1.783 4.561" stroke="#1D1D1B" stroke-width=".461" stroke-miterlimit="10"/><path d="M734.439 164.454l.589 5.867 17.279 4.561h2.386l-.589-3.916-7.145-22.822-4.772-15.005-1.783-3.916-1.193 1.305-1.193 3.916-3.579 29.996v.014zM729.021 169.226l1.067-.646-1.067-7.804-2.119-11.706-4.253-27.96-1.601 1.305-6.372 33.154-1.067 4.547v4.548l6.373 1.951 9.025 2.597.014.014zM711.223 159.583l1.249-.646 5.601-26.093 3.116-12.394v-3.257l-9.952 2.611-8.702 2.611.617 5.867 7.468 29.35.617 1.951h-.014zM707.686 164.145h2.386l-1.193-6.527-4.758-19.567-2.386-11.088-1.193-1.306-1.783 3.916-5.951 24.788-1.193 5.222 5.361 1.951 10.724 2.611h-.014zM689.509 156.327h1.165l5.811-24.129 2.906-8.477-1.741-.646-17.447 5.867-.575 2.611 5.811 15.004 3.495 9.138.575.646v-.014zM686.477 159.583l3.032-.646-4.239-9.137-5.446-13.7-2.428-4.562-1.207 2.611-3.032 15.651-1.207 5.221 4.239 1.951 10.288 2.611zM669.199 153.07l1.095-.645 3.817-19.567v-2.611l-5.446 1.306-7.074 2.61-.547 1.952 3.818 7.832 3.27 7.832 1.095 1.305-.028-.014zM665.563 155.021h2.555l-3.579-7.832-3.579-9.138-1.53-1.305-3.06 12.394.505 3.256 8.688 2.611v.014z" fill="#fff" stroke="#1D1D1B" stroke-width=".461" stroke-miterlimit="10"/><path d="M640.425 148.494l6.428 1.951 4.099 1.306 1.754-.646-1.165-2.611-5.263-7.832-1.165-.645-2.344 5.221" fill="#fff"/><path d="M640.425 148.494l6.428 1.951 4.099 1.306 1.754-.646-1.165-2.611-5.263-7.832-1.165-.645-2.344 5.221" stroke="#1D1D1B" stroke-width=".461" stroke-miterlimit="10"/><path d="M641.547 145.069l1.699-3.916v-1.951l-5.081 1.306-1.699.645 1.137 3.257 1.699 3.916 2.259-3.257h-.014zM654.04 149.8l1.108-1.306 2.766-11.088v-1.951l-4.436.645-5.544 2.611 1.109 3.256 3.874 6.527 1.109 1.306h.014zM636.396 148.494h1.951l-1.305-2.61-1.951-3.257-2.611 1.306-1.305 3.256 5.221 1.305z" fill="#fff" stroke="#1D1D1B" stroke-width=".461" stroke-miterlimit="10"/><path d="M603.214 207.727l37.21 55.724 27.68-12.142 25.419-4.618h7.622l20.03 5.797 21.685 13.98 40.326-53.407 9.208 59.204-51.864 62.237-94.912-1.488-51.597-60.749 9.193-64.538z" fill="#49392C" stroke="#1D1D1B" stroke-width="1.844" stroke-miterlimit="10"/><path d="M644.776 328.34c.561 0-8.085 20.773-8.085 20.773l32.086 27.806h44.032l28.592-18.654-1.727-28.592" fill="#49392C"/><path d="M644.776 328.34c.561 0-8.085 20.773-8.085 20.773l32.086 27.806h44.032l28.592-18.654-1.727-28.592" stroke="#1D1D1B" stroke-width="1.844" stroke-miterlimit="10"/><path d="M711.377 235.112h41.912M627.778 235.112h41.912" stroke="#49392C" stroke-width="1.844" stroke-miterlimit="10"/><path d="M726.565 185.129c10.418 0 18.864 8.515 18.864 19.019 0 10.504-8.446 19.019-18.864 19.019-10.419 0-18.865-8.515-18.865-19.019 0-10.504 8.446-19.019 18.865-19.019z" fill="#fff" stroke="#1D1D1B" stroke-width=".691" stroke-miterlimit="10"/><path d="M726.48 202.351s-1.614.098-.561 1.137c1.951 1.923 3.734-.744 2.47-2.148-1.277-1.403-4.126-1.15-5.165.197-1.137 1.488-.772 4.07 1.572 4.885 2.344.814 6.218.14 6.808-2.583.589-2.723-.8-4.786-3.79-5.881-2.99-1.095-6.569-.211-8.281 2.175-2.12 2.934-1.292 6.331-.688 7.411 1.109 2.022 3.804 4.085 8.857 4.141 5.151.056 7.804-3.677 8.407-6.555.716-3.425-.617-6.807-4.211-9.151-3.593-2.344-11.004-2.106-13.278-.183-2.274 1.923-4.07 4.408-4.323 9.194-.281 5.235 3.383 8.66 8.239 10.12 6.541 1.979 10.57-.884 12.759-2.021 1.741-.899 3.86-3.523 4.758-7.524.899-4 .295-9.011-3.003-12.015-4.618-4.196-12.717-4.463-15.117-3.733-2.4.73-4.492 2.091-7.804 5.235-1.909 1.811-3.032 5.053-3.636 7.355-.603 2.302-.589 5.853.463 8.338 2.302 5.418 5.966 7.116 7.861 8.042 4.505 2.204 13.839 2.26 20.745-5.081 4.113-4.365 8.113-13.25-.561-22.752-10.752-11.777-26.178-.239-28.873 3.832" fill="#fff"/><path d="M726.48 202.351s-1.614.098-.561 1.137c1.951 1.923 3.734-.744 2.47-2.148-1.277-1.403-4.126-1.15-5.165.197-1.137 1.488-.772 4.07 1.572 4.885 2.344.814 6.218.14 6.808-2.583.589-2.723-.8-4.786-3.79-5.881-2.99-1.095-6.569-.211-8.281 2.175-2.12 2.934-1.292 6.331-.688 7.411 1.109 2.022 3.804 4.085 8.857 4.141 5.151.056 7.804-3.677 8.407-6.555.716-3.425-.617-6.807-4.211-9.151-3.593-2.344-11.004-2.106-13.278-.183-2.274 1.923-4.07 4.408-4.323 9.194-.281 5.235 3.383 8.66 8.239 10.12 6.541 1.979 10.57-.884 12.759-2.021 1.741-.899 3.86-3.523 4.758-7.524.899-4 .295-9.011-3.003-12.015-4.618-4.196-12.717-4.463-15.117-3.733-2.4.73-4.492 2.091-7.804 5.235-1.909 1.811-3.032 5.053-3.636 7.355-.603 2.302-.589 5.853.463 8.338 2.302 5.418 5.966 7.116 7.861 8.042 4.505 2.204 13.839 2.26 20.745-5.081 4.113-4.365 8.113-13.25-.561-22.752-10.752-11.777-26.178-.239-28.873 3.832" stroke="#1D1D1B" stroke-width=".922" stroke-miterlimit="10"/><path d="M652.285 184.918c10.419 0 18.865 8.515 18.865 19.019 0 10.504-8.446 19.019-18.865 19.019-10.419 0-18.865-8.515-18.865-19.019 0-10.504 8.446-19.019 18.865-19.019z" fill="#fff" stroke="#1D1D1B" stroke-width=".922" stroke-miterlimit="10"/><path d="M652.187 202.141s-1.615.098-.562 1.137c1.951 1.923 3.734-.744 2.471-2.148-1.278-1.403-4.127-1.151-5.166.197-1.137 1.488-.772 4.07 1.572 4.884 2.344.814 6.218.141 6.808-2.582.589-2.723-.8-4.787-3.79-5.881-2.99-1.095-6.569-.211-8.281 2.175-2.12 2.934-1.292 6.33-.688 7.411 1.109 2.021 3.804 4.085 8.857 4.141 5.151.056 7.804-3.678 8.407-6.555.716-3.425-.617-6.808-4.21-9.152-3.594-2.344-11.005-2.105-13.279-.182-2.273 1.923-4.07 4.407-4.323 9.194-.28 5.235 3.383 8.66 8.239 10.12 6.541 1.979 10.57-.885 12.759-2.021 1.741-.899 3.86-3.524 4.759-7.524.898-4 .294-9.011-3.004-12.015-4.618-4.197-12.717-4.463-15.117-3.733-2.4.729-4.492 2.091-7.804 5.235-1.909 1.811-3.032 5.053-3.636 7.355-.603 2.302-.589 5.853.464 8.338 2.302 5.417 5.965 7.116 7.86 8.042 4.506 2.204 13.84 2.26 20.745-5.081 4.113-4.365 8.113-13.25-.561-22.753-10.752-11.776-26.178-.238-28.873 3.832" fill="#fff"/><path d="M652.187 202.141s-1.615.098-.562 1.137c1.951 1.923 3.734-.744 2.471-2.148-1.278-1.403-4.127-1.151-5.166.197-1.137 1.488-.772 4.07 1.572 4.884 2.344.814 6.218.141 6.808-2.582.589-2.723-.8-4.787-3.79-5.881-2.99-1.095-6.569-.211-8.281 2.175-2.12 2.934-1.292 6.33-.688 7.411 1.109 2.021 3.804 4.085 8.857 4.141 5.151.056 7.804-3.678 8.407-6.555.716-3.425-.617-6.808-4.21-9.152-3.594-2.344-11.005-2.105-13.279-.182-2.273 1.923-4.07 4.407-4.323 9.194-.28 5.235 3.383 8.66 8.239 10.12 6.541 1.979 10.57-.885 12.759-2.021 1.741-.899 3.86-3.524 4.759-7.524.898-4 .294-9.011-3.004-12.015-4.618-4.197-12.717-4.463-15.117-3.733-2.4.729-4.492 2.091-7.804 5.235-1.909 1.811-3.032 5.053-3.636 7.355-.603 2.302-.589 5.853.464 8.338 2.302 5.417 5.965 7.116 7.86 8.042 4.506 2.204 13.84 2.26 20.745-5.081 4.113-4.365 8.113-13.25-.561-22.753-10.752-11.776-26.178-.238-28.873 3.832" stroke="#1D1D1B" stroke-width=".922" stroke-miterlimit="10"/><path d="M1123.26 366.421l126.49-.731 80.31-81.114-7.15-28.125 17.54-21.094-4.69-48.034 21.38-39.396-25.12-46.865 25.12-54.802-21.38-16.577-66.95 29.339-53.36-29.339-83.54 9.195-31.56 20.144-58.53-29.339-15.58 51.192 16.44 32.452-16.44 46.149 16.27 60.635-13.49 21.941 14.12 23.082-.69 25.055 80.81 76.232z" fill="#49392C" stroke="#1D1D1B" stroke-width="3.309" stroke-miterlimit="10"/><path d="M1215.41 123.559l6.75-27.13 10.76-1.638 39.94-12.264 20.74-5.716 21.5-.818-.77-13.902V40.837l9.98-44.132 7.68-32.685v-2.456h-36.09l-19.21 40.872-2.31 5.715-1.54.819-2.31-9.809-9.98-31.063-2.31-6.534-15.36-.819h-116.74l-3.85 4.093-10.76 28.608-5.37 13.901-1.54.819-1.53-5.716-9.23-17.98-10.76-22.073-.77-.818h-25.35l-13.05.818 1.53 8.99 5.38 18.799 6.14 19.617 7.67 27.789.78 18.798-.78 17.162 20.75 1.637 13.83 3.274 46.85 14.706 8.45 2.456 8.88 27.949" fill="#0D0E1B"/><path d="M1215.41 123.559l6.75-27.13 10.76-1.638 39.94-12.264 20.74-5.716 21.5-.818-.77-13.902V40.837l9.98-44.132 7.68-32.685v-2.456h-36.09l-19.21 40.872-2.31 5.715-1.54.819-2.31-9.809-9.98-31.063-2.31-6.534-15.36-.819h-116.74l-3.85 4.093-10.76 28.608-5.37 13.901-1.54.819-1.53-5.716-9.23-17.98-10.76-22.073-.77-.818h-25.35l-13.05.818 1.53 8.99 5.38 18.799 6.14 19.617 7.67 27.789.78 18.798-.78 17.162 20.75 1.637 13.83 3.274 46.85 14.706 8.45 2.456 8.88 27.949" stroke="#fff" stroke-width=".276" stroke-miterlimit="10"/><path d="M1246.81 23.617h6.91v-36.106l-9.22-7.674-5.38-4.605-3.07.775L1223-14.01l-2.31 2.31-.78 3.07-.77 30.726.77.775 26.88.774.02-.029z" fill="#FBFBFB" stroke="#fff" stroke-width=".276" stroke-miterlimit="10"/><path d="M1287.87 286.111l-22.57-116.139a14.554 14.554 0 00-4.24-6.578c-12.04-10.715-56.15-49.818-62.59-53.166-7.47-3.903-17.22 0-17.22 0l-62.41 46.704a14.656 14.656 0 00-5.38 7.967l-25.17 117.499 199.55 3.713h.03z" fill="#FDF2DE" stroke="#1D1D1B" stroke-width="2.206" stroke-miterlimit="10"/><path d="M1084.83 298.755l4.75-60.357 43.98 42.421 29.63-12.542 26.46-4.809h7.95l20.86 6.037 22.59 14.559 42.79-43.707 9.15 52.975" fill="#49392C"/><path d="M1084.83 298.755l4.75-60.357 43.98 42.421 29.63-12.542 26.46-4.809h7.95l20.86 6.037 22.59 14.559 42.79-43.707 9.15 52.975" stroke="#1D1D1B" stroke-width="2.206" stroke-miterlimit="10"/><path d="M1163.53 153.088l25.57 13.302 30.74-13.302h-56.31z" fill="#703F42" stroke="#1D1D1B" stroke-width="1.103" stroke-miterlimit="10"/><path d="M1207.47 211.544v19.925l54.15 5.642-6.07-21.664-48.08-3.903z" fill="#fff" stroke="#1D1D1B" stroke-width="1.655" stroke-miterlimit="10"/><path d="M1234.81 214.556c5.16 0 9.34 4.293 9.34 9.589s-4.18 9.589-9.34 9.589-9.34-4.293-9.34-9.589 4.18-9.589 9.34-9.589z" fill="#fff" stroke="#1D1D1B" stroke-width=".552" stroke-miterlimit="10"/><path d="M1234.75 223.239s-.81.044-.28.57c.97.965 1.86-.38 1.23-1.081-.63-.717-2.05-.585-2.56.102-.55.745-.38 2.046.78 2.456 1.15.409 3.08.073 3.37-1.301.29-1.374-.39-2.412-1.88-2.968-1.49-.555-3.26-.102-4.11 1.097-1.05 1.476-.64 3.186-.34 3.742.56 1.023 1.89 2.061 4.39 2.09 2.5.029 3.87-1.856 4.16-3.304.35-1.724-.3-3.435-2.09-4.619-1.78-1.184-5.45-1.067-6.57-.087-1.13.979-2.02 2.221-2.14 4.633-.13 2.646 1.67 4.371 4.08 5.102 3.25.994 5.23-.438 6.33-1.023.86-.453 1.91-1.769 2.35-3.786.44-2.018.15-4.546-1.49-6.052-2.28-2.12-6.3-2.251-7.48-1.886-1.19.366-2.22 1.053-3.88 2.646-.95.906-1.5 2.544-1.79 3.713-.3 1.169-.3 2.953.23 4.21 1.14 2.734 2.95 3.581 3.89 4.049 2.23 1.111 6.85 1.14 10.27-2.558 2.04-2.207 4.02-6.68-.27-11.475-5.32-5.935-12.97-.117-14.3 1.93" fill="#fff"/><path d="M1234.75 223.239s-.81.044-.28.57c.97.965 1.86-.38 1.23-1.081-.63-.717-2.05-.585-2.56.102-.55.745-.38 2.046.78 2.456 1.15.409 3.08.073 3.37-1.301.29-1.374-.39-2.412-1.88-2.968-1.49-.555-3.26-.102-4.11 1.097-1.05 1.476-.64 3.186-.34 3.742.56 1.023 1.89 2.061 4.39 2.09 2.5.029 3.87-1.856 4.16-3.304.35-1.724-.3-3.435-2.09-4.619-1.78-1.184-5.45-1.067-6.57-.087-1.13.979-2.02 2.221-2.14 4.633-.13 2.646 1.67 4.371 4.08 5.102 3.25.994 5.23-.438 6.33-1.023.86-.453 1.91-1.769 2.35-3.786.44-2.018.15-4.546-1.49-6.052-2.28-2.12-6.3-2.251-7.48-1.886-1.19.366-2.22 1.053-3.88 2.646-.95.906-1.5 2.544-1.79 3.713-.3 1.169-.3 2.953.23 4.21 1.14 2.734 2.95 3.581 3.89 4.049 2.23 1.111 6.85 1.14 10.27-2.558 2.04-2.207 4.02-6.68-.27-11.475-5.32-5.935-12.97-.117-14.3 1.93" stroke="#1D1D1B" stroke-width=".552" stroke-miterlimit="10"/><path d="M1168.08 211.544v19.925l-54.15 5.642 6.07-21.664 48.08-3.903z" fill="#fff" stroke="#1D1D1B" stroke-width="1.655" stroke-miterlimit="10"/><path d="M1140.76 214.556c5.15 0 9.34 4.293 9.34 9.589s-4.19 9.589-9.34 9.589c-5.16 0-9.35-4.293-9.35-9.589s4.19-9.589 9.35-9.589z" stroke="#1D1D1B" stroke-width=".552" stroke-miterlimit="10"/><path d="M1140.8 223.239s.8.044.28.57c-.97.965-1.86-.38-1.23-1.081.63-.717 2.05-.585 2.56.102.55.745.38 2.046-.78 2.456-1.15.409-3.08.073-3.37-1.301-.3-1.374.39-2.412 1.88-2.968 1.49-.555 3.26-.102 4.11 1.097 1.05 1.476.64 3.186.34 3.742-.56 1.023-1.89 2.061-4.39 2.09-2.5.029-3.87-1.856-4.17-3.304-.35-1.724.31-3.435 2.09-4.619 1.79-1.184 5.46-1.067 6.58-.087 1.13.979 2.02 2.221 2.14 4.633.13 2.646-1.67 4.371-4.08 5.102-3.25.994-5.23-.438-6.33-1.023-.86-.453-1.92-1.769-2.35-3.786-.44-2.018-.15-4.546 1.49-6.052 2.28-2.12 6.3-2.251 7.48-1.886 1.18.366 2.22 1.053 3.87 2.646.95.906 1.51 2.544 1.8 3.713.29 1.169.29 2.953-.23 4.21-1.14 2.734-2.95 3.581-3.89 4.049-2.24 1.111-6.86 1.14-10.28-2.558-2.03-2.207-4.02-6.68.28-11.475 5.32-5.935 12.97-.117 14.3 1.93" stroke="#1D1D1B" stroke-width=".552" stroke-miterlimit="10"/><path d="M1209.97 241.993l43.09 6.973M1122.76 247.913l43.39-4.867" stroke="#49392C" stroke-width="3.309" stroke-miterlimit="10"/><path d="M1095.13 302.175h-22.52v-82.474h22.52v82.474zM1302.79 302.175h-22.52v-82.474h22.52v82.474z" fill="#49392C"/><path d="M1819.99 137.719l18.65-19.318 9.73 3.804 39.1 8.974 19.99 5.206 18.27 9.643 6.03-11.932 10.21-17.674 29.49-31.905 22.07-23.496 1.18-2.042-30.01-17.328-35.6 24.766-4.66 3.644-1.67-.056 2.79-9.265 6.61-30.625 1.22-6.542-12.39-8.057-97.07-56.046-5.16 1.558-22.69 18.623-11.14 8.977-1.67-.056 1.47-5.49.96-19.38 1.65-23.52-.25-1.053-21.08-12.169-11.25-5.586-3.04 8.212-4.55 18.215-4.31 19.26-6.96 26.793-8.38 16.004-8.89 13.9 16.46 11.32 9.93 9.361 31.9 34.722 5.85 6.098-6.03 27.509" fill="#0D0E1B"/><path d="M1894.09 69.686l5.75 3.32 17.33-30.025-3.98-10.81-2.27-6.412-2.92-.83-15.65 2.036-3.03.811-2.12 2.181-15.39 25.18.27 1.016 21.98 13.55.03-.017z" fill="#FBFBFB"/><path d="M1812.28 312.472l13.22-53.47 14.05-56.878c.57-2.494.44-5.08-.36-7.506-4.88-14.693-22.78-68.383-26.53-74.261-4.34-6.832-14.32-8.268-14.32-8.268l-74.31 8.877c-3.15.371-6.07 1.8-8.3 4.043l-86.52 87.165" fill="#FDDCB7"/><path d="M1812.28 312.472l13.22-53.47 14.05-56.878c.57-2.494.44-5.08-.36-7.506-4.88-14.693-22.78-68.383-26.53-74.261-4.34-6.832-14.32-8.268-14.32-8.268l-74.31 8.877c-3.15.371-6.07 1.8-8.3 4.043l-86.52 87.165" stroke="#1D1D1B" stroke-width="1.844" stroke-miterlimit="10"/><path d="M1758.87 231.748l51.72 28.547.9-20.647-7.1-9.331-20.79-8.083-24.73 9.514z" fill="#fff" stroke="#1D1D1B" stroke-width="1.844" stroke-miterlimit="10"/><path d="M1790.76 240.875s-.84-.421-.62.403c.43 1.529 2.11.718 1.88-.359-.24-1.077-1.76-1.791-2.67-1.412a1.825 1.825 0 00-.62 2.919c.95 1.101 3.11 1.891 4.21.693 1.09-1.199.98-2.639-.22-4.063s-3.27-2.033-4.83-1.327c-1.91.853-1.96 2.9-1.97 3.61-.02 1.332.65 2.159 2.97 3.706 1.43.954 3.81 1.198 5.48-.318 1.51-1.369 2.15-3.248 1.01-5.48s-4.97-4.279-6.67-3.966c-1.71.313-3.33 1.026-4.86 3.356-1.65 2.548.11 5.477 1.65 6.771 1.57 1.327 5.35 3.295 6.74 2.882 1.38-.414 2.6-.309 4.22-2.067 1.61-1.758 2.44-4.136 1.63-6.593-1.12-3.451-4.95-5.372-6.38-5.709-1.42-.338-2.47-.929-5.06-.317-1.49.357-3.31 1.411-4.29 2.402-.98.992-2.12 2.684-2.31 4.245-.4 3.397.7 3.708.7 3.708l13.29 7.3s9.01-3.484 6.4-12.432c-2.61-8.91-13.34-8.089-15.88-6.832-2.83 1.395-5.51 1.958-7.7 9.831" stroke="#1D1D1B" stroke-width=".691" stroke-miterlimit="10"/><path d="M1732.19 216.343l-50.59-30.517 17.43-11.103 11.63 1.478 17.4 13.967 4.13 26.175z" fill="#fff" stroke="#1D1D1B" stroke-width="1.844" stroke-miterlimit="10"/><path d="M1708.33 193.285s.79.519-.03.74c-1.54.392-1.68-1.472-.63-1.805 1.05-.333 2.43.624 2.56 1.607.13 1.083-.79 2.266-2.22 1.992-1.43-.275-3.19-1.745-2.71-3.294.49-1.549 1.8-2.175 3.63-1.845 1.84.33 3.39 1.814 3.56 3.515.22 2.089-1.53 3.153-2.14 3.513-1.14.686-2.19.516-4.69-.716-1.54-.759-2.94-2.704-2.47-4.908.44-1.986 1.74-3.487 4.24-3.613 2.51-.126 6.19 2.164 6.78 3.796.58 1.632.77 3.398-.48 5.882-1.39 2.703-4.8 2.643-6.69 1.957-1.93-.695-5.53-2.979-5.86-4.389-.34-1.41-1.04-2.414-.33-4.692.72-2.277 2.37-4.178 4.9-4.712 3.54-.755 7.13 1.604 8.13 2.671 1.01 1.066 2.04 1.682 2.81 4.231.43 1.466.43 3.572.06 4.915-.37 1.342-1.26 3.175-2.52 4.118-2.74 2.049-3.56 1.252-3.56 1.252l-12.97-7.859s-1.49-9.548 7.57-11.758c9.06-2.211 13.67 7.505 13.86 10.333.2 3.15 1.05 5.748-4.67 11.587" stroke="#1D1D1B" stroke-width=".691" stroke-miterlimit="10"/><path d="M1736.06 348.514l40.57 29.551 47.61-35.25-.79-24.755-2.09-40.039-41.08 10.69-21.1-26.735-24.7-6.626-21.85-20.246-26.39 4.987-27.4-15.819 3.27-45.213-55.22 42.014-3.73 56.837 45.87 20.361 18.76 31.852 29.94-1.599 18.67 23.992 19.66-4.002z" fill="#1D1D1B" stroke="#1D1D1B" stroke-width=".922" stroke-miterlimit="10"/><path d="M1771.96 147.444l24.55 14.17" stroke="#1D1D1B" stroke-width="1.844" stroke-miterlimit="10"/><path d="M1763.55 148.826l-1.54 10.164 9.3-2.8 1.7 5.781 5.2.846.93 6.062 7.45-3.395 2.43 9.1 6.09-5.608 3.15 5.414 2.39-4.145" stroke="#1D1D1B" stroke-width="2.766" stroke-miterlimit="10"/><path d="M1825.55 136.713l-3.99 6.917s-9.48.751-8.72.332c.4-.221 1.82-1.947 3.05-3.489l-3.99.565-2.01.703.55-.495-5.42.762 4.95-11.663-.11.031-10.45 8.39.59-6.253-7.22 1.566-1.22-8.059-7.97 5.672 2.08-13.452-7.7 10.209-1.62-6.234-.29 1.403-1.18-6.177c-.81 1.983-1.83 4.651-1.83 5.185.02.869-4.07-7.715-4.07-7.715l3.99-6.916 1.95 4.996.5-.278 4.22-6.104-.89 4.235 7.43-4.188-.13 2.922 9.93-3.372-.25 4.425 13.18-.768 2.09 8.256 4.29-2.824-.58 11.983 5.1-3.247-.24 9.054 3.26-2.918-3.37 7.099-.01.414 6.09-.923.01-.044z" fill="#1D1D1B" stroke="#fff" stroke-width=".23" stroke-miterlimit="10"/><path d="M1755.38 244.046l36.3 20.956M1682.98 202.247l36.3 20.956" stroke="#1D1D1B" stroke-width="1.844" stroke-miterlimit="10"/><path d="M1732.56 344.323l35.53 36.719.65 1.675-.89.135-35.85-37.556.56-.973z" fill="#1E4E9D" stroke="#0D2A5C" stroke-width=".461"/><path opacity=".8" d="M1732 345.296l35.85 37.556" stroke="#fff" stroke-width=".369"/><path d="M1768.09 381.042l.65 1.675-.45.224-.59-.664.39-1.235z" fill="#2E5A8A" stroke="#1E4E9D" stroke-width=".184"/><path d="M1733.55 345.703l-14.83-8.562a1.259 1.259 0 01-.47-1.725 1.269 1.269 0 011.73-.463l14.83 8.562c.6.349.81 1.122.46 1.726-.35.604-1.12.811-1.72.462z" fill="#1E4E9D" stroke="#0D2A5C" stroke-width=".277"/><path d="M1714.54 325.005a7.014 7.014 0 012.57 9.587 7.021 7.021 0 01-9.59 2.569 7.014 7.014 0 01-2.57-9.587 7.022 7.022 0 019.59-2.569z" stroke="#1E4E9D" stroke-width="1.106"/><path d="M1713.84 326.221a5.617 5.617 0 012.05 7.669 5.613 5.613 0 11-9.72-5.614 5.614 5.614 0 017.67-2.055z" stroke="#2E5A8A" stroke-width=".369"/><path d="M1713.28 327.193a4.499 4.499 0 011.64 6.136 4.497 4.497 0 01-6.14 1.644 4.498 4.498 0 01-1.64-6.136 4.497 4.497 0 016.14-1.644z" stroke="#4A90E2" stroke-width=".184"/><path d="M1738.5 339.649l35.53 36.719.65 1.674-.89.136-35.85-37.556.56-.973z" fill="#1E4E9D" stroke="#0D2A5C" stroke-width=".461"/><path opacity=".8" d="M1737.94 340.622l35.85 37.556" stroke="#fff" stroke-width=".369"/><path d="M1774.03 376.368l.65 1.674-.45.224-.59-.664.39-1.234z" fill="#2E5A8A" stroke="#1E4E9D" stroke-width=".184"/><path d="M1739.49 341.029l-14.83-8.562a1.269 1.269 0 01-.47-1.726 1.27 1.27 0 011.73-.462l14.83 8.562c.6.348.81 1.121.46 1.725-.35.604-1.12.812-1.72.463z" fill="#1E4E9D" stroke="#0D2A5C" stroke-width=".277"/><path d="M1720.48 320.331a7.014 7.014 0 012.57 9.587 7.022 7.022 0 01-9.59 2.569 7.014 7.014 0 01-2.57-9.587 7.021 7.021 0 019.59-2.569z" stroke="#1E4E9D" stroke-width="1.106"/><path d="M1719.78 321.547a5.617 5.617 0 012.05 7.669 5.615 5.615 0 01-7.67 2.055 5.617 5.617 0 01-2.05-7.669 5.613 5.613 0 017.67-2.055z" stroke="#2E5A8A" stroke-width=".369"/><path d="M1719.22 322.519a4.497 4.497 0 011.64 6.135 4.496 4.496 0 01-6.14 1.645 4.499 4.499 0 01-1.64-6.136 4.497 4.497 0 016.14-1.644z" stroke="#4A90E2" stroke-width=".184"/><path d="M1736.79 339.798a2.526 2.526 0 11-2.52 4.376 2.524 2.524 0 112.52-4.376z" fill="#0D2A5C" stroke="#1E4E9D" stroke-width=".369"/><path d="M1736.37 340.528c.81.465 1.08 1.495.62 2.3a1.686 1.686 0 01-2.92-1.684 1.685 1.685 0 012.3-.616z" fill="#1E4E9D"/><path d="M1735.95 341.257c.4.232.54.747.31 1.15a.842.842 0 11-.31-1.15z" fill="#2E5A8A"/><path d="M1734.56 341.425l1.94 1.123" stroke="#0D2A5C" stroke-width=".277"/><path opacity=".6" d="M1738.29 348.44l24.42 27.878M1744.23 343.766l24.42 27.878" stroke="#fff" stroke-width=".184"/><path d="M1727.11 339.72c.27.155.36.499.21.767a.566.566 0 01-.77.206.554.554 0 01-.2-.767.552.552 0 01.76-.206zM1733.05 335.046c.27.155.36.498.21.767a.566.566 0 01-.77.206.555.555 0 01-.2-.767c.15-.269.5-.361.76-.206z" fill="#0D2A5C"/><path d="M1697.72 348.521l5.94-4.674" stroke="#1D1D1B" stroke-width=".738"/><path d="M1714.55 361.479l4.73-5.376" stroke="#1D1D1B" stroke-width=".553"/><path d="M1735.59 367.144l7.16-3.973" stroke="#1D1D1B" stroke-width=".645"/><path d="M1683 331.916l5.94-4.674" stroke="#1D1D1B" stroke-width=".461"/><path d="M1752.42 380.102l5.24-3.458" stroke="#1D1D1B" stroke-width=".553"/><path d="M1663.36 323.82l5.94-4.674" stroke="#1D1D1B" stroke-width=".645"/><path d="M1763.88 388.336l5.23-3.459" stroke="#1D1D1B" stroke-width=".461"/></g><path stroke="#1E4E9D" stroke-opacity=".39" stroke-width="12" d="M6 6H1914V1074H6z"/><defs><filter id="b" x="144.928" y="438.025" width="1631.55" height="228.13" filterUnits="userSpaceOnUse" color-interpolation-filters="sRGB"><feFlood flood-opacity="0" result="BackgroundImageFix"/><feColorMatrix in="SourceAlpha" values="0 0 0 0 0 0 0 0 0 0 0 0 0 0 0 0 0 0 127 0" result="hardAlpha"/><feOffset dy="6.455"/><feGaussianBlur stdDeviation="19.85"/><feComposite in2="hardAlpha" operator="out"/><feColorMatrix values="0 0 0 0 0.00392157 0 0 0 0 0.286275 0 0 0 0 0.686275 0 0 0 0.41 0"/><feBlend in2="BackgroundImageFix" result="effect1_dropShadow_89_111"/><feColorMatrix in="SourceAlpha" values="0 0 0 0 0 0 0 0 0 0 0 0 0 0 0 0 0 0 127 0" result="hardAlpha"/><feOffset dy="6.455"/><feGaussianBlur stdDeviation="14.121"/><feComposite in2="hardAlpha" operator="out"/><feColorMatrix values="0 0 0 0 0 0 0 0 0 0 0 0 0 0 0 0 0 0 0.37 0"/><feBlend in2="effect1_dropShadow_89_111" result="effect2_dropShadow_89_111"/><feBlend in="SourceGraphic" in2="effect2_dropShadow_89_111" result="shape"/></filter><filter id="c" x="821.861" y="402.774" width="275.274" height="275.275" filterUnits="userSpaceOnUse" color-interpolation-filters="sRGB"><feFlood flood-opacity="0" result="BackgroundImageFix"/><feBlend in="SourceGraphic" in2="BackgroundImageFix" result="shape"/><feTurbulence type="fractalNoise" baseFrequency="1.9936466217041016 1.9936466217041016" numOctaves="3" seed="8867"/><feDisplacementMap in="shape" scale="36.516" xChannelSelector="R" yChannelSelector="G" result="displacedImage"/><feMerge result="effect1_texture_89_111"><feMergeNode in="displacedImage"/></feMerge></filter><filter id="d" x="865.594" y="450.519" width="188.05" height="188.05" filterUnits="userSpaceOnUse" color-interpolation-filters="sRGB"><feFlood flood-opacity="0" result="BackgroundImageFix"/><feColorMatrix in="SourceAlpha" values="0 0 0 0 0 0 0 0 0 0 0 0 0 0 0 0 0 0 127 0" result="hardAlpha"/><feOffset dy="4.013"/><feGaussianBlur stdDeviation="13.844"/><feComposite in2="hardAlpha" operator="out"/><feColorMatrix values="0 0 0 0 0.00392157 0 0 0 0 0.286275 0 0 0 0 0.686275 0 0 0 1 0"/><feBlend in2="BackgroundImageFix" result="effect1_dropShadow_89_111"/><feBlend in="SourceGraphic" in2="effect1_dropShadow_89_111" result="shape"/></filter><clipPath id="a"><path fill="#fff" d="M0 0H1920V1080H0z"/></clipPath></defs></svg>