<svg width="71" height="37" fill="none" xmlns="http://www.w3.org/2000/svg"><g clip-path="url(#a)"><path d="M.134 33.38h2.332v-9.208l3.61 8.027c.426.972 1.009 1.316 2.152 1.316 1.144 0 1.705-.344 2.13-1.316l3.61-8.027v9.208H16.3v-9.193c0-.897-.358-1.33-1.098-1.555-1.771-.553-2.96-.075-3.498 1.121L8.16 31.676l-3.43-7.923c-.516-1.196-1.727-1.674-3.498-1.12-.74.223-1.1.657-1.1 1.554v9.193h.001zm18.105-7.494h2.331v5.073c-.022.276.088.923 1.366.943.652.01 5.03 0 5.07 0v-6.04h2.337c.011 0-.002 8.237-.002 8.272.013 2.032-2.52 2.473-3.688 2.507h-7.364v-1.569c.013 0 7.358.002 7.377 0 1.5-.159 1.323-.905 1.323-1.156v-.611h-4.956c-2.306-.022-3.775-1.028-3.793-2.186-.002-.107.05-5.182-.001-5.233z" fill="#00618A"/><path d="M31.142 33.38h6.704c.785 0 1.547-.163 2.153-.448 1.009-.463 1.502-1.09 1.502-1.913v-1.704c0-.673-.56-1.3-1.66-1.719-.582-.224-1.3-.344-1.995-.344h-2.825c-.942 0-1.39-.284-1.502-.912-.023-.075-.023-.135-.023-.21v-1.06c0-.06 0-.12.023-.195.112-.478.358-.613 1.188-.687.067 0 .157-.015.224-.015h6.66v-1.555h-6.548c-.941 0-1.435.06-1.883.195-1.39.433-1.996 1.12-1.996 2.317v1.36c0 1.046 1.189 1.943 3.184 2.152.225.015.449.03.673.03h2.422c.09 0 .18 0 .247.015.74.06 1.053.194 1.278.463.134.135.179.27.179.419v1.36c0 .165-.112.374-.336.553-.202.18-.539.3-.987.33-.09 0-.157.014-.247.014h-6.435v1.554zm24.906-2.705c0 1.6 1.189 2.497 3.588 2.676.224.015.448.03.673.03h6.076v-1.554h-6.12c-1.369 0-1.885-.344-1.885-1.166v-8.043h-2.332v8.057zm-13.06.082v-5.542c0-1.408.99-2.262 2.944-2.532.209-.03.419-.045.63-.045h4.426c.224 0 .427.015.651.045 1.955.27 2.944 1.124 2.944 2.532v5.542c0 1.142-.42 1.754-1.388 2.152l2.297 2.073h-2.707l-1.859-1.677-1.87.119H46.56c-.427 0-.876-.06-1.37-.195-1.483-.405-2.202-1.184-2.202-2.472zm2.517-.135c0 .075.023.15.046.24.134.644.741 1.004 1.662 1.004h2.119l-1.946-1.757h2.707l1.698 1.532c.312-.167.518-.421.59-.749.023-.075.023-.15.023-.224V25.35c0-.06 0-.135-.023-.21-.135-.6-.741-.944-1.64-.944h-3.527c-1.034 0-1.708.45-1.708 1.154v5.272z" fill="#E48E00"/><path d="M68.436 20.04c-1.433-.04-2.53.094-3.465.488-.267.112-.69.114-.733.448.147.153.169.382.285.57.223.364.6.847.937 1.1.369.279.748.576 1.142.816.701.429 1.484.672 2.16 1.1.399.253.794.573 1.181.858.193.14.322.36.572.448v-.041c-.132-.168-.165-.396-.287-.57l-.528-.531c-.52-.688-1.177-1.291-1.876-1.792-.557-.402-1.805-.943-2.037-1.59l-.042-.04c.396-.046.859-.19 1.224-.288.612-.163 1.16-.121 1.792-.285.287-.082.572-.161.857-.243v-.164c-.32-.328-.548-.762-.897-1.06-.913-.777-1.908-1.553-2.934-2.2-.569-.36-1.273-.593-1.876-.897-.202-.103-.558-.156-.692-.327-.318-.403-.49-.915-.733-1.385a52.081 52.081 0 01-1.468-3.098c-.31-.707-.511-1.404-.897-2.038-1.85-3.043-3.843-4.88-6.93-6.685-.656-.384-1.447-.536-2.282-.734l-1.345-.081c-.273-.115-.558-.45-.815-.612-1.022-.645-3.645-2.05-4.402-.203-.478 1.165.715 2.303 1.141 2.894.3.414.683.879.897 1.345.14.306.165.613.285.937.297.799.554 1.667.938 2.405.193.373.407.766.652 1.1.15.205.407.295.448.612-.252.352-.266.899-.407 1.345-.637 2.008-.397 4.505.53 5.99.284.458.953 1.437 1.874 1.061.806-.328.626-1.345.856-2.241.052-.204.02-.353.123-.49v.041l.733 1.468c.543.874 1.507 1.787 2.323 2.405.424.32.757.873 1.305 1.06v-.042h-.041c-.106-.165-.272-.234-.407-.366a9.345 9.345 0 01-.938-1.059c-.743-1.01-1.399-2.114-1.997-3.262-.286-.548-.534-1.154-.775-1.712-.092-.215-.091-.54-.285-.652-.263.41-.652.74-.856 1.223-.326.772-.368 1.713-.489 2.69-.071.026-.04.008-.081.04-.568-.136-.768-.72-.978-1.222-.534-1.268-.633-3.31-.164-4.769.122-.378.67-1.567.449-1.916-.106-.348-.456-.55-.652-.815a6.386 6.386 0 01-.653-1.141c-.436-.989-.64-2.099-1.1-3.098-.22-.478-.591-.961-.897-1.386-.337-.47-.716-.817-.978-1.386-.093-.202-.22-.526-.082-.734.045-.14.107-.198.245-.244.237-.182.895.06 1.141.163.654.271 1.2.53 1.753.897.266.176.535.517.856.611h.367c.574.132 1.217.041 1.753.204.947.288 1.796.736 2.567 1.223 2.35 1.483 4.27 3.595 5.585 6.114.21.405.302.792.489 1.223.375.867.848 1.76 1.222 2.608.373.846.737 1.7 1.263 2.405.278.37 1.35.569 1.834.774.341.144.9.295 1.224.49.617.372 1.215.815 1.794 1.223.289.204 1.177.65 1.222 1.019z" fill="#00618A"/><path fill-rule="evenodd" clip-rule="evenodd" d="M50.216 4.51a2.904 2.904 0 00-.734.081v.04h.04c.144.293.395.482.572.734l.407.856.04-.04c.253-.179.369-.463.368-.897-.102-.107-.117-.24-.204-.367-.117-.17-.342-.266-.49-.408z" fill="#00618A"/><path fill-rule="evenodd" clip-rule="evenodd" d="M67.48 31.782c0 1.027.81 1.718 1.718 1.718.907 0 1.718-.691 1.718-1.718 0-1.027-.811-1.718-1.718-1.718-.908 0-1.719.691-1.719 1.718zm3.051 0c0 .779-.595 1.361-1.333 1.361-.747 0-1.334-.582-1.334-1.361 0-.78.587-1.361 1.334-1.361.738 0 1.333.582 1.333 1.36zm-.87.98h.385l-.564-.86c.302-.033.531-.18.531-.537 0-.399-.252-.564-.737-.564h-.766v1.961h.33v-.847h.307l.513.848zm-.82-1.122v-.564h.38c.197 0 .435.037.435.266 0 .275-.215.298-.463.298h-.353z" fill="#E48E00"/></g><defs><clipPath id="a"><path fill="#fff" d="M0 0H71V36.68H0z"/></clipPath></defs></svg>