<svg width="20" height="23" fill="none" xmlns="http://www.w3.org/2000/svg"><path d="M20 0l-1.822 20.412-8.19 2.27-8.168-2.267L0 0h20z" fill="#E44D26"/><path d="M10 20.947l6.618-1.835 1.557-17.443H10v19.278z" fill="#F16529"/><path d="M6.458 6.677H10V4.173H3.722l.06.672.615 6.9H10V9.24H6.687l-.229-2.564zM7.022 12.996H4.51l.35 3.932 5.13 1.423.01-.003v-2.605l-.01.003-2.789-.753-.178-1.997z" fill="#EBEBEB"/><path d="M9.991 11.745h3.083l-.29 3.247-2.793.753v2.605l5.133-1.422.038-.423.588-6.592.061-.672h-5.82v2.504zM9.991 6.67v.007h6.048l.05-.563.114-1.27.06-.671H9.991v2.498z" fill="#fff"/></svg>