<svg width="33" height="33" fill="none" xmlns="http://www.w3.org/2000/svg"><path d="M9.724 10.004h-1.79l4.88 13.795 2.732-7.807-2.118-5.988h-1.889V8.689h8.364v1.315h-1.959l4.88 13.795 1.755-5.013c2.3-6.423-1.887-8.423-1.887-9.857a2.595 2.595 0 012.823-2.584 13.514 13.514 0 00-9.307-3.699c-4.709 0-8.856 2.4-11.288 6.043h4.804v1.315zM2.646 16.207c0 5.192 2.919 9.702 7.204 11.98L3.73 10.889a13.517 13.517 0 00-1.084 5.32zM28.01 9.525c.194 1.142.135 2.426-.163 3.715h.054l-.205.585c-.121.424-.274.856-.448 1.282L22.58 28.179c4.277-2.281 7.187-6.786 7.187-11.971 0-2.43-.64-4.71-1.758-6.683z" fill="#00769D"/><path d="M12.025 29.11c1.318.427 2.723.659 4.183.659 1.392 0 2.735-.21 4-.6L16.24 17.955 12.025 29.11z" fill="#00769D"/><path d="M27.668 4.747A16.102 16.102 0 0016.208 0c-4.33 0-8.4 1.686-11.46 4.747a16.101 16.101 0 00-4.748 11.46c0 4.33 1.686 8.4 4.747 11.46a16.101 16.101 0 0011.46 4.748c4.33 0 8.4-1.686 11.461-4.747a16.101 16.101 0 004.747-11.46c0-4.33-1.686-8.4-4.747-11.46zm-11.46 26.525c-8.307 0-15.065-6.758-15.065-15.064 0-8.307 6.758-15.065 15.064-15.065 8.307 0 15.065 6.758 15.065 15.064 0 8.307-6.758 15.065-15.065 15.065z" fill="#00769D"/></svg>