<svg width="40" height="39" fill="none" xmlns="http://www.w3.org/2000/svg"><path d="M7.088 0h25.824A7.083 7.083 0 0140 7.088v24.825A7.083 7.083 0 0132.912 39H7.088A7.11 7.11 0 010 31.88V7.088A7.063 7.063 0 017.088 0z" fill="#300"/><path d="M19.329 23.068h-6.214l-1.25 3.903c-.03.156-.155.25-.312.218H8.431c-.187 0-.219-.093-.187-.312l5.37-15.425c.063-.156.094-.344.156-.562.063-.344.094-.719.094-1.093-.031-.094.063-.156.125-.188h4.31c.124 0 .187.063.218.125l6.089 17.143c.062.188 0 .281-.156.281h-3.498c-.125.031-.218-.062-.28-.187l-1.343-3.903zm-5.246-3.404h4.215c-.093-.343-.218-.78-.374-1.187a15.65 15.65 0 01-.438-1.436c-.156-.53-.312-1.03-.468-1.53-.156-.53-.312-1-.437-1.468-.125-.468-.25-.905-.375-1.311h-.031a27.337 27.337 0 01-.562 2.155c-.25.811-.5 1.623-.78 2.466-.25.843-.5 1.624-.75 2.311zm14.239-7.088a1.845 1.845 0 01-1.468-.594 2.118 2.118 0 01-.562-1.53 1.846 1.846 0 01.593-1.467 2.192 2.192 0 011.468-.593c.656 0 1.155.187 1.53.593.375.406.562.937.562 1.468a2.021 2.021 0 01-.593 1.53 2.021 2.021 0 01-1.53.593zm-1.874 14.457V14.2c0-.157.063-.219.219-.219h3.31c.156 0 .218.094.218.219v12.833c0 .188-.062.281-.218.281h-3.28c-.155-.03-.249-.125-.249-.28z" fill="#FF9A00"/></svg>