<svg width="36" height="38" fill="none" xmlns="http://www.w3.org/2000/svg"><path d="M6.208 6.662c1.167.96 1.604.887 3.797.738l20.664-1.255c.438 0 .074-.444-.072-.517l-3.434-2.512c-.656-.517-1.534-1.109-3.213-.961L3.942 3.633c-.729.073-.876.444-.585.738l2.851 2.291zm1.24 4.877v22.015c0 1.182.583 1.626 1.898 1.551l22.71-1.33c1.315-.073 1.462-.886 1.462-1.848V10.06c0-.96-.364-1.477-1.17-1.404L8.617 10.06c-.876.074-1.168.52-1.168 1.479zm22.42 1.18c.145.665 0 1.33-.658 1.405l-1.094.222v16.252c-.951.517-1.827.813-2.557.813-1.17 0-1.462-.37-2.338-1.477l-7.157-11.378v11.008l2.264.519s0 1.33-1.826 1.33l-5.038.294c-.146-.294 0-1.034.511-1.18l1.314-.37V15.602l-1.822-.15c-.147-.664.219-1.624 1.24-1.698l5.404-.369 7.45 11.525V14.713l-1.9-.22c-.146-.813.438-1.404 1.168-1.477l5.038-.297zM2.262 1.639L23.076.086c2.555-.222 3.213-.075 4.82 1.108l6.643 4.728C35.634 6.735 36 6.957 36 7.843v25.932c0 1.625-.583 2.587-2.627 2.733L9.2 37.987c-1.533.074-2.264-.147-3.068-1.183L1.24 30.376C.364 29.193 0 28.308 0 27.272V4.223c0-1.328.585-2.438 2.263-2.584z" fill="#000"/></svg>