<svg width="20" height="20" fill="none" xmlns="http://www.w3.org/2000/svg"><path d="M12.768 6.743l.596.616-6.016 5.816-.596-.618 6.016-5.814z" fill="#fff"/><path d="M13 7h5.4a.6.6 0 01.6.6v10.8a.6.6 0 01-.6.6H7.6a.6.6 0 01-.6-.6V13" fill="#fff"/><path d="M13 7h5.4a.6.6 0 01.6.6v10.8a.6.6 0 01-.6.6H7.6a.6.6 0 01-.6-.6V13" stroke="#16161A" stroke-width=".8" stroke-linecap="round" stroke-linejoin="round"/><path d="M13 7V1.6a.6.6 0 00-.6-.6H1.6a.6.6 0 00-.6.6v10.8a.6.6 0 00.6.6H7" fill="#fff"/><path d="M13 7V1.6a.6.6 0 00-.6-.6H1.6a.6.6 0 00-.6.6v10.8a.6.6 0 00.6.6H7" stroke="#16161A" stroke-width=".8" stroke-linecap="round" stroke-linejoin="round"/><path d="M5 10a.5.5 0 01-.5-.5V4a.5.5 0 01.5-.5h1.877a4.5 4.5 0 011.018.11c.322.066.6.182.834.348.24.16.428.376.565.648.137.266.206.595.206.987 0 .38-.072.708-.216.987a1.88 1.88 0 01-.566.688 2.45 2.45 0 01-.833.399 3.8 3.8 0 01-1.008.13h-.364a.5.5 0 00-.5.5V9.5a.5.5 0 01-.5.5H5zm1.013-3.87a.5.5 0 00.5.5h.271c.823 0 1.234-.346 1.234-1.037 0-.339-.106-.578-.319-.717-.205-.14-.51-.21-.915-.21h-.271a.5.5 0 00-.5.5v.964zM11 16.5a.5.5 0 01-.5-.5v-5.5a.5.5 0 01.5-.5h1.744c.348 0 .669.027.963.08.3.046.56.133.778.259.22.126.39.292.513.498.13.207.195.466.195.778 0 .147-.024.293-.072.438a1.202 1.202 0 01-.205.41 1.581 1.581 0 01-.359.339c-.15.101-.316.174-.493.215a.025.025 0 00-.014.008.026.026 0 00-.005.015c0 .006.002.011.006.016a.025.025 0 00.014.009c.468.087.824.252 1.066.495.246.245.369.587.369 1.026 0 .332-.065.618-.195.857a1.7 1.7 0 01-.543.598 2.7 2.7 0 01-.82.35c-.329.075-.666.112-1.004.109H11zm1.006-4.388a.5.5 0 00.5.5h.166c.369 0 .635-.07.8-.21.163-.139.245-.335.245-.587 0-.24-.085-.41-.256-.509-.164-.107-.424-.16-.779-.16h-.176a.5.5 0 00-.5.5v.466zm0 2.742a.5.5 0 00.5.5h.31c.806 0 1.208-.293 1.208-.878 0-.286-.098-.492-.296-.618-.192-.126-.496-.19-.912-.19h-.31a.5.5 0 00-.5.5v.686z" fill="#16161A"/></svg>