<svg width="28" height="17" fill="none" xmlns="http://www.w3.org/2000/svg"><path fill-rule="evenodd" clip-rule="evenodd" d="M14 0c-3.733 0-6.067 1.867-7 5.6 1.4-1.867 3.033-2.567 4.9-2.1 1.065.266 1.826 1.04 2.669 1.894C15.94 6.787 17.53 8.4 21 8.4c3.733 0 6.067-1.867 7-5.6-1.4 1.867-3.033 2.567-4.9 2.1-1.065-.266-1.826-1.04-2.669-1.894C19.06 1.613 17.47 0 14 0zM7 8.4C3.267 8.4.933 10.267 0 14c1.4-1.867 3.033-2.567 4.9-2.1 1.065.266 1.826 1.04 2.669 1.894C8.94 15.187 10.53 16.8 14 16.8c3.733 0 6.067-1.867 7-5.6-1.4 1.867-3.033 2.567-4.9 2.1-1.065-.266-1.826-1.04-2.669-1.894C12.06 10.013 10.47 8.4 7 8.4z" fill="#38BDF8"/></svg>